<svg width="222" height="60" viewBox="0 0 222 60" fill="none" xmlns="http://www.w3.org/2000/svg">
<path d="M58.2579 11.8262V47.703H50.9434V11.8262H58.2579Z" fill="white"/>
<path d="M88.1125 23.5148V47.7839C88.1125 55.317 82.249 59.9482 75.0736 59.9482C68.1566 59.9482 62.9888 55.6549 62.4919 49.5926L69.7865 49.6324C70.0846 52.2163 72.3505 53.3294 75.332 53.3294C78.1545 53.3294 80.7781 51.8188 80.7781 47.8833V44.7826C78.9097 45.995 76.5246 46.7106 73.8611 46.7106C67.1827 46.7106 61.8359 41.3042 61.8359 35.0829C61.8359 27.8479 67.2026 22.998 73.8611 22.998C76.5445 22.998 78.9097 23.7136 80.7781 24.9261V23.6142L88.1125 23.5148ZM80.798 37.806V31.9027C79.3073 29.7361 77.2401 29.0206 75.1929 29.0206C71.5952 29.0206 69.0908 31.4256 69.0908 35.0829C69.0908 37.7662 71.5952 40.7079 75.1929 40.7079C77.2401 40.688 79.3073 39.9526 80.798 37.806Z" fill="white"/>
<path d="M117.29 35.3206C117.29 42.7941 111.765 48.121 104.351 48.121C96.8772 48.121 91.3516 42.7941 91.3516 35.3206C91.3516 27.9067 96.8772 22.4805 104.351 22.4805C111.765 22.4805 117.29 27.9067 117.29 35.3206ZM110.234 35.3206C110.234 31.8025 107.928 28.9602 104.351 28.9602C100.733 28.9602 98.4276 31.8025 98.4276 35.3206C98.4276 38.9381 100.733 41.6413 104.351 41.6413C107.909 41.6214 110.234 38.9381 110.234 35.3206Z" fill="white"/>
<path d="M162.707 23.553V47.663L155.532 47.7028V46.3313C153.664 47.5438 151.278 48.2991 148.615 48.2991C141.937 48.2991 136.59 42.6343 136.59 35.6577C136.59 28.6413 141.956 22.9766 148.615 22.9766C151.298 22.9766 153.664 23.7319 155.532 24.9443V23.5729L162.707 23.553ZM155.532 39.3547V31.9607C154.021 29.814 151.915 29.2178 149.808 29.2178C146.131 29.2178 143.586 32.1595 143.586 35.6776C143.586 39.1559 146.131 42.0976 149.808 42.0976C151.915 42.0778 154.021 41.5014 155.532 39.3547Z" fill="white"/>
<path d="M192.205 34.6059V47.7044H185.149V35.4605C185.149 31.525 183.181 29.438 179.683 29.438C177.854 29.438 175.847 30.4914 174.117 32.5188V47.7044H166.902V23.5943H174.117V25.423C176.085 23.8527 178.371 22.998 181.094 22.998C187.534 22.998 192.205 27.5299 192.205 34.6059Z" fill="white"/>
<path d="M47.6039 47.6834H40.1503L35.3004 29.6556L24.8653 47.6834H16.5371L32.637 19.777L30.0531 10.0773L8.3282 47.7033H0L27.5288 0H34.8234L38.0235 11.8463H45.5567L40.4087 20.7907L47.6039 47.6834Z" fill="white"/>
<path d="M221.343 11.8265V47.7034H214.028V46.3319C212.16 47.5444 209.775 48.2997 207.111 48.2997C200.433 48.2997 195.086 42.6349 195.086 35.6185C195.086 28.6419 200.453 22.9772 207.111 22.9772C209.794 22.9772 212.16 23.7325 214.028 24.9449V11.8066L221.343 11.8265ZM214.028 39.3752V31.9215C212.498 29.755 210.371 29.1587 208.264 29.1587C204.567 29.1587 202.003 32.1203 202.003 35.6185C202.003 39.1764 204.567 42.138 208.264 42.138C210.371 42.138 212.498 41.5417 214.028 39.3752Z" fill="white"/>
<path d="M135.279 29.6757C133.689 29.8745 129.952 30.0533 127.766 33.0746V47.7234H120.551V23.6333H127.766V25.442C129.416 24.0308 131.9 23.196 135.279 23.5339" fill="white"/>
</svg>
