<svg width="255" height="52" viewBox="0 0 255 52" fill="none" xmlns="http://www.w3.org/2000/svg">
<path d="M68.7457 17.1074H71.5038L79.2338 35.0629H75.5752L73.9053 30.954H66.119L64.5055 35.0629H60.9219L68.727 17.1074H68.7457ZM72.7984 28.2147L70.0403 20.9162L67.226 28.2147H72.7984Z" fill="white"/>
<path d="M82.666 16.7559H86.3434L91.2404 30.321L96.2874 16.7559H99.7397L92.4787 34.7113H89.7206L82.666 16.7559Z" fill="white"/>
<path d="M111.147 16.7559H113.905L121.635 34.7113H117.976L116.307 30.6024H108.52L106.907 34.7113H103.342L111.147 16.7559ZM115.2 27.8631L112.441 20.5646L109.627 27.8631H115.2Z" fill="white"/>
<path d="M128.709 16.7559H131.899V31.8219H139.535V34.7113H128.709V16.7559Z" fill="white"/>
<path d="M152.725 16.7559H155.483L163.213 34.7113H159.554L157.885 30.6024H150.098L148.485 34.7113H144.92L152.725 16.7559ZM156.778 27.8631L154.02 20.5646L151.205 27.8631H156.778Z" fill="white"/>
<path d="M170.287 16.7559H174.527L183.214 30.0958H183.271V16.7559H186.46V34.7113H182.408L173.533 20.9398H173.477V34.7113H170.287V16.7559Z" fill="white"/>
<path d="M207.849 20.9585C207.193 20.2455 206.555 19.7765 205.917 19.5326C205.316 19.2887 204.697 19.1761 204.059 19.1761C203.121 19.1761 202.277 19.3449 201.526 19.6827C200.776 20.0016 200.138 20.4519 199.594 21.0523C199.05 21.6339 198.637 22.3094 198.318 23.0786C198.037 23.8479 197.887 24.6922 197.887 25.5928C197.887 26.5496 198.037 27.4502 198.318 28.257C198.618 29.0638 199.05 29.7767 199.594 30.3584C200.138 30.9588 200.776 31.4091 201.526 31.7468C202.296 32.0845 203.14 32.2534 204.059 32.2534C204.791 32.2534 205.485 32.0845 206.161 31.7468C206.855 31.3903 207.493 30.8274 208.093 30.0769L210.72 31.9532C209.913 33.0601 208.919 33.8857 207.755 34.3923C206.592 34.8988 205.354 35.1615 204.022 35.1615C202.633 35.1615 201.358 34.9364 200.194 34.5048C199.05 34.0545 198.055 33.4166 197.211 32.6098C196.386 31.7843 195.729 30.7899 195.26 29.6454C194.791 28.5009 194.547 27.2251 194.547 25.8179C194.547 24.3732 194.791 23.0786 195.26 21.9154C195.729 20.7333 196.386 19.7202 197.211 18.8946C198.055 18.0691 199.05 17.4312 200.194 16.9997C201.358 16.5494 202.633 16.3242 204.022 16.3242C205.241 16.3242 206.367 16.5494 207.399 16.9809C208.45 17.4124 209.425 18.1254 210.307 19.1573L207.831 20.9773L207.849 20.9585Z" fill="white"/>
<path d="M217.961 16.7559H221.151V23.9043H229.537V16.7559H232.746V34.7113H229.537V26.7937H221.151V34.7113H217.961V16.7559Z" fill="white"/>
<path d="M241.826 16.7559H253.703V19.6452H245.016V24.0544H253.252V26.9438H245.016V31.8219H254.172V34.7113H241.826V16.7559Z" fill="white"/>
<path fill-rule="evenodd" clip-rule="evenodd" d="M51.4836 25.7418C51.4836 39.9636 39.9636 51.4836 25.7418 51.4836C11.52 51.4836 0 39.9636 0 25.7418C0 11.52 11.52 0 25.7418 0C39.9636 0 51.4836 11.52 51.4836 25.7418ZM18.4433 35.986H13.4525C12.4018 35.986 11.8765 35.986 11.5763 35.7796C11.2386 35.5544 11.0322 35.198 10.9947 34.7852C10.9759 34.4099 11.2386 33.9597 11.7452 33.0403L24.0907 11.2949C24.6161 10.3755 24.8787 9.90646 25.2164 9.7376C25.5729 9.54998 26.0045 9.54998 26.3609 9.7376C26.6987 9.90646 26.9613 10.3755 27.4867 11.2949L30.0196 15.7228L30.0383 15.7415C30.6012 16.7359 30.9014 17.2425 31.014 17.7678C31.1453 18.3495 31.1453 18.9499 31.014 19.5315C30.8826 20.0568 30.6012 20.5634 30.0196 21.5766L23.5466 33.0403L23.5278 33.0778C22.965 34.0722 22.6648 34.5788 22.2708 34.9728C21.8392 35.3856 21.3139 35.6858 20.7323 35.8734C20.2069 36.0235 19.6253 36.0235 18.4433 36.0235V35.986ZM31.0515 35.986H38.2187C39.2694 35.986 39.8135 35.986 40.1137 35.7796C40.4514 35.5544 40.6765 35.1792 40.6953 34.7852C40.7141 34.4287 40.4514 33.9784 39.9636 33.1341C39.9448 33.0966 39.926 33.0778 39.9073 33.0403L36.3237 26.9051L36.2862 26.83C35.7796 25.9857 35.5357 25.5542 35.198 25.3853C34.8415 25.1977 34.4099 25.1977 34.0535 25.3853C33.7157 25.5542 33.4531 26.0045 32.9277 26.9051L29.3629 33.0403L29.3441 33.0591C28.8188 33.9597 28.5561 34.4099 28.5749 34.7852C28.5937 35.198 28.8 35.5544 29.1565 35.7796C29.4755 35.986 30.0008 35.986 31.0515 35.986Z" fill="#E84142"/>
</svg>
