<svg width="246" height="50" viewBox="0 0 246 50" fill="none" xmlns="http://www.w3.org/2000/svg">
<path d="M15.0034 20.5961L24.522 11.0779L34.0456 20.6011L39.5841 15.0625L24.522 0L9.46484 15.0575L15.0034 20.5961Z" fill="#F3BA2F"/>
<path d="M11.0932 24.5053L5.55469 18.9668L0.015949 24.5055L5.55442 30.044L11.0932 24.5053Z" fill="#F3BA2F"/>
<path d="M15.0037 28.4187L24.5223 37.9369L34.0455 28.4141L39.5872 33.9495L39.5844 33.9526L24.5223 49.0148L9.46477 33.9577L9.45703 33.9499L15.0037 28.4187Z" fill="#F3BA2F"/>
<path d="M43.4906 30.0466L49.0293 24.5078L43.4908 18.9693L37.9521 24.5081L43.4906 30.0466Z" fill="#F3BA2F"/>
<path d="M30.1413 24.5031H30.1436L24.5233 18.8828L20.3699 23.0362H20.3695L19.8926 23.5136L18.9081 24.498L18.9004 24.5058L18.9081 24.5139L24.5233 30.1291L30.1436 24.5089L30.1463 24.5058L30.1413 24.5031Z" fill="#F3BA2F"/>
<path d="M57.6641 11.877H69.7102C72.6999 11.877 74.9607 12.6442 76.4929 14.1788C77.6787 15.3672 78.2714 16.8403 78.2714 18.5974V18.6717C78.2714 19.4142 78.1796 20.0704 77.995 20.6395C77.8107 21.2093 77.5645 21.7223 77.2567 22.1802C76.9497 22.6386 76.5928 23.0408 76.1871 23.3869C75.781 23.7337 75.3447 24.031 74.8775 24.278C76.3803 24.8479 77.5633 25.621 78.4258 26.5988C79.288 27.5771 79.7196 28.9324 79.7196 30.6648V30.7387C79.7196 31.9272 79.4912 32.9666 79.034 33.8582C78.5768 34.7489 77.9218 35.4918 77.069 36.086C76.2161 36.6803 75.1906 37.1255 73.9921 37.4228C72.7936 37.7197 71.4654 37.868 70.0078 37.868H57.6641V11.877ZM68.5058 22.3846C69.7686 22.3846 70.7713 22.1686 71.5134 21.735C72.2559 21.3018 72.6271 20.6023 72.6271 19.6372V19.5629C72.6271 18.6969 72.305 18.0349 71.6616 17.5766C71.0179 17.1186 70.0895 16.8894 68.8771 16.8894H63.2332V22.3846H68.5058ZM70.0284 32.8559C71.2908 32.8559 72.2803 32.6275 72.9988 32.1691C73.7165 31.7112 74.0757 30.9993 74.0757 30.0338V29.9598C74.0757 29.0934 73.7413 28.4067 73.0731 27.8988C72.4045 27.392 71.3279 27.1381 69.8425 27.1381H63.2332V32.8563L70.0284 32.8559Z" fill="#F3BA2F"/>
<path d="M86.8945 11.877H92.6131V37.8687H86.8945V11.877Z" fill="#F3BA2F"/>
<path d="M101.273 11.877H106.545L118.725 27.8806V11.877H124.368V37.8687H119.505L106.917 21.3456V37.8687H101.273V11.877Z" fill="#F3BA2F"/>
<path d="M141.681 11.6914H146.953L158.093 37.8686H152.115L149.738 32.0393H138.748L136.371 37.8686H130.541L141.681 11.6914ZM147.696 26.9889L144.243 18.5605L140.79 26.9889H147.696Z" fill="#F3BA2F"/>
<path d="M164.266 11.877H169.539L181.717 27.8806V11.877H187.361V37.8687H182.497L169.909 21.3456V37.8687H164.266V11.877Z" fill="#F3BA2F"/>
<path d="M207.94 38.3142C206.033 38.3142 204.263 37.9673 202.629 37.2748C200.995 36.5822 199.585 35.6349 198.397 34.4341C197.208 33.2336 196.279 31.8163 195.612 30.1827C194.943 28.5486 194.609 26.8035 194.609 24.9469V24.8729C194.609 23.0163 194.943 21.2777 195.612 19.6561C196.28 18.0348 197.208 16.6113 198.397 15.3861C199.584 14.1609 201.008 13.195 202.666 12.4896C204.324 11.7843 206.157 11.4316 208.162 11.4316C209.374 11.4316 210.482 11.5311 211.484 11.7286C212.487 11.9272 213.396 12.1989 214.214 12.5454C215.031 12.8923 215.785 13.3131 216.479 13.8078C217.171 14.3033 217.815 14.8476 218.41 15.4418L214.771 19.6375C213.755 18.7219 212.722 18.0034 211.671 17.4839C210.618 16.9644 209.437 16.7042 208.125 16.7042C207.035 16.7042 206.026 16.9148 205.099 17.3356C204.171 17.7564 203.372 18.3379 202.703 19.0804C202.036 19.8229 201.516 20.6835 201.144 21.661C200.773 22.6392 200.588 23.6848 200.588 24.7986V24.8725C200.588 25.9863 200.773 27.0389 201.144 28.0284C201.516 29.019 202.028 29.885 202.685 30.6275C203.341 31.37 204.133 31.9584 205.061 32.3916C205.99 32.8252 207.011 33.0412 208.125 33.0412C209.61 33.0412 210.865 32.7691 211.893 32.2244C212.92 31.6805 213.942 30.9376 214.957 29.9965L218.595 33.6726C217.927 34.3907 217.233 35.0345 216.516 35.6032C215.798 36.173 215.012 36.6616 214.158 37.0704C213.304 37.4784 212.369 37.7885 211.355 37.9983C210.339 38.2085 209.201 38.3142 207.94 38.3142Z" fill="#F3BA2F"/>
<path d="M225.326 11.877H244.894V16.9641H230.97V22.2367H243.224V27.3235H230.97V32.782H245.081V37.8687H225.326V11.877Z" fill="#F3BA2F"/>
</svg>
