<svg width="293" height="98" viewBox="0 0 293 98" fill="none" xmlns="http://www.w3.org/2000/svg">
<path d="M3.5 33C3.5 16.7076 16.7076 3.5 33 3.5H141.276H260C276.292 3.5 289.5 16.7076 289.5 33V65C289.5 81.2924 276.292 94.5 260 94.5H33C16.7076 94.5 3.5 81.2924 3.5 65V33Z" fill="url(#paint0_linear_638_30)" fill-opacity="0.2" stroke="url(#paint1_linear_638_30)" stroke-width="7"/>
<g filter="url(#filter0_d_638_30)">
<path d="M54.9929 44.652H50.2116C50.0753 43.8679 49.8239 43.1733 49.4574 42.5682C49.0909 41.9545 48.6349 41.4347 48.0895 41.0085C47.544 40.5824 46.9219 40.2628 46.223 40.0497C45.5327 39.8281 44.7869 39.7173 43.9858 39.7173C42.5625 39.7173 41.3011 40.0753 40.2017 40.7912C39.1023 41.4986 38.2415 42.5384 37.6193 43.9105C36.9972 45.2741 36.6861 46.9403 36.6861 48.9091C36.6861 50.9119 36.9972 52.5994 37.6193 53.9716C38.25 55.3352 39.1108 56.3665 40.2017 57.0653C41.3011 57.7557 42.5582 58.1009 43.973 58.1009C44.7571 58.1009 45.4901 57.9986 46.1719 57.794C46.8622 57.581 47.4801 57.2699 48.0256 56.8608C48.5795 56.4517 49.044 55.9489 49.419 55.3523C49.8026 54.7557 50.0668 54.0739 50.2116 53.3068L54.9929 53.3324C54.8139 54.5767 54.4261 55.7443 53.8295 56.8352C53.2415 57.9261 52.4702 58.8892 51.5156 59.7244C50.5611 60.5511 49.4446 61.1989 48.1662 61.6676C46.8878 62.1278 45.4688 62.358 43.9091 62.358C41.608 62.358 39.554 61.8253 37.7472 60.7599C35.9403 59.6946 34.517 58.1562 33.4773 56.1449C32.4375 54.1335 31.9176 51.7216 31.9176 48.9091C31.9176 46.0881 32.4418 43.6761 33.4901 41.6733C34.5384 39.6619 35.9659 38.1236 37.7727 37.0582C39.5795 35.9929 41.625 35.4602 43.9091 35.4602C45.3665 35.4602 46.7216 35.6648 47.9744 36.0739C49.2273 36.483 50.3438 37.0838 51.3239 37.8764C52.304 38.6605 53.1094 39.6236 53.7401 40.7656C54.3793 41.8991 54.7969 43.1946 54.9929 44.652ZM67.6971 62.3835C65.7795 62.3835 64.1175 61.9616 62.7113 61.1179C61.305 60.2741 60.2141 59.0937 59.4386 57.5767C58.6715 56.0597 58.288 54.2869 58.288 52.2585C58.288 50.2301 58.6715 48.4531 59.4386 46.9276C60.2141 45.402 61.305 44.2173 62.7113 43.3736C64.1175 42.5298 65.7795 42.108 67.6971 42.108C69.6147 42.108 71.2766 42.5298 72.6829 43.3736C74.0891 44.2173 75.1758 45.402 75.9428 46.9276C76.7184 48.4531 77.1062 50.2301 77.1062 52.2585C77.1062 54.2869 76.7184 56.0597 75.9428 57.5767C75.1758 59.0937 74.0891 60.2741 72.6829 61.1179C71.2766 61.9616 69.6147 62.3835 67.6971 62.3835ZM67.7227 58.6761C68.7624 58.6761 69.6317 58.3906 70.3306 57.8196C71.0295 57.2401 71.5494 56.4645 71.8903 55.4929C72.2397 54.5213 72.4144 53.4389 72.4144 52.2457C72.4144 51.044 72.2397 49.9574 71.8903 48.9858C71.5494 48.0057 71.0295 47.2259 70.3306 46.6463C69.6317 46.0668 68.7624 45.777 67.7227 45.777C66.6573 45.777 65.771 46.0668 65.0636 46.6463C64.3647 47.2259 63.8406 48.0057 63.4911 48.9858C63.1502 49.9574 62.9798 51.044 62.9798 52.2457C62.9798 53.4389 63.1502 54.5213 63.4911 55.4929C63.8406 56.4645 64.3647 57.2401 65.0636 57.8196C65.771 58.3906 66.6573 58.6761 67.7227 58.6761ZM81.0341 62V42.3636H85.5213V45.6364H85.7259C86.0838 44.5028 86.6974 43.6293 87.5668 43.0156C88.4446 42.3935 89.446 42.0824 90.571 42.0824C90.8267 42.0824 91.1122 42.0952 91.4276 42.1207C91.7514 42.1378 92.0199 42.1676 92.233 42.2102V46.4673C92.0369 46.3991 91.7259 46.3395 91.2997 46.2884C90.8821 46.2287 90.4773 46.1989 90.0852 46.1989C89.2415 46.1989 88.483 46.3821 87.8097 46.7486C87.1449 47.1065 86.6207 47.6051 86.2372 48.2443C85.8537 48.8835 85.6619 49.6207 85.6619 50.456V62H81.0341ZM95.3075 69.3636V42.3636H99.8587V45.6108H100.127C100.366 45.1335 100.702 44.6264 101.137 44.0895C101.572 43.544 102.16 43.0795 102.901 42.696C103.643 42.304 104.589 42.108 105.739 42.108C107.256 42.108 108.624 42.4957 109.843 43.2713C111.07 44.0384 112.042 45.1761 112.758 46.6847C113.482 48.1847 113.844 50.0256 113.844 52.2074C113.844 54.3636 113.491 56.196 112.783 57.7045C112.076 59.2131 111.113 60.3636 109.894 61.1562C108.675 61.9489 107.295 62.3452 105.752 62.3452C104.627 62.3452 103.694 62.1577 102.952 61.7827C102.211 61.4077 101.614 60.956 101.163 60.4276C100.719 59.8906 100.374 59.3835 100.127 58.9062H99.9354V69.3636H95.3075ZM99.8459 52.1818C99.8459 53.4517 100.025 54.5639 100.383 55.5185C100.749 56.473 101.273 57.2187 101.955 57.7557C102.646 58.2841 103.481 58.5483 104.461 58.5483C105.484 58.5483 106.34 58.2756 107.031 57.7301C107.721 57.1761 108.241 56.4219 108.59 55.4673C108.948 54.5043 109.127 53.4091 109.127 52.1818C109.127 50.9631 108.952 49.8807 108.603 48.9347C108.254 47.9886 107.734 47.2472 107.043 46.7102C106.353 46.1733 105.492 45.9048 104.461 45.9048C103.472 45.9048 102.633 46.1648 101.942 46.6847C101.252 47.2045 100.728 47.9332 100.37 48.8707C100.021 49.8082 99.8459 50.9119 99.8459 52.1818ZM126.373 62.3835C124.455 62.3835 122.793 61.9616 121.387 61.1179C119.981 60.2741 118.89 59.0937 118.114 57.5767C117.347 56.0597 116.964 54.2869 116.964 52.2585C116.964 50.2301 117.347 48.4531 118.114 46.9276C118.89 45.402 119.981 44.2173 121.387 43.3736C122.793 42.5298 124.455 42.108 126.373 42.108C128.29 42.108 129.952 42.5298 131.359 43.3736C132.765 44.2173 133.852 45.402 134.619 46.9276C135.394 48.4531 135.782 50.2301 135.782 52.2585C135.782 54.2869 135.394 56.0597 134.619 57.5767C133.852 59.0937 132.765 60.2741 131.359 61.1179C129.952 61.9616 128.29 62.3835 126.373 62.3835ZM126.398 58.6761C127.438 58.6761 128.308 58.3906 129.006 57.8196C129.705 57.2401 130.225 56.4645 130.566 55.4929C130.915 54.5213 131.09 53.4389 131.09 52.2457C131.09 51.044 130.915 49.9574 130.566 48.9858C130.225 48.0057 129.705 47.2259 129.006 46.6463C128.308 46.0668 127.438 45.777 126.398 45.777C125.333 45.777 124.447 46.0668 123.739 46.6463C123.04 47.2259 122.516 48.0057 122.167 48.9858C121.826 49.9574 121.656 51.044 121.656 52.2457C121.656 53.4389 121.826 54.5213 122.167 55.4929C122.516 56.4645 123.04 57.2401 123.739 57.8196C124.447 58.3906 125.333 58.6761 126.398 58.6761ZM139.71 62V42.3636H144.197V45.6364H144.402C144.76 44.5028 145.373 43.6293 146.243 43.0156C147.12 42.3935 148.122 42.0824 149.247 42.0824C149.502 42.0824 149.788 42.0952 150.103 42.1207C150.427 42.1378 150.696 42.1676 150.909 42.2102V46.4673C150.713 46.3991 150.402 46.3395 149.975 46.2884C149.558 46.2287 149.153 46.1989 148.761 46.1989C147.917 46.1989 147.159 46.3821 146.485 46.7486C145.821 47.1065 145.297 47.6051 144.913 48.2443C144.529 48.8835 144.338 49.6207 144.338 50.456V62H139.71ZM159.282 62.3963C158.038 62.3963 156.917 62.1747 155.92 61.7315C154.931 61.2798 154.147 60.6151 153.568 59.7372C152.997 58.8594 152.711 57.777 152.711 56.4901C152.711 55.3821 152.916 54.4659 153.325 53.7415C153.734 53.017 154.292 52.4375 155 52.0028C155.707 51.5682 156.504 51.2401 157.39 51.0185C158.285 50.7884 159.21 50.6222 160.164 50.5199C161.315 50.4006 162.248 50.294 162.964 50.2003C163.68 50.098 164.2 49.9446 164.524 49.7401C164.856 49.527 165.022 49.1989 165.022 48.7557V48.679C165.022 47.7159 164.737 46.9702 164.166 46.4418C163.595 45.9134 162.772 45.6491 161.699 45.6491C160.565 45.6491 159.666 45.8963 159.001 46.3906C158.345 46.8849 157.902 47.4687 157.672 48.142L153.35 47.5284C153.691 46.3352 154.254 45.3381 155.038 44.5369C155.822 43.7273 156.781 43.1222 157.914 42.7216C159.048 42.3125 160.301 42.108 161.673 42.108C162.619 42.108 163.561 42.2188 164.498 42.4403C165.436 42.6619 166.292 43.0284 167.068 43.5398C167.843 44.0426 168.466 44.7287 168.934 45.598C169.412 46.4673 169.65 47.554 169.65 48.858V62H165.201V59.3026H165.048C164.767 59.848 164.37 60.3594 163.859 60.8366C163.356 61.3054 162.721 61.6847 161.954 61.9744C161.196 62.2557 160.305 62.3963 159.282 62.3963ZM160.484 58.9957C161.413 58.9957 162.218 58.8125 162.9 58.446C163.582 58.071 164.106 57.5767 164.473 56.9631C164.848 56.3494 165.035 55.6804 165.035 54.956V52.642C164.89 52.7614 164.643 52.8722 164.294 52.9744C163.953 53.0767 163.569 53.1662 163.143 53.2429C162.717 53.3196 162.295 53.3878 161.877 53.4474C161.46 53.5071 161.098 53.5582 160.791 53.6009C160.1 53.6946 159.483 53.848 158.937 54.0611C158.392 54.2741 157.961 54.5724 157.646 54.956C157.331 55.331 157.173 55.8168 157.173 56.4134C157.173 57.2656 157.484 57.9091 158.106 58.3438C158.728 58.7784 159.521 58.9957 160.484 58.9957ZM184.109 42.3636V45.9432H172.821V42.3636H184.109ZM175.608 37.6591H180.235V56.0938C180.235 56.7159 180.329 57.1932 180.517 57.5256C180.713 57.8494 180.968 58.071 181.284 58.1903C181.599 58.3097 181.949 58.3693 182.332 58.3693C182.622 58.3693 182.886 58.348 183.125 58.3054C183.372 58.2628 183.559 58.2244 183.687 58.1903L184.467 61.8082C184.22 61.8935 183.866 61.9872 183.406 62.0895C182.954 62.1918 182.4 62.2514 181.744 62.2685C180.585 62.3026 179.541 62.1278 178.612 61.7443C177.683 61.3523 176.946 60.7472 176.4 59.929C175.863 59.1108 175.599 58.0881 175.608 56.8608V37.6591ZM187.979 62V42.3636H192.607V62H187.979ZM190.306 39.5767C189.573 39.5767 188.942 39.3338 188.414 38.848C187.886 38.3537 187.621 37.7614 187.621 37.071C187.621 36.3722 187.886 35.7798 188.414 35.294C188.942 34.7997 189.573 34.5526 190.306 34.5526C191.048 34.5526 191.678 34.7997 192.198 35.294C192.727 35.7798 192.991 36.3722 192.991 37.071C192.991 37.7614 192.727 38.3537 192.198 38.848C191.678 39.3338 191.048 39.5767 190.306 39.5767ZM205.931 62.3835C204.014 62.3835 202.352 61.9616 200.946 61.1179C199.539 60.2741 198.449 59.0937 197.673 57.5767C196.906 56.0597 196.522 54.2869 196.522 52.2585C196.522 50.2301 196.906 48.4531 197.673 46.9276C198.449 45.402 199.539 44.2173 200.946 43.3736C202.352 42.5298 204.014 42.108 205.931 42.108C207.849 42.108 209.511 42.5298 210.917 43.3736C212.324 44.2173 213.41 45.402 214.177 46.9276C214.953 48.4531 215.341 50.2301 215.341 52.2585C215.341 54.2869 214.953 56.0597 214.177 57.5767C213.41 59.0937 212.324 60.2741 210.917 61.1179C209.511 61.9616 207.849 62.3835 205.931 62.3835ZM205.957 58.6761C206.997 58.6761 207.866 58.3906 208.565 57.8196C209.264 57.2401 209.784 56.4645 210.125 55.4929C210.474 54.5213 210.649 53.4389 210.649 52.2457C210.649 51.044 210.474 49.9574 210.125 48.9858C209.784 48.0057 209.264 47.2259 208.565 46.6463C207.866 46.0668 206.997 45.777 205.957 45.777C204.892 45.777 204.005 46.0668 203.298 46.6463C202.599 47.2259 202.075 48.0057 201.725 48.9858C201.385 49.9574 201.214 51.044 201.214 52.2457C201.214 53.4389 201.385 54.5213 201.725 55.4929C202.075 56.4645 202.599 57.2401 203.298 57.8196C204.005 58.3906 204.892 58.6761 205.957 58.6761ZM223.896 50.4943V62H219.268V42.3636H223.692V45.7003H223.922C224.374 44.6009 225.094 43.7273 226.082 43.0795C227.08 42.4318 228.311 42.108 229.777 42.108C231.132 42.108 232.313 42.3977 233.318 42.9773C234.332 43.5568 235.116 44.3963 235.67 45.4957C236.233 46.5952 236.51 47.929 236.501 49.4972V62H231.874V50.2131C231.874 48.9006 231.533 47.8736 230.851 47.1321C230.178 46.3906 229.244 46.0199 228.051 46.0199C227.241 46.0199 226.521 46.1989 225.891 46.5568C225.268 46.9062 224.778 47.4134 224.42 48.0781C224.071 48.7429 223.896 49.5483 223.896 50.4943ZM256.726 47.554L252.507 48.0142C252.388 47.5881 252.179 47.1875 251.881 46.8125C251.591 46.4375 251.199 46.1349 250.705 45.9048C250.21 45.6747 249.605 45.5597 248.889 45.5597C247.926 45.5597 247.116 45.7685 246.46 46.1861C245.812 46.6037 245.493 47.1449 245.501 47.8097C245.493 48.3807 245.702 48.8452 246.128 49.2031C246.563 49.5611 247.278 49.8551 248.276 50.0852L251.625 50.8011C253.483 51.2017 254.864 51.8366 255.767 52.706C256.679 53.5753 257.139 54.7131 257.148 56.1193C257.139 57.3551 256.777 58.446 256.061 59.392C255.354 60.3295 254.369 61.0625 253.108 61.5909C251.847 62.1193 250.398 62.3835 248.761 62.3835C246.358 62.3835 244.423 61.8807 242.957 60.875C241.491 59.8608 240.618 58.4503 240.337 56.6435L244.849 56.2088C245.054 57.0952 245.489 57.7642 246.153 58.2159C246.818 58.6676 247.683 58.8935 248.749 58.8935C249.848 58.8935 250.73 58.6676 251.395 58.2159C252.068 57.7642 252.405 57.206 252.405 56.5412C252.405 55.9787 252.188 55.5142 251.753 55.1477C251.327 54.7812 250.662 54.5 249.759 54.304L246.409 53.6009C244.526 53.2088 243.132 52.5483 242.229 51.6193C241.325 50.6818 240.878 49.4972 240.886 48.0653C240.878 46.8551 241.206 45.8068 241.871 44.9205C242.544 44.0256 243.477 43.3352 244.67 42.8494C245.872 42.3551 247.257 42.108 248.825 42.108C251.126 42.108 252.938 42.598 254.259 43.5781C255.588 44.5582 256.411 45.8835 256.726 47.554Z" fill="url(#paint2_linear_638_30)"/>
</g>
<defs>
<filter id="filter0_d_638_30" x="27.918" y="34.5527" width="233.23" height="42.8105" filterUnits="userSpaceOnUse" color-interpolation-filters="sRGB">
<feFlood flood-opacity="0" result="BackgroundImageFix"/>
<feColorMatrix in="SourceAlpha" type="matrix" values="0 0 0 0 0 0 0 0 0 0 0 0 0 0 0 0 0 0 127 0" result="hardAlpha"/>
<feOffset dy="4"/>
<feGaussianBlur stdDeviation="2"/>
<feComposite in2="hardAlpha" operator="out"/>
<feColorMatrix type="matrix" values="0 0 0 0 1 0 0 0 0 1 0 0 0 0 1 0 0 0 0.21 0"/>
<feBlend mode="normal" in2="BackgroundImageFix" result="effect1_dropShadow_638_30"/>
<feBlend mode="normal" in="SourceGraphic" in2="effect1_dropShadow_638_30" result="shape"/>
</filter>
<linearGradient id="paint0_linear_638_30" x1="146.5" y1="0" x2="146.5" y2="98" gradientUnits="userSpaceOnUse">
<stop stop-color="#D9D9D9"/>
<stop offset="1" stop-color="#737373"/>
</linearGradient>
<linearGradient id="paint1_linear_638_30" x1="100.994" y1="-7.11291" x2="144.393" y2="98.863" gradientUnits="userSpaceOnUse">
<stop stop-color="#93C5FF"/>
<stop offset="0.5" stop-color="#030D19"/>
<stop offset="0.75" stop-color="white"/>
<stop offset="1" stop-color="#0075FF"/>
</linearGradient>
<linearGradient id="paint2_linear_638_30" x1="246.452" y1="16.3333" x2="-2.65784" y2="83.6229" gradientUnits="userSpaceOnUse">
<stop stop-color="#7276AC"/>
<stop offset="0.482483" stop-color="#AAAFF3"/>
<stop offset="1" stop-color="#7276AC"/>
</linearGradient>
</defs>
</svg>
