<svg width="280" height="98" viewBox="0 0 280 98" fill="none" xmlns="http://www.w3.org/2000/svg">
<path d="M3.5 33C3.5 16.7076 16.7076 3.5 33 3.5H135.008H247C263.292 3.5 276.5 16.7076 276.5 33V65C276.5 81.2924 263.292 94.5 247 94.5H33C16.7076 94.5 3.5 81.2924 3.5 65V33Z" fill="url(#paint0_linear_638_33)" fill-opacity="0.2" stroke="url(#paint1_linear_638_33)" stroke-width="7"/>
<g filter="url(#filter0_d_638_33)">
<path d="M54.9929 44.652H50.2116C50.0753 43.8679 49.8239 43.1733 49.4574 42.5682C49.0909 41.9545 48.6349 41.4347 48.0895 41.0085C47.544 40.5824 46.9219 40.2628 46.223 40.0497C45.5327 39.8281 44.7869 39.7173 43.9858 39.7173C42.5625 39.7173 41.3011 40.0753 40.2017 40.7912C39.1023 41.4986 38.2415 42.5384 37.6193 43.9105C36.9972 45.2741 36.6861 46.9403 36.6861 48.9091C36.6861 50.9119 36.9972 52.5994 37.6193 53.9716C38.25 55.3352 39.1108 56.3665 40.2017 57.0653C41.3011 57.7557 42.5582 58.1009 43.973 58.1009C44.7571 58.1009 45.4901 57.9986 46.1719 57.794C46.8622 57.581 47.4801 57.2699 48.0256 56.8608C48.5795 56.4517 49.044 55.9489 49.419 55.3523C49.8026 54.7557 50.0668 54.0739 50.2116 53.3068L54.9929 53.3324C54.8139 54.5767 54.4261 55.7443 53.8295 56.8352C53.2415 57.9261 52.4702 58.8892 51.5156 59.7244C50.5611 60.5511 49.4446 61.1989 48.1662 61.6676C46.8878 62.1278 45.4688 62.358 43.9091 62.358C41.608 62.358 39.554 61.8253 37.7472 60.7599C35.9403 59.6946 34.517 58.1562 33.4773 56.1449C32.4375 54.1335 31.9176 51.7216 31.9176 48.9091C31.9176 46.0881 32.4418 43.6761 33.4901 41.6733C34.5384 39.6619 35.9659 38.1236 37.7727 37.0582C39.5795 35.9929 41.625 35.4602 43.9091 35.4602C45.3665 35.4602 46.7216 35.6648 47.9744 36.0739C49.2273 36.483 50.3438 37.0838 51.3239 37.8764C52.304 38.6605 53.1094 39.6236 53.7401 40.7656C54.3793 41.8991 54.7969 43.1946 54.9929 44.652ZM59.1317 62V42.3636H63.619V45.6364H63.8235C64.1815 44.5028 64.7951 43.6293 65.6644 43.0156C66.5423 42.3935 67.5437 42.0824 68.6687 42.0824C68.9244 42.0824 69.2099 42.0952 69.5252 42.1207C69.8491 42.1378 70.1175 42.1676 70.3306 42.2102V46.4673C70.1346 46.3991 69.8235 46.3395 69.3974 46.2884C68.9798 46.2287 68.5749 46.1989 68.1829 46.1989C67.3391 46.1989 66.5806 46.3821 65.9073 46.7486C65.2425 47.1065 64.7184 47.6051 64.3349 48.2443C63.9513 48.8835 63.7596 49.6207 63.7596 50.456V62H59.1317ZM81.1619 62.3835C79.2443 62.3835 77.5824 61.9616 76.1761 61.1179C74.7699 60.2741 73.679 59.0937 72.9034 57.5767C72.1364 56.0597 71.7528 54.2869 71.7528 52.2585C71.7528 50.2301 72.1364 48.4531 72.9034 46.9276C73.679 45.402 74.7699 44.2173 76.1761 43.3736C77.5824 42.5298 79.2443 42.108 81.1619 42.108C83.0795 42.108 84.7415 42.5298 86.1477 43.3736C87.554 44.2173 88.6406 45.402 89.4077 46.9276C90.1832 48.4531 90.571 50.2301 90.571 52.2585C90.571 54.2869 90.1832 56.0597 89.4077 57.5767C88.6406 59.0937 87.554 60.2741 86.1477 61.1179C84.7415 61.9616 83.0795 62.3835 81.1619 62.3835ZM81.1875 58.6761C82.2273 58.6761 83.0966 58.3906 83.7955 57.8196C84.4943 57.2401 85.0142 56.4645 85.3551 55.4929C85.7045 54.5213 85.8793 53.4389 85.8793 52.2457C85.8793 51.044 85.7045 49.9574 85.3551 48.9858C85.0142 48.0057 84.4943 47.2259 83.7955 46.6463C83.0966 46.0668 82.2273 45.777 81.1875 45.777C80.1222 45.777 79.2358 46.0668 78.5284 46.6463C77.8295 47.2259 77.3054 48.0057 76.956 48.9858C76.6151 49.9574 76.4446 51.044 76.4446 52.2457C76.4446 53.4389 76.6151 54.5213 76.956 55.4929C77.3054 56.4645 77.8295 57.2401 78.5284 57.8196C79.2358 58.3906 80.1222 58.6761 81.1875 58.6761ZM110.019 47.554L105.8 48.0142C105.681 47.5881 105.472 47.1875 105.174 46.8125C104.884 46.4375 104.492 46.1349 103.998 45.9048C103.503 45.6747 102.898 45.5597 102.182 45.5597C101.219 45.5597 100.409 45.7685 99.7532 46.1861C99.1055 46.6037 98.7859 47.1449 98.7944 47.8097C98.7859 48.3807 98.9947 48.8452 99.4208 49.2031C99.8555 49.5611 100.571 49.8551 101.569 50.0852L104.918 50.8011C106.776 51.2017 108.157 51.8366 109.06 52.706C109.972 53.5753 110.432 54.7131 110.441 56.1193C110.432 57.3551 110.07 58.446 109.354 59.392C108.647 60.3295 107.662 61.0625 106.401 61.5909C105.14 62.1193 103.691 62.3835 102.054 62.3835C99.6509 62.3835 97.7163 61.8807 96.2504 60.875C94.7844 59.8608 93.9109 58.4503 93.6296 56.6435L98.1424 56.2088C98.3469 57.0952 98.7816 57.7642 99.4464 58.2159C100.111 58.6676 100.976 58.8935 102.042 58.8935C103.141 58.8935 104.023 58.6676 104.688 58.2159C105.361 57.7642 105.698 57.206 105.698 56.5412C105.698 55.9787 105.48 55.5142 105.046 55.1477C104.62 54.7812 103.955 54.5 103.051 54.304L99.7021 53.6009C97.8185 53.2088 96.4251 52.5483 95.5217 51.6193C94.6183 50.6818 94.1708 49.4972 94.1793 48.0653C94.1708 46.8551 94.4989 45.8068 95.1637 44.9205C95.837 44.0256 96.7702 43.3352 97.9634 42.8494C99.1651 42.3551 100.55 42.108 102.118 42.108C104.419 42.108 106.23 42.598 107.551 43.5781C108.881 44.5582 109.703 45.8835 110.019 47.554ZM129.777 47.554L125.558 48.0142C125.439 47.5881 125.23 47.1875 124.931 46.8125C124.642 46.4375 124.25 46.1349 123.755 45.9048C123.261 45.6747 122.656 45.5597 121.94 45.5597C120.977 45.5597 120.167 45.7685 119.511 46.1861C118.863 46.6037 118.544 47.1449 118.552 47.8097C118.544 48.3807 118.752 48.8452 119.179 49.2031C119.613 49.5611 120.329 49.8551 121.326 50.0852L124.676 50.8011C126.534 51.2017 127.914 51.8366 128.818 52.706C129.73 53.5753 130.19 54.7131 130.199 56.1193C130.19 57.3551 129.828 58.446 129.112 59.392C128.404 60.3295 127.42 61.0625 126.159 61.5909C124.897 62.1193 123.449 62.3835 121.812 62.3835C119.409 62.3835 117.474 61.8807 116.008 60.875C114.542 59.8608 113.669 58.4503 113.387 56.6435L117.9 56.2088C118.105 57.0952 118.539 57.7642 119.204 58.2159C119.869 58.6676 120.734 58.8935 121.799 58.8935C122.899 58.8935 123.781 58.6676 124.446 58.2159C125.119 57.7642 125.456 57.206 125.456 56.5412C125.456 55.9787 125.238 55.5142 124.804 55.1477C124.377 54.7812 123.713 54.5 122.809 54.304L119.46 53.6009C117.576 53.2088 116.183 52.5483 115.279 51.6193C114.376 50.6818 113.929 49.4972 113.937 48.0653C113.929 46.8551 114.257 45.8068 114.922 44.9205C115.595 44.0256 116.528 43.3352 117.721 42.8494C118.923 42.3551 120.308 42.108 121.876 42.108C124.177 42.108 125.988 42.598 127.309 43.5781C128.639 44.5582 129.461 45.8835 129.777 47.554ZM145.917 49.1903V53H134.13V49.1903H145.917ZM159.349 62.3835C157.389 62.3835 155.706 61.9531 154.3 61.0923C152.902 60.2315 151.824 59.0426 151.065 57.5256C150.315 56 149.94 54.2443 149.94 52.2585C149.94 50.2642 150.324 48.5043 151.091 46.9787C151.858 45.4446 152.94 44.2514 154.338 43.3991C155.744 42.5384 157.406 42.108 159.324 42.108C160.918 42.108 162.328 42.402 163.555 42.9901C164.791 43.5696 165.776 44.392 166.509 45.4574C167.241 46.5142 167.659 47.75 167.761 49.1648H163.338C163.159 48.2187 162.733 47.4304 162.06 46.7997C161.395 46.1605 160.504 45.8409 159.388 45.8409C158.442 45.8409 157.611 46.0966 156.895 46.608C156.179 47.1108 155.621 47.8352 155.22 48.7812C154.828 49.7273 154.632 50.8608 154.632 52.1818C154.632 53.5199 154.828 54.6705 155.22 55.6335C155.612 56.5881 156.162 57.3253 156.869 57.8452C157.585 58.3565 158.425 58.6122 159.388 58.6122C160.07 58.6122 160.679 58.4844 161.216 58.2287C161.761 57.9645 162.217 57.5852 162.584 57.0909C162.95 56.5966 163.202 55.9957 163.338 55.2884H167.761C167.651 56.6776 167.241 57.9091 166.534 58.983C165.827 60.0483 164.864 60.8835 163.645 61.4886C162.426 62.0852 160.994 62.3835 159.349 62.3835ZM176.189 50.4943V62H171.561V35.8182H176.087V45.7003H176.317C176.777 44.5923 177.489 43.7187 178.452 43.0795C179.424 42.4318 180.659 42.108 182.159 42.108C183.523 42.108 184.712 42.3935 185.726 42.9645C186.74 43.5355 187.525 44.3707 188.078 45.4702C188.641 46.5696 188.922 47.9119 188.922 49.4972V62H184.294V50.2131C184.294 48.892 183.953 47.8651 183.272 47.1321C182.598 46.3906 181.652 46.0199 180.434 46.0199C179.615 46.0199 178.882 46.1989 178.235 46.5568C177.596 46.9062 177.093 47.4134 176.726 48.0781C176.368 48.7429 176.189 49.5483 176.189 50.4943ZM199.29 62.3963C198.046 62.3963 196.925 62.1747 195.928 61.7315C194.939 61.2798 194.155 60.6151 193.576 59.7372C193.005 58.8594 192.719 57.777 192.719 56.4901C192.719 55.3821 192.924 54.4659 193.333 53.7415C193.742 53.017 194.3 52.4375 195.007 52.0028C195.715 51.5682 196.512 51.2401 197.398 51.0185C198.293 50.7884 199.218 50.6222 200.172 50.5199C201.323 50.4006 202.256 50.294 202.972 50.2003C203.688 50.098 204.208 49.9446 204.532 49.7401C204.864 49.527 205.03 49.1989 205.03 48.7557V48.679C205.03 47.7159 204.745 46.9702 204.174 46.4418C203.603 45.9134 202.78 45.6491 201.706 45.6491C200.573 45.6491 199.674 45.8963 199.009 46.3906C198.353 46.8849 197.909 47.4687 197.679 48.142L193.358 47.5284C193.699 46.3352 194.262 45.3381 195.046 44.5369C195.83 43.7273 196.789 43.1222 197.922 42.7216C199.056 42.3125 200.309 42.108 201.681 42.108C202.627 42.108 203.569 42.2188 204.506 42.4403C205.444 42.6619 206.3 43.0284 207.076 43.5398C207.851 44.0426 208.473 44.7287 208.942 45.598C209.419 46.4673 209.658 47.554 209.658 48.858V62H205.209V59.3026H205.056C204.775 59.848 204.378 60.3594 203.867 60.8366C203.364 61.3054 202.729 61.6847 201.962 61.9744C201.203 62.2557 200.313 62.3963 199.29 62.3963ZM200.492 58.9957C201.421 58.9957 202.226 58.8125 202.908 58.446C203.59 58.071 204.114 57.5767 204.48 56.9631C204.855 56.3494 205.043 55.6804 205.043 54.956V52.642C204.898 52.7614 204.651 52.8722 204.301 52.9744C203.961 53.0767 203.577 53.1662 203.151 53.2429C202.725 53.3196 202.303 53.3878 201.885 53.4474C201.468 53.5071 201.105 53.5582 200.799 53.6009C200.108 53.6946 199.49 53.848 198.945 54.0611C198.4 54.2741 197.969 54.5724 197.654 54.956C197.338 55.331 197.181 55.8168 197.181 56.4134C197.181 57.2656 197.492 57.9091 198.114 58.3438C198.736 58.7784 199.529 58.9957 200.492 58.9957ZM214.311 62V42.3636H218.939V62H214.311ZM216.638 39.5767C215.905 39.5767 215.275 39.3338 214.746 38.848C214.218 38.3537 213.953 37.7614 213.953 37.071C213.953 36.3722 214.218 35.7798 214.746 35.294C215.275 34.7997 215.905 34.5526 216.638 34.5526C217.38 34.5526 218.01 34.7997 218.53 35.294C219.059 35.7798 219.323 36.3722 219.323 37.071C219.323 37.7614 219.059 38.3537 218.53 38.848C218.01 39.3338 217.38 39.5767 216.638 39.5767ZM228.326 50.4943V62H223.698V42.3636H228.121V45.7003H228.352C228.803 44.6009 229.523 43.7273 230.512 43.0795C231.509 42.4318 232.741 42.108 234.207 42.108C235.562 42.108 236.742 42.3977 237.748 42.9773C238.762 43.5568 239.546 44.3963 240.1 45.4957C240.663 46.5952 240.94 47.929 240.931 49.4972V62H236.303V50.2131C236.303 48.9006 235.962 47.8736 235.281 47.1321C234.607 46.3906 233.674 46.0199 232.481 46.0199C231.671 46.0199 230.951 46.1989 230.32 46.5568C229.698 46.9062 229.208 47.4134 228.85 48.0781C228.501 48.7429 228.326 49.5483 228.326 50.4943Z" fill="url(#paint2_linear_638_33)"/>
</g>
<defs>
<filter id="filter0_d_638_33" x="27.918" y="34.5527" width="217.025" height="35.8438" filterUnits="userSpaceOnUse" color-interpolation-filters="sRGB">
<feFlood flood-opacity="0" result="BackgroundImageFix"/>
<feColorMatrix in="SourceAlpha" type="matrix" values="0 0 0 0 0 0 0 0 0 0 0 0 0 0 0 0 0 0 127 0" result="hardAlpha"/>
<feOffset dy="4"/>
<feGaussianBlur stdDeviation="2"/>
<feComposite in2="hardAlpha" operator="out"/>
<feColorMatrix type="matrix" values="0 0 0 0 1 0 0 0 0 1 0 0 0 0 1 0 0 0 0.21 0"/>
<feBlend mode="normal" in2="BackgroundImageFix" result="effect1_dropShadow_638_33"/>
<feBlend mode="normal" in="SourceGraphic" in2="effect1_dropShadow_638_33" result="shape"/>
</filter>
<linearGradient id="paint0_linear_638_33" x1="140" y1="0" x2="140" y2="98" gradientUnits="userSpaceOnUse">
<stop stop-color="#D9D9D9"/>
<stop offset="1" stop-color="#737373"/>
</linearGradient>
<linearGradient id="paint1_linear_638_33" x1="96.5135" y1="-7.11291" x2="141.315" y2="97.4364" gradientUnits="userSpaceOnUse">
<stop stop-color="#93C5FF"/>
<stop offset="0.5" stop-color="#030D19"/>
<stop offset="0.75" stop-color="white"/>
<stop offset="1" stop-color="#0075FF"/>
</linearGradient>
<linearGradient id="paint2_linear_638_33" x1="232.274" y1="16.3333" x2="-2.54207" y2="75.6072" gradientUnits="userSpaceOnUse">
<stop stop-color="#7276AC"/>
<stop offset="0.482483" stop-color="#AAAFF3"/>
<stop offset="1" stop-color="#7276AC"/>
</linearGradient>
</defs>
</svg>
