<svg width="160" height="98" viewBox="0 0 160 98" fill="none" xmlns="http://www.w3.org/2000/svg">
<path d="M3.5 33C3.5 16.7076 16.7076 3.5 33 3.5H77.1474H127C143.292 3.5 156.5 16.7076 156.5 33V65C156.5 81.2924 143.292 94.5 127 94.5H33C16.7076 94.5 3.5 81.2924 3.5 65V33Z" fill="url(#paint0_linear_638_22)" fill-opacity="0.2" stroke="url(#paint1_linear_638_22)" stroke-width="7"/>
<g filter="url(#filter0_d_638_22)">
<path d="M41.4545 62H32.5824V35.8182H41.6335C44.233 35.8182 46.4659 36.3423 48.3324 37.3906C50.2074 38.4304 51.6477 39.9261 52.6534 41.8778C53.6591 43.8295 54.1619 46.1648 54.1619 48.8835C54.1619 51.6108 53.6548 53.9545 52.6406 55.9148C51.6349 57.875 50.1818 59.3793 48.2812 60.4276C46.3892 61.4759 44.1136 62 41.4545 62ZM37.3253 57.8963H41.2244C43.0483 57.8963 44.5696 57.5639 45.7884 56.8991C47.0071 56.2259 47.9233 55.2244 48.5369 53.8949C49.1506 52.5568 49.4574 50.8864 49.4574 48.8835C49.4574 46.8807 49.1506 45.2187 48.5369 43.8977C47.9233 42.5682 47.0156 41.5753 45.8139 40.919C44.6207 40.2543 43.1378 39.9219 41.3651 39.9219H37.3253V57.8963ZM60.6243 62H55.5618L64.7791 35.8182H70.6342L79.8643 62H74.8018L67.8089 41.1875H67.6044L60.6243 62ZM60.7905 51.7344H74.5973V55.544H60.7905V51.7344ZM105.477 48.9091C105.477 51.7301 104.949 54.1463 103.892 56.1577C102.844 58.1605 101.412 59.6946 99.5966 60.7599C97.7898 61.8253 95.7401 62.358 93.4474 62.358C91.1548 62.358 89.1009 61.8253 87.2855 60.7599C85.4787 59.6861 84.0469 58.1477 82.9901 56.1449C81.9418 54.1335 81.4176 51.7216 81.4176 48.9091C81.4176 46.0881 81.9418 43.6761 82.9901 41.6733C84.0469 39.6619 85.4787 38.1236 87.2855 37.0582C89.1009 35.9929 91.1548 35.4602 93.4474 35.4602C95.7401 35.4602 97.7898 35.9929 99.5966 37.0582C101.412 38.1236 102.844 39.6619 103.892 41.6733C104.949 43.6761 105.477 46.0881 105.477 48.9091ZM100.709 48.9091C100.709 46.9233 100.398 45.2486 99.7756 43.8849C99.1619 42.5128 98.3097 41.4773 97.2188 40.7784C96.1278 40.071 94.8707 39.7173 93.4474 39.7173C92.0241 39.7173 90.767 40.071 89.6761 40.7784C88.5852 41.4773 87.7287 42.5128 87.1065 43.8849C86.4929 45.2486 86.1861 46.9233 86.1861 48.9091C86.1861 50.8949 86.4929 52.5739 87.1065 53.946C87.7287 55.3097 88.5852 56.3452 89.6761 57.0526C90.767 57.7514 92.0241 58.1009 93.4474 58.1009C94.8707 58.1009 96.1278 57.7514 97.2188 57.0526C98.3097 56.3452 99.1619 55.3097 99.7756 53.946C100.398 52.5739 100.709 50.8949 100.709 48.9091ZM125.277 47.554L121.058 48.0142C120.939 47.5881 120.73 47.1875 120.431 46.8125C120.142 46.4375 119.75 46.1349 119.255 45.9048C118.761 45.6747 118.156 45.5597 117.44 45.5597C116.477 45.5597 115.667 45.7685 115.011 46.1861C114.363 46.6037 114.044 47.1449 114.052 47.8097C114.044 48.3807 114.252 48.8452 114.679 49.2031C115.113 49.5611 115.829 49.8551 116.826 50.0852L120.176 50.8011C122.034 51.2017 123.414 51.8366 124.318 52.706C125.23 53.5753 125.69 54.7131 125.699 56.1193C125.69 57.3551 125.328 58.446 124.612 59.392C123.904 60.3295 122.92 61.0625 121.659 61.5909C120.397 62.1193 118.949 62.3835 117.312 62.3835C114.909 62.3835 112.974 61.8807 111.508 60.875C110.042 59.8608 109.169 58.4503 108.887 56.6435L113.4 56.2088C113.605 57.0952 114.039 57.7642 114.704 58.2159C115.369 58.6676 116.234 58.8935 117.299 58.8935C118.399 58.8935 119.281 58.6676 119.946 58.2159C120.619 57.7642 120.956 57.206 120.956 56.5412C120.956 55.9787 120.738 55.5142 120.304 55.1477C119.877 54.7812 119.213 54.5 118.309 54.304L114.96 53.6009C113.076 53.2088 111.683 52.5483 110.779 51.6193C109.876 50.6818 109.429 49.4972 109.437 48.0653C109.429 46.8551 109.757 45.8068 110.422 44.9205C111.095 44.0256 112.028 43.3352 113.221 42.8494C114.423 42.3551 115.808 42.108 117.376 42.108C119.677 42.108 121.488 42.598 122.809 43.5781C124.139 44.5582 124.961 45.8835 125.277 47.554Z" fill="url(#paint2_linear_638_22)"/>
</g>
<defs>
<filter id="filter0_d_638_22" x="28.582" y="35.4609" width="101.117" height="34.9219" filterUnits="userSpaceOnUse" color-interpolation-filters="sRGB">
<feFlood flood-opacity="0" result="BackgroundImageFix"/>
<feColorMatrix in="SourceAlpha" type="matrix" values="0 0 0 0 0 0 0 0 0 0 0 0 0 0 0 0 0 0 127 0" result="hardAlpha"/>
<feOffset dy="4"/>
<feGaussianBlur stdDeviation="2"/>
<feComposite in2="hardAlpha" operator="out"/>
<feColorMatrix type="matrix" values="0 0 0 0 1 0 0 0 0 1 0 0 0 0 1 0 0 0 0.21 0"/>
<feBlend mode="normal" in2="BackgroundImageFix" result="effect1_dropShadow_638_22"/>
<feBlend mode="normal" in="SourceGraphic" in2="effect1_dropShadow_638_22" result="shape"/>
</filter>
<linearGradient id="paint0_linear_638_22" x1="80" y1="0" x2="80" y2="98" gradientUnits="userSpaceOnUse">
<stop stop-color="#D9D9D9"/>
<stop offset="1" stop-color="#737373"/>
</linearGradient>
<linearGradient id="paint1_linear_638_22" x1="55.1506" y1="-7.11291" x2="114.548" y2="72.0922" gradientUnits="userSpaceOnUse">
<stop stop-color="#93C5FF"/>
<stop offset="0.5" stop-color="#030D19"/>
<stop offset="0.75" stop-color="white"/>
<stop offset="1" stop-color="#0075FF"/>
</linearGradient>
<linearGradient id="paint2_linear_638_22" x1="122.63" y1="16.3333" x2="9.754" y2="29.3815" gradientUnits="userSpaceOnUse">
<stop stop-color="#7276AC"/>
<stop offset="0.482483" stop-color="#AAAFF3"/>
<stop offset="1" stop-color="#7276AC"/>
</linearGradient>
</defs>
</svg>
