<svg width="139" height="98" viewBox="0 0 139 98" fill="none" xmlns="http://www.w3.org/2000/svg">
<path d="M3.5 33C3.5 16.7076 16.7076 3.5 33 3.5H67.0218H106C122.292 3.5 135.5 16.7076 135.5 33V65C135.5 81.2924 122.292 94.5 106 94.5H33C16.7076 94.5 3.5 81.2924 3.5 65V33Z" fill="url(#paint0_linear_638_23)" fill-opacity="0.2" stroke="url(#paint1_linear_638_23)" stroke-width="7"/>
<g filter="url(#filter0_d_638_23)">
<path d="M41.4545 62H32.5824V35.8182H41.6335C44.233 35.8182 46.4659 36.3423 48.3324 37.3906C50.2074 38.4304 51.6477 39.9261 52.6534 41.8778C53.6591 43.8295 54.1619 46.1648 54.1619 48.8835C54.1619 51.6108 53.6548 53.9545 52.6406 55.9148C51.6349 57.875 50.1818 59.3793 48.2812 60.4276C46.3892 61.4759 44.1136 62 41.4545 62ZM37.3253 57.8963H41.2244C43.0483 57.8963 44.5696 57.5639 45.7884 56.8991C47.0071 56.2259 47.9233 55.2244 48.5369 53.8949C49.1506 52.5568 49.4574 50.8864 49.4574 48.8835C49.4574 46.8807 49.1506 45.2187 48.5369 43.8977C47.9233 42.5682 47.0156 41.5753 45.8139 40.919C44.6207 40.2543 43.1378 39.9219 41.3651 39.9219H37.3253V57.8963ZM67.157 62.3835C65.1882 62.3835 63.4879 61.9744 62.0561 61.1562C60.6328 60.3295 59.5376 59.1619 58.7706 57.6534C58.0036 56.1364 57.62 54.3509 57.62 52.2969C57.62 50.277 58.0036 48.5043 58.7706 46.9787C59.5462 45.4446 60.6286 44.2514 62.0178 43.3991C63.407 42.5384 65.0391 42.108 66.9141 42.108C68.1243 42.108 69.2663 42.304 70.3402 42.696C71.4226 43.0795 72.3771 43.6761 73.2038 44.4858C74.0391 45.2955 74.6953 46.3267 75.1726 47.5795C75.6499 48.8239 75.8885 50.3068 75.8885 52.0284V53.4474H59.7933V50.3281H71.4524C71.4439 49.4418 71.2521 48.6534 70.8771 47.9631C70.5021 47.2642 69.978 46.7145 69.3047 46.3139C68.6399 45.9134 67.8643 45.7131 66.978 45.7131C66.032 45.7131 65.201 45.9432 64.4851 46.4034C63.7692 46.8551 63.2109 47.4517 62.8104 48.1932C62.4183 48.9261 62.218 49.7315 62.2095 50.6094V53.3324C62.2095 54.4744 62.4183 55.4545 62.8359 56.2727C63.2536 57.0824 63.8374 57.7045 64.5874 58.1392C65.3374 58.5653 66.2152 58.7784 67.2209 58.7784C67.8942 58.7784 68.5036 58.6847 69.049 58.4972C69.5945 58.3011 70.0675 58.0156 70.468 57.6406C70.8686 57.2656 71.1712 56.8011 71.3757 56.2472L75.6967 56.733C75.424 57.875 74.9041 58.8722 74.1371 59.7244C73.3786 60.5682 72.407 61.2244 71.2223 61.6932C70.0376 62.1534 68.6825 62.3835 67.157 62.3835ZM80.0082 62V35.8182H96.7809V39.794H84.7511V46.902H95.6303V50.8778H84.7511V62H80.0082ZM100.897 62V42.3636H105.525V62H100.897ZM103.224 39.5767C102.491 39.5767 101.86 39.3338 101.332 38.848C100.804 38.3537 100.539 37.7614 100.539 37.071C100.539 36.3722 100.804 35.7798 101.332 35.294C101.86 34.7997 102.491 34.5526 103.224 34.5526C103.966 34.5526 104.596 34.7997 105.116 35.294C105.645 35.7798 105.909 36.3722 105.909 37.071C105.909 37.7614 105.645 38.3537 105.116 38.848C104.596 39.3338 103.966 39.5767 103.224 39.5767Z" fill="url(#paint2_linear_638_23)"/>
</g>
<defs>
<filter id="filter0_d_638_23" x="28.582" y="34.5527" width="81.3262" height="35.8301" filterUnits="userSpaceOnUse" color-interpolation-filters="sRGB">
<feFlood flood-opacity="0" result="BackgroundImageFix"/>
<feColorMatrix in="SourceAlpha" type="matrix" values="0 0 0 0 0 0 0 0 0 0 0 0 0 0 0 0 0 0 127 0" result="hardAlpha"/>
<feOffset dy="4"/>
<feGaussianBlur stdDeviation="2"/>
<feComposite in2="hardAlpha" operator="out"/>
<feColorMatrix type="matrix" values="0 0 0 0 1 0 0 0 0 1 0 0 0 0 1 0 0 0 0.21 0"/>
<feBlend mode="normal" in2="BackgroundImageFix" result="effect1_dropShadow_638_23"/>
<feBlend mode="normal" in="SourceGraphic" in2="effect1_dropShadow_638_23" result="shape"/>
</filter>
<linearGradient id="paint0_linear_638_23" x1="69.5" y1="0" x2="69.5" y2="98" gradientUnits="userSpaceOnUse">
<stop stop-color="#D9D9D9"/>
<stop offset="1" stop-color="#737373"/>
</linearGradient>
<linearGradient id="paint1_linear_638_23" x1="47.912" y1="-7.11291" x2="109.123" y2="63.7973" gradientUnits="userSpaceOnUse">
<stop stop-color="#93C5FF"/>
<stop offset="0.5" stop-color="#030D19"/>
<stop offset="0.75" stop-color="white"/>
<stop offset="1" stop-color="#0075FF"/>
</linearGradient>
<linearGradient id="paint2_linear_638_23" x1="103.726" y1="16.3333" x2="13.4495" y2="24.6393" gradientUnits="userSpaceOnUse">
<stop stop-color="#7276AC"/>
<stop offset="0.482483" stop-color="#AAAFF3"/>
<stop offset="1" stop-color="#7276AC"/>
</linearGradient>
</defs>
</svg>
