<svg width="312" height="98" viewBox="0 0 312 98" fill="none" xmlns="http://www.w3.org/2000/svg">
<path d="M3.5 33C3.5 16.7076 16.7076 3.5 33 3.5H150.437H279C295.292 3.5 308.5 16.7076 308.5 33V65C308.5 81.2924 295.292 94.5 279 94.5H33C16.7076 94.5 3.5 81.2924 3.5 65V33Z" fill="url(#paint0_linear_638_35)" fill-opacity="0.2" stroke="url(#paint1_linear_638_35)" stroke-width="7"/>
<g filter="url(#filter0_d_638_35)">
<path d="M41.4545 62H32.5824V35.8182H41.6335C44.233 35.8182 46.4659 36.3423 48.3324 37.3906C50.2074 38.4304 51.6477 39.9261 52.6534 41.8778C53.6591 43.8295 54.1619 46.1648 54.1619 48.8835C54.1619 51.6108 53.6548 53.9545 52.6406 55.9148C51.6349 57.875 50.1818 59.3793 48.2812 60.4276C46.3892 61.4759 44.1136 62 41.4545 62ZM37.3253 57.8963H41.2244C43.0483 57.8963 44.5696 57.5639 45.7884 56.8991C47.0071 56.2259 47.9233 55.2244 48.5369 53.8949C49.1506 52.5568 49.4574 50.8864 49.4574 48.8835C49.4574 46.8807 49.1506 45.2187 48.5369 43.8977C47.9233 42.5682 47.0156 41.5753 45.8139 40.919C44.6207 40.2543 43.1378 39.9219 41.3651 39.9219H37.3253V57.8963ZM58.4638 62V42.3636H63.0916V62H58.4638ZM60.7905 39.5767C60.0575 39.5767 59.4268 39.3338 58.8984 38.848C58.37 38.3537 58.1058 37.7614 58.1058 37.071C58.1058 36.3722 58.37 35.7798 58.8984 35.294C59.4268 34.7997 60.0575 34.5526 60.7905 34.5526C61.532 34.5526 62.1626 34.7997 62.6825 35.294C63.2109 35.7798 63.4751 36.3722 63.4751 37.071C63.4751 37.7614 63.2109 38.3537 62.6825 38.848C62.1626 39.3338 61.532 39.5767 60.7905 39.5767ZM76.3903 69.7727C74.7283 69.7727 73.3008 69.5469 72.1076 69.0952C70.9144 68.652 69.9556 68.0554 69.2312 67.3054C68.5067 66.5554 68.0039 65.7244 67.7227 64.8125L71.8903 63.8026C72.0778 64.1861 72.3505 64.5653 72.7085 64.9403C73.0664 65.3239 73.5479 65.6392 74.1531 65.8864C74.7667 66.142 75.538 66.2699 76.467 66.2699C77.7795 66.2699 78.8661 65.9503 79.7269 65.3111C80.5877 64.6804 81.0181 63.6406 81.0181 62.1918V58.4716H80.788C80.5494 58.9489 80.1999 59.4389 79.7397 59.9418C79.288 60.4446 78.6871 60.8665 77.9371 61.2074C77.1957 61.5483 76.2624 61.7188 75.1374 61.7188C73.6289 61.7188 72.261 61.3651 71.0337 60.6577C69.815 59.9418 68.8434 58.8764 68.119 57.4616C67.4031 56.0384 67.0451 54.2571 67.0451 52.1179C67.0451 49.9616 67.4031 48.142 68.119 46.6591C68.8434 45.1676 69.8192 44.0384 71.0465 43.2713C72.2738 42.4957 73.6417 42.108 75.1502 42.108C76.3008 42.108 77.2468 42.304 77.9883 42.696C78.7383 43.0795 79.3349 43.544 79.7781 44.0895C80.2212 44.6264 80.5579 45.1335 80.788 45.6108H81.0437V42.3636H85.6076V62.3196C85.6076 63.9986 85.207 65.3878 84.4059 66.4872C83.6048 67.5866 82.5096 68.4091 81.1204 68.9545C79.7312 69.5 78.1545 69.7727 76.3903 69.7727ZM76.4286 58.0881C77.4087 58.0881 78.244 57.8494 78.9343 57.3722C79.6246 56.8949 80.1488 56.2088 80.5067 55.3139C80.8647 54.419 81.0437 53.3452 81.0437 52.0923C81.0437 50.8565 80.8647 49.7741 80.5067 48.8452C80.1573 47.9162 79.6374 47.196 78.9471 46.6847C78.2653 46.1648 77.4258 45.9048 76.4286 45.9048C75.3974 45.9048 74.5366 46.1733 73.8462 46.7102C73.1559 47.2472 72.636 47.9844 72.2866 48.9219C71.9371 49.8509 71.7624 50.9077 71.7624 52.0923C71.7624 53.294 71.9371 54.3466 72.2866 55.25C72.6445 56.1449 73.1687 56.8437 73.859 57.3466C74.5579 57.8409 75.4144 58.0881 76.4286 58.0881ZM90.3505 62V42.3636H94.9783V62H90.3505ZM92.6772 39.5767C91.9442 39.5767 91.3136 39.3338 90.7852 38.848C90.2567 38.3537 89.9925 37.7614 89.9925 37.071C89.9925 36.3722 90.2567 35.7798 90.7852 35.294C91.3136 34.7997 91.9442 34.5526 92.6772 34.5526C93.4187 34.5526 94.0494 34.7997 94.5692 35.294C95.0977 35.7798 95.3619 36.3722 95.3619 37.071C95.3619 37.7614 95.0977 38.3537 94.5692 38.848C94.0494 39.3338 93.4187 39.5767 92.6772 39.5767ZM109.543 42.3636V45.9432H98.2543V42.3636H109.543ZM101.041 37.6591H105.669V56.0938C105.669 56.7159 105.763 57.1932 105.95 57.5256C106.146 57.8494 106.402 58.071 106.717 58.1903C107.033 58.3097 107.382 58.3693 107.766 58.3693C108.055 58.3693 108.32 58.348 108.558 58.3054C108.805 58.2628 108.993 58.2244 109.121 58.1903L109.901 61.8082C109.653 61.8935 109.3 61.9872 108.839 62.0895C108.388 62.1918 107.834 62.2514 107.178 62.2685C106.018 62.3026 104.974 62.1278 104.045 61.7443C103.116 61.3523 102.379 60.7472 101.834 59.929C101.297 59.1108 101.033 58.0881 101.041 56.8608V37.6591ZM119.064 62.3963C117.819 62.3963 116.699 62.1747 115.701 61.7315C114.713 61.2798 113.929 60.6151 113.349 59.7372C112.778 58.8594 112.493 57.777 112.493 56.4901C112.493 55.3821 112.697 54.4659 113.106 53.7415C113.515 53.017 114.074 52.4375 114.781 52.0028C115.488 51.5682 116.285 51.2401 117.172 51.0185C118.066 50.7884 118.991 50.6222 119.946 50.5199C121.096 50.4006 122.029 50.294 122.745 50.2003C123.461 50.098 123.981 49.9446 124.305 49.7401C124.637 49.527 124.804 49.1989 124.804 48.7557V48.679C124.804 47.7159 124.518 46.9702 123.947 46.4418C123.376 45.9134 122.554 45.6491 121.48 45.6491C120.346 45.6491 119.447 45.8963 118.782 46.3906C118.126 46.8849 117.683 47.4687 117.453 48.142L113.132 47.5284C113.473 46.3352 114.035 45.3381 114.819 44.5369C115.603 43.7273 116.562 43.1222 117.696 42.7216C118.829 42.3125 120.082 42.108 121.454 42.108C122.4 42.108 123.342 42.2188 124.279 42.4403C125.217 42.6619 126.074 43.0284 126.849 43.5398C127.625 44.0426 128.247 44.7287 128.716 45.598C129.193 46.4673 129.431 47.554 129.431 48.858V62H124.983V59.3026H124.829C124.548 59.848 124.152 60.3594 123.64 60.8366C123.137 61.3054 122.502 61.6847 121.735 61.9744C120.977 62.2557 120.086 62.3963 119.064 62.3963ZM120.265 58.9957C121.194 58.9957 122 58.8125 122.681 58.446C123.363 58.071 123.887 57.5767 124.254 56.9631C124.629 56.3494 124.816 55.6804 124.816 54.956V52.642C124.672 52.7614 124.424 52.8722 124.075 52.9744C123.734 53.0767 123.35 53.1662 122.924 53.2429C122.498 53.3196 122.076 53.3878 121.659 53.4474C121.241 53.5071 120.879 53.5582 120.572 53.6009C119.882 53.6946 119.264 53.848 118.718 54.0611C118.173 54.2741 117.743 54.5724 117.427 54.956C117.112 55.331 116.954 55.8168 116.954 56.4134C116.954 57.2656 117.265 57.9091 117.887 58.3438C118.51 58.7784 119.302 58.9957 120.265 58.9957ZM138.713 35.8182V62H134.085V35.8182H138.713ZM158.116 62L150.727 35.8182H155.827L160.545 55.0582H160.788L165.825 35.8182H170.465L175.515 55.071H175.745L180.462 35.8182H185.563L178.174 62H173.495L168.254 43.6293H168.049L162.795 62H158.116ZM192.294 62.3963C191.05 62.3963 189.929 62.1747 188.932 61.7315C187.943 61.2798 187.159 60.6151 186.58 59.7372C186.009 58.8594 185.723 57.777 185.723 56.4901C185.723 55.3821 185.928 54.4659 186.337 53.7415C186.746 53.017 187.304 52.4375 188.011 52.0028C188.719 51.5682 189.516 51.2401 190.402 51.0185C191.297 50.7884 192.222 50.6222 193.176 50.5199C194.327 50.4006 195.26 50.294 195.976 50.2003C196.692 50.098 197.212 49.9446 197.536 49.7401C197.868 49.527 198.034 49.1989 198.034 48.7557V48.679C198.034 47.7159 197.749 46.9702 197.178 46.4418C196.607 45.9134 195.784 45.6491 194.71 45.6491C193.577 45.6491 192.678 45.8963 192.013 46.3906C191.357 46.8849 190.913 47.4687 190.683 48.142L186.362 47.5284C186.703 46.3352 187.266 45.3381 188.05 44.5369C188.834 43.7273 189.793 43.1222 190.926 42.7216C192.06 42.3125 193.313 42.108 194.685 42.108C195.631 42.108 196.572 42.2188 197.51 42.4403C198.447 42.6619 199.304 43.0284 200.08 43.5398C200.855 44.0426 201.477 44.7287 201.946 45.598C202.423 46.4673 202.662 47.554 202.662 48.858V62H198.213V59.3026H198.06C197.778 59.848 197.382 60.3594 196.871 60.8366C196.368 61.3054 195.733 61.6847 194.966 61.9744C194.207 62.2557 193.317 62.3963 192.294 62.3963ZM193.496 58.9957C194.425 58.9957 195.23 58.8125 195.912 58.446C196.594 58.071 197.118 57.5767 197.484 56.9631C197.859 56.3494 198.047 55.6804 198.047 54.956V52.642C197.902 52.7614 197.655 52.8722 197.305 52.9744C196.964 53.0767 196.581 53.1662 196.155 53.2429C195.729 53.3196 195.307 53.3878 194.889 53.4474C194.472 53.5071 194.109 53.5582 193.803 53.6009C193.112 53.6946 192.494 53.848 191.949 54.0611C191.403 54.2741 190.973 54.5724 190.658 54.956C190.342 55.331 190.185 55.8168 190.185 56.4134C190.185 57.2656 190.496 57.9091 191.118 58.3438C191.74 58.7784 192.533 58.9957 193.496 58.9957ZM211.943 35.8182V62H207.315V35.8182H211.943ZM221.33 35.8182V62H216.702V35.8182H221.33ZM234.782 62.3835C232.813 62.3835 231.113 61.9744 229.681 61.1562C228.258 60.3295 227.163 59.1619 226.396 57.6534C225.629 56.1364 225.245 54.3509 225.245 52.2969C225.245 50.277 225.629 48.5043 226.396 46.9787C227.171 45.4446 228.254 44.2514 229.643 43.3991C231.032 42.5384 232.664 42.108 234.539 42.108C235.749 42.108 236.891 42.304 237.965 42.696C239.048 43.0795 240.002 43.6761 240.829 44.4858C241.664 45.2955 242.32 46.3267 242.798 47.5795C243.275 48.8239 243.513 50.3068 243.513 52.0284V53.4474H227.418V50.3281H239.077C239.069 49.4418 238.877 48.6534 238.502 47.9631C238.127 47.2642 237.603 46.7145 236.93 46.3139C236.265 45.9134 235.489 45.7131 234.603 45.7131C233.657 45.7131 232.826 45.9432 232.11 46.4034C231.394 46.8551 230.836 47.4517 230.435 48.1932C230.043 48.9261 229.843 49.7315 229.835 50.6094V53.3324C229.835 54.4744 230.043 55.4545 230.461 56.2727C230.879 57.0824 231.462 57.7045 232.212 58.1392C232.962 58.5653 233.84 58.7784 234.846 58.7784C235.519 58.7784 236.129 58.6847 236.674 58.4972C237.219 58.3011 237.692 58.0156 238.093 57.6406C238.494 57.2656 238.796 56.8011 239.001 56.2472L243.322 56.733C243.049 57.875 242.529 58.8722 241.762 59.7244C241.004 60.5682 240.032 61.2244 238.847 61.6932C237.663 62.1534 236.308 62.3835 234.782 62.3835ZM257.234 42.3636V45.9432H245.946V42.3636H257.234ZM248.733 37.6591H253.36V56.0938C253.36 56.7159 253.454 57.1932 253.642 57.5256C253.838 57.8494 254.093 58.071 254.409 58.1903C254.724 58.3097 255.074 58.3693 255.457 58.3693C255.747 58.3693 256.011 58.348 256.25 58.3054C256.497 58.2628 256.684 58.2244 256.812 58.1903L257.592 61.8082C257.345 61.8935 256.991 61.9872 256.531 62.0895C256.079 62.1918 255.525 62.2514 254.869 62.2685C253.71 62.3026 252.666 62.1278 251.737 61.7443C250.808 61.3523 250.071 60.7472 249.525 59.929C248.988 59.1108 248.724 58.0881 248.733 56.8608V37.6591ZM276.343 47.554L272.124 48.0142C272.005 47.5881 271.796 47.1875 271.498 46.8125C271.208 46.4375 270.816 46.1349 270.322 45.9048C269.827 45.6747 269.222 45.5597 268.506 45.5597C267.543 45.5597 266.734 45.7685 266.077 46.1861C265.43 46.6037 265.11 47.1449 265.119 47.8097C265.11 48.3807 265.319 48.8452 265.745 49.2031C266.18 49.5611 266.896 49.8551 267.893 50.0852L271.242 50.8011C273.1 51.2017 274.481 51.8366 275.384 52.706C276.296 53.5753 276.756 54.7131 276.765 56.1193C276.756 57.3551 276.394 58.446 275.678 59.392C274.971 60.3295 273.987 61.0625 272.725 61.5909C271.464 62.1193 270.015 62.3835 268.379 62.3835C265.975 62.3835 264.04 61.8807 262.575 60.875C261.109 59.8608 260.235 58.4503 259.954 56.6435L264.467 56.2088C264.671 57.0952 265.106 57.7642 265.771 58.2159C266.435 58.6676 267.3 58.8935 268.366 58.8935C269.465 58.8935 270.347 58.6676 271.012 58.2159C271.685 57.7642 272.022 57.206 272.022 56.5412C272.022 55.9787 271.805 55.5142 271.37 55.1477C270.944 54.7812 270.279 54.5 269.376 54.304L266.026 53.6009C264.143 53.2088 262.749 52.5483 261.846 51.6193C260.942 50.6818 260.495 49.4972 260.504 48.0653C260.495 46.8551 260.823 45.8068 261.488 44.9205C262.161 44.0256 263.094 43.3352 264.288 42.8494C265.489 42.3551 266.874 42.108 268.442 42.108C270.744 42.108 272.555 42.598 273.876 43.5781C275.205 44.5582 276.028 45.8835 276.343 47.554Z" fill="url(#paint2_linear_638_35)"/>
</g>
<defs>
<filter id="filter0_d_638_35" x="28.582" y="34.5527" width="252.184" height="43.2207" filterUnits="userSpaceOnUse" color-interpolation-filters="sRGB">
<feFlood flood-opacity="0" result="BackgroundImageFix"/>
<feColorMatrix in="SourceAlpha" type="matrix" values="0 0 0 0 0 0 0 0 0 0 0 0 0 0 0 0 0 0 127 0" result="hardAlpha"/>
<feOffset dy="4"/>
<feGaussianBlur stdDeviation="2"/>
<feComposite in2="hardAlpha" operator="out"/>
<feColorMatrix type="matrix" values="0 0 0 0 1 0 0 0 0 1 0 0 0 0 1 0 0 0 0.21 0"/>
<feBlend mode="normal" in2="BackgroundImageFix" result="effect1_dropShadow_638_35"/>
<feBlend mode="normal" in="SourceGraphic" in2="effect1_dropShadow_638_35" result="shape"/>
</filter>
<linearGradient id="paint0_linear_638_35" x1="156" y1="0" x2="156" y2="98" gradientUnits="userSpaceOnUse">
<stop stop-color="#D9D9D9"/>
<stop offset="1" stop-color="#737373"/>
</linearGradient>
<linearGradient id="paint1_linear_638_35" x1="107.544" y1="-7.11291" x2="149.002" y2="100.691" gradientUnits="userSpaceOnUse">
<stop stop-color="#93C5FF"/>
<stop offset="0.5" stop-color="#030D19"/>
<stop offset="0.75" stop-color="white"/>
<stop offset="1" stop-color="#0075FF"/>
</linearGradient>
<linearGradient id="paint2_linear_638_35" x1="265.356" y1="16.3333" x2="-2.19325" y2="94.9157" gradientUnits="userSpaceOnUse">
<stop stop-color="#7276AC"/>
<stop offset="0.482483" stop-color="#AAAFF3"/>
<stop offset="1" stop-color="#7276AC"/>
</linearGradient>
</defs>
</svg>
