<svg width="239" height="60" viewBox="0 0 239 60" fill="none" xmlns="http://www.w3.org/2000/svg">
<path d="M18.3508 22.1315V0L0 30.4668L18.3508 22.1315Z" fill="#8891B1"/>
<path d="M18.3508 41.3225V22.1315L0 30.4668L18.3508 41.3225ZM18.3508 22.1315L36.7237 30.4668L18.3508 0V22.1315Z" fill="#63688E"/>
<path d="M18.3516 22.1309V41.3218L36.7245 30.4661L18.3516 22.1309Z" fill="#464A75"/>
<path d="M18.3508 44.7945L0 33.9609L18.3508 59.8289V44.7945Z" fill="#8891B1"/>
<path d="M36.7245 33.9609L18.3516 44.7945V59.8289L36.7245 33.9609Z" fill="#63688E"/>
<path d="M67.4103 34.5791C67.4103 34.9992 67.0345 35.375 66.6144 35.375H51.9338C52.3096 38.8683 55.0291 42.2732 58.8761 42.2732C61.5071 42.2732 63.4528 41.2561 64.9341 39.1336C65.0888 38.9125 65.3099 38.7578 65.5753 38.7578C65.9953 38.7578 66.3049 39.0673 66.3049 39.4874C66.3049 39.6421 66.2606 39.7527 66.1943 39.8632C64.713 42.45 61.7724 43.7103 58.8761 43.7103C53.9236 43.7103 50.4082 39.2884 50.4082 34.557C50.4082 29.8256 53.9236 25.4258 58.8761 25.4258C63.8286 25.4258 67.4103 29.8477 67.4103 34.5791ZM65.8185 33.8716C65.5089 30.1351 62.7231 26.9292 58.8761 26.9292C55.0291 26.9292 52.2875 30.1351 51.9338 33.8716H65.8185ZM85.2526 25.669C85.6727 25.669 85.9822 26.0449 85.9822 26.4207C85.9822 26.8408 85.6727 27.1724 85.2526 27.1724H81.3171V42.6932C81.3171 43.0691 80.9855 43.4228 80.5654 43.4228C80.1453 43.4228 79.8137 43.047 79.8137 42.6932V27.1724H76.033C75.6129 27.1724 75.3034 26.8408 75.3034 26.4207C75.3034 26.0449 75.6129 25.669 76.033 25.669H79.8137V20.0532C79.8137 19.6331 80.1453 19.3236 80.5654 19.3236C80.9855 19.3236 81.3171 19.6331 81.3171 20.0532V25.669H85.2526ZM109.175 33.2083V42.5827C109.175 43.0028 108.932 43.3123 108.556 43.3123C108.136 43.3123 107.937 43.0028 107.937 42.5827V33.2083C107.937 30.0467 106.102 26.885 102.564 26.885C98.0319 26.885 96.0199 30.8426 96.2631 34.8886C96.2631 34.9992 96.241 35.4635 96.241 35.5298V42.5827C96.241 43.0028 96.042 43.3123 95.6219 43.3123C95.2018 43.3123 95.0029 43.0028 95.0029 42.5827V11.7843C95.0029 11.4084 95.2018 11.0547 95.6219 11.0547C96.042 11.0547 96.241 11.4305 96.241 11.7843V29.2065C97.7444 26.9513 99.7564 25.4258 102.387 25.4258C106.699 25.4258 109.175 29.2065 109.175 33.2083ZM135.662 34.5791C135.662 34.9992 135.286 35.375 134.866 35.375H120.185C120.561 38.8683 123.281 42.2732 127.128 42.2732C129.759 42.2732 131.704 41.2561 133.186 39.1336C133.341 38.9125 133.562 38.7578 133.827 38.7578C134.247 38.7578 134.557 39.0673 134.557 39.4874C134.557 39.6421 134.512 39.7527 134.446 39.8632C132.965 42.45 130.024 43.7103 127.128 43.7103C122.175 43.7103 118.66 39.2884 118.66 34.557C118.66 29.8256 122.175 25.4258 127.128 25.4258C132.08 25.4258 135.662 29.8477 135.662 34.5791ZM134.092 33.8716C133.783 30.1351 130.997 26.9292 127.15 26.9292C123.303 26.9292 120.561 30.1351 120.208 33.8716H134.092ZM153.725 26.4207C153.725 26.885 153.46 27.1503 153.018 27.2167C148.707 27.8578 146.739 31.3732 146.739 35.4856V42.5164C146.739 42.9364 146.407 43.246 145.987 43.246C145.567 43.246 145.235 42.9364 145.235 42.5164V26.4649C145.235 26.0449 145.567 25.7353 145.987 25.7353C146.407 25.7353 146.739 26.0449 146.739 26.4649V29.7371C147.977 27.681 150.387 25.7353 152.907 25.7353C153.283 25.7353 153.725 26.0006 153.725 26.4207ZM177.869 34.5791C177.869 34.9992 177.493 35.375 177.073 35.375H162.392C162.768 38.8683 165.488 42.2732 169.335 42.2732C171.966 42.2732 173.911 41.2561 175.393 39.1336C175.547 38.9125 175.769 38.7578 176.034 38.7578C176.454 38.7578 176.763 39.0673 176.763 39.4874C176.763 39.6421 176.719 39.7527 176.653 39.8632C175.172 42.45 172.231 43.7103 169.335 43.7103C164.382 43.7103 160.867 39.2884 160.867 34.557C160.867 29.8256 164.382 25.4258 169.335 25.4258C174.287 25.4037 177.869 29.8477 177.869 34.5791ZM176.299 33.8716C175.99 30.1351 173.204 26.9292 169.357 26.9292C165.51 26.9292 162.768 30.1351 162.414 33.8716H176.299ZM201.725 26.5755V42.6711C201.725 43.0912 201.349 43.4007 200.973 43.4007C200.553 43.4007 200.221 43.0912 200.221 42.6711V39.6421C198.983 42.0521 196.839 43.7987 194.097 43.7987C189.72 43.7987 187.287 40.018 187.287 36.0162V26.5976C187.287 26.2217 187.619 25.868 188.039 25.868C188.459 25.868 188.791 26.2438 188.791 26.5976V36.0162C188.791 39.1778 190.582 42.3395 194.119 42.3395C199.072 42.3395 200.244 37.7186 200.244 32.6114V26.6197C200.244 26.2438 200.575 25.8901 200.995 25.8901C201.349 25.8459 201.725 26.2217 201.725 26.5755ZM238.78 33.1641V42.5827C238.78 43.0028 238.404 43.3123 238.029 43.3123C237.608 43.3123 237.277 43.0028 237.277 42.5827V33.1641C237.277 30.0024 235.486 26.9071 231.948 26.9071C227.527 26.9071 225.824 31.6385 225.824 35.3308V42.5827C225.824 43.0028 225.448 43.3123 225.072 43.3123C224.652 43.3123 224.321 43.0028 224.321 42.5827V33.1641C224.321 30.0024 222.574 26.9071 219.059 26.9071C214.593 26.9071 212.735 30.4225 212.89 35.1097V42.5827C212.89 43.0028 212.559 43.3123 212.138 43.3123C211.718 43.3123 211.387 43.0028 211.387 42.5827V26.487C211.387 26.067 211.718 25.7574 212.138 25.7574C212.559 25.7574 212.89 26.067 212.89 26.487V29.1623C214.128 26.9071 216.45 25.4258 219.081 25.4258C222.088 25.4258 224.409 27.3272 225.36 30.113C226.576 27.3714 228.942 25.4258 231.993 25.4258C236.326 25.4258 238.78 29.1623 238.78 33.1641Z" fill="white"/>
</svg>
