<svg width="193" height="98" viewBox="0 0 193 98" fill="none" xmlns="http://www.w3.org/2000/svg">
<path d="M3.5 33C3.5 16.7076 16.7076 3.5 33 3.5H93.059H160C176.292 3.5 189.5 16.7076 189.5 33V65C189.5 81.2924 176.292 94.5 160 94.5H33C16.7076 94.5 3.5 81.2924 3.5 65V33Z" fill="url(#paint0_linear_638_32)" fill-opacity="0.2" stroke="url(#paint1_linear_638_32)" stroke-width="7"/>
<g filter="url(#filter0_d_638_32)">
<path d="M50.1222 44.179C49.9091 43.4886 49.6151 42.8707 49.2401 42.3253C48.8736 41.7713 48.4304 41.2983 47.9105 40.9062C47.3991 40.5142 46.8111 40.2202 46.1463 40.0241C45.4815 39.8196 44.7571 39.7173 43.973 39.7173C42.5668 39.7173 41.3139 40.071 40.2145 40.7784C39.1151 41.4858 38.25 42.5256 37.6193 43.8977C36.9972 45.2614 36.6861 46.9233 36.6861 48.8835C36.6861 50.8608 36.9972 52.5355 37.6193 53.9077C38.2415 55.2798 39.1065 56.3239 40.2145 57.0398C41.3224 57.7472 42.6094 58.1009 44.0753 58.1009C45.4048 58.1009 46.5554 57.8452 47.527 57.3338C48.5071 56.8224 49.2614 56.098 49.7898 55.1605C50.3182 54.2145 50.5824 53.1065 50.5824 51.8366L51.6562 52.0028H44.5483V48.2955H55.1719V51.4403C55.1719 53.6818 54.6946 55.6207 53.7401 57.2571C52.7855 58.8935 51.473 60.1548 49.8026 61.0412C48.1321 61.919 46.2145 62.358 44.0497 62.358C41.6378 62.358 39.5199 61.8168 37.696 60.7344C35.8807 59.6435 34.4616 58.0966 33.4389 56.0938C32.4247 54.0824 31.9176 51.696 31.9176 48.9347C31.9176 46.821 32.2159 44.9332 32.8125 43.2713C33.4176 41.6094 34.2614 40.1989 35.3438 39.0398C36.4261 37.8722 37.696 36.9858 39.1534 36.3807C40.6108 35.767 42.196 35.4602 43.9091 35.4602C45.358 35.4602 46.7088 35.6733 47.9616 36.0994C49.2145 36.517 50.3267 37.1136 51.2983 37.8892C52.2784 38.6648 53.0838 39.5852 53.7145 40.6506C54.3452 41.7159 54.7585 42.892 54.9545 44.179H50.1222ZM65.2042 62.3963C63.9599 62.3963 62.8391 62.1747 61.842 61.7315C60.8533 61.2798 60.0692 60.6151 59.4897 59.7372C58.9187 58.8594 58.6332 57.777 58.6332 56.4901C58.6332 55.3821 58.8377 54.4659 59.2468 53.7415C59.6559 53.017 60.2141 52.4375 60.9215 52.0028C61.6289 51.5682 62.4258 51.2401 63.3121 51.0185C64.207 50.7884 65.1317 50.6222 66.0863 50.5199C67.2369 50.4006 68.1701 50.294 68.886 50.2003C69.6019 50.098 70.1218 49.9446 70.4457 49.7401C70.7781 49.527 70.9442 49.1989 70.9442 48.7557V48.679C70.9442 47.7159 70.6587 46.9702 70.0877 46.4418C69.5167 45.9134 68.6942 45.6491 67.6204 45.6491C66.4869 45.6491 65.5877 45.8963 64.9229 46.3906C64.2667 46.8849 63.8235 47.4687 63.5934 48.142L59.2724 47.5284C59.6133 46.3352 60.1758 45.3381 60.9599 44.5369C61.744 43.7273 62.7028 43.1222 63.8363 42.7216C64.9698 42.3125 66.2227 42.108 67.5948 42.108C68.5408 42.108 69.4826 42.2188 70.4201 42.4403C71.3576 42.6619 72.2141 43.0284 72.9897 43.5398C73.7653 44.0426 74.3874 44.7287 74.8562 45.598C75.3335 46.4673 75.5721 47.554 75.5721 48.858V62H71.1232V59.3026H70.9698C70.6886 59.848 70.2923 60.3594 69.7809 60.8366C69.2781 61.3054 68.6431 61.6847 67.8761 61.9744C67.1175 62.2557 66.2269 62.3963 65.2042 62.3963ZM66.4059 58.9957C67.3349 58.9957 68.1403 58.8125 68.8221 58.446C69.5039 58.071 70.0281 57.5767 70.3945 56.9631C70.7695 56.3494 70.957 55.6804 70.957 54.956V52.642C70.8121 52.7614 70.565 52.8722 70.2156 52.9744C69.8746 53.0767 69.4911 53.1662 69.065 53.2429C68.6388 53.3196 68.217 53.3878 67.7994 53.4474C67.3817 53.5071 67.0195 53.5582 66.7127 53.6009C66.0224 53.6946 65.4045 53.848 64.859 54.0611C64.3136 54.2741 63.8832 54.5724 63.5678 54.956C63.2525 55.331 63.0948 55.8168 63.0948 56.4134C63.0948 57.2656 63.4059 57.9091 64.0281 58.3438C64.6502 58.7784 65.4428 58.9957 66.4059 58.9957ZM80.2255 62V42.3636H84.6488V45.7003H84.8789C85.288 44.5753 85.9656 43.6974 86.9116 43.0668C87.8576 42.4276 88.9869 42.108 90.2994 42.108C91.6289 42.108 92.7496 42.4318 93.6616 43.0795C94.582 43.7187 95.2298 44.5923 95.6048 45.7003H95.8093C96.244 44.6094 96.9769 43.7401 98.0082 43.0923C99.0479 42.4361 100.279 42.108 101.703 42.108C103.51 42.108 104.984 42.679 106.126 43.821C107.268 44.9631 107.839 46.6293 107.839 48.8196V62H103.199V49.5355C103.199 48.3168 102.875 47.4261 102.227 46.8636C101.579 46.2926 100.787 46.0071 99.8491 46.0071C98.7326 46.0071 97.859 46.3565 97.2283 47.0554C96.6062 47.7457 96.2951 48.6449 96.2951 49.7528V62H91.7567V49.3438C91.7567 48.3295 91.4499 47.5199 90.8363 46.9148C90.2312 46.3097 89.4386 46.0071 88.4585 46.0071C87.7937 46.0071 87.1886 46.1776 86.6431 46.5185C86.0977 46.8509 85.663 47.3239 85.3391 47.9375C85.0153 48.5426 84.8533 49.25 84.8533 50.0597V62H80.2255ZM121.227 62.3835C119.259 62.3835 117.558 61.9744 116.126 61.1562C114.703 60.3295 113.608 59.1619 112.841 57.6534C112.074 56.1364 111.69 54.3509 111.69 52.2969C111.69 50.277 112.074 48.5043 112.841 46.9787C113.616 45.4446 114.699 44.2514 116.088 43.3991C117.477 42.5384 119.109 42.108 120.984 42.108C122.195 42.108 123.337 42.304 124.411 42.696C125.493 43.0795 126.447 43.6761 127.274 44.4858C128.109 45.2955 128.766 46.3267 129.243 47.5795C129.72 48.8239 129.959 50.3068 129.959 52.0284V53.4474H113.864V50.3281H125.523C125.514 49.4418 125.322 48.6534 124.947 47.9631C124.572 47.2642 124.048 46.7145 123.375 46.3139C122.71 45.9134 121.935 45.7131 121.048 45.7131C120.102 45.7131 119.271 45.9432 118.555 46.4034C117.839 46.8551 117.281 47.4517 116.881 48.1932C116.489 48.9261 116.288 49.7315 116.28 50.6094V53.3324C116.28 54.4744 116.489 55.4545 116.906 56.2727C117.324 57.0824 117.908 57.7045 118.658 58.1392C119.408 58.5653 120.286 58.7784 121.291 58.7784C121.964 58.7784 122.574 58.6847 123.119 58.4972C123.665 58.3011 124.138 58.0156 124.538 57.6406C124.939 57.2656 125.241 56.8011 125.446 56.2472L129.767 56.733C129.494 57.875 128.974 58.8722 128.207 59.7244C127.449 60.5682 126.477 61.2244 125.293 61.6932C124.108 62.1534 122.753 62.3835 121.227 62.3835ZM134.078 62V35.8182H150.851V39.794H138.821V46.902H149.701V50.8778H138.821V62H134.078ZM154.968 62V42.3636H159.596V62H154.968ZM157.294 39.5767C156.561 39.5767 155.931 39.3338 155.402 38.848C154.874 38.3537 154.61 37.7614 154.61 37.071C154.61 36.3722 154.874 35.7798 155.402 35.294C155.931 34.7997 156.561 34.5526 157.294 34.5526C158.036 34.5526 158.667 34.7997 159.186 35.294C159.715 35.7798 159.979 36.3722 159.979 37.071C159.979 37.7614 159.715 38.3537 159.186 38.848C158.667 39.3338 158.036 39.5767 157.294 39.5767Z" fill="url(#paint2_linear_638_32)"/>
</g>
<defs>
<filter id="filter0_d_638_32" x="27.918" y="34.5527" width="136.061" height="35.8438" filterUnits="userSpaceOnUse" color-interpolation-filters="sRGB">
<feFlood flood-opacity="0" result="BackgroundImageFix"/>
<feColorMatrix in="SourceAlpha" type="matrix" values="0 0 0 0 0 0 0 0 0 0 0 0 0 0 0 0 0 0 127 0" result="hardAlpha"/>
<feOffset dy="4"/>
<feGaussianBlur stdDeviation="2"/>
<feComposite in2="hardAlpha" operator="out"/>
<feColorMatrix type="matrix" values="0 0 0 0 1 0 0 0 0 1 0 0 0 0 1 0 0 0 0.21 0"/>
<feBlend mode="normal" in2="BackgroundImageFix" result="effect1_dropShadow_638_32"/>
<feBlend mode="normal" in="SourceGraphic" in2="effect1_dropShadow_638_32" result="shape"/>
</filter>
<linearGradient id="paint0_linear_638_32" x1="96.5" y1="0" x2="96.5" y2="98" gradientUnits="userSpaceOnUse">
<stop stop-color="#D9D9D9"/>
<stop offset="1" stop-color="#737373"/>
</linearGradient>
<linearGradient id="paint1_linear_638_32" x1="66.5254" y1="-7.11291" x2="122.013" y2="82.1391" gradientUnits="userSpaceOnUse">
<stop stop-color="#93C5FF"/>
<stop offset="0.5" stop-color="#030D19"/>
<stop offset="0.75" stop-color="white"/>
<stop offset="1" stop-color="#0075FF"/>
</linearGradient>
<linearGradient id="paint2_linear_638_32" x1="154.767" y1="16.3333" x2="4.34496" y2="39.7544" gradientUnits="userSpaceOnUse">
<stop stop-color="#7276AC"/>
<stop offset="0.482483" stop-color="#AAAFF3"/>
<stop offset="1" stop-color="#7276AC"/>
</linearGradient>
</defs>
</svg>
