<svg width="104" height="98" viewBox="0 0 104 98" fill="none" xmlns="http://www.w3.org/2000/svg">
<path d="M3.5 33C3.5 16.7076 16.7076 3.5 33 3.5H50.1458H71C87.2924 3.5 100.5 16.7076 100.5 33V65C100.5 81.2924 87.2924 94.5 71 94.5H33C16.7076 94.5 3.5 81.2924 3.5 65V33Z" fill="url(#paint0_linear_638_26)" fill-opacity="0.2" stroke="url(#paint1_linear_638_26)" stroke-width="7"/>
<g filter="url(#filter0_d_638_26)">
<path d="M32.5824 62V35.8182H37.3253V58.0241H48.8565V62H32.5824ZM52.7173 62V58.5739L61.8068 49.6634C62.6761 48.7855 63.4006 48.0057 63.9801 47.3239C64.5597 46.642 64.9943 45.9815 65.2841 45.3423C65.5739 44.7031 65.7188 44.0213 65.7188 43.2969C65.7188 42.4702 65.5312 41.7628 65.1562 41.1747C64.7812 40.5781 64.2656 40.1179 63.6094 39.794C62.9531 39.4702 62.2074 39.3082 61.3722 39.3082C60.5114 39.3082 59.7571 39.4872 59.1094 39.8452C58.4616 40.1946 57.9588 40.6932 57.6009 41.3409C57.2514 41.9886 57.0767 42.7599 57.0767 43.6548H52.5639C52.5639 41.9929 52.9432 40.5483 53.7017 39.321C54.4602 38.0937 55.5043 37.1435 56.8338 36.4702C58.1719 35.7969 59.706 35.4602 61.4361 35.4602C63.1918 35.4602 64.7344 35.7884 66.0639 36.4446C67.3935 37.1009 68.4247 38 69.1577 39.142C69.8991 40.2841 70.2699 41.5881 70.2699 43.054C70.2699 44.0341 70.0824 44.9972 69.7074 45.9432C69.3324 46.8892 68.6719 47.9375 67.7259 49.0881C66.7884 50.2386 65.4716 51.6321 63.7756 53.2685L59.2628 57.858V58.0369H70.6662V62H52.7173Z" fill="url(#paint2_linear_638_26)"/>
</g>
<defs>
<filter id="filter0_d_638_26" x="28.582" y="35.4609" width="46.084" height="34.5391" filterUnits="userSpaceOnUse" color-interpolation-filters="sRGB">
<feFlood flood-opacity="0" result="BackgroundImageFix"/>
<feColorMatrix in="SourceAlpha" type="matrix" values="0 0 0 0 0 0 0 0 0 0 0 0 0 0 0 0 0 0 127 0" result="hardAlpha"/>
<feOffset dy="4"/>
<feGaussianBlur stdDeviation="2"/>
<feComposite in2="hardAlpha" operator="out"/>
<feColorMatrix type="matrix" values="0 0 0 0 1 0 0 0 0 1 0 0 0 0 1 0 0 0 0.21 0"/>
<feBlend mode="normal" in2="BackgroundImageFix" result="effect1_dropShadow_638_26"/>
<feBlend mode="normal" in="SourceGraphic" in2="effect1_dropShadow_638_26" result="shape"/>
</filter>
<linearGradient id="paint0_linear_638_26" x1="52" y1="0" x2="52" y2="98" gradientUnits="userSpaceOnUse">
<stop stop-color="#D9D9D9"/>
<stop offset="1" stop-color="#737373"/>
</linearGradient>
<linearGradient id="paint1_linear_638_26" x1="35.8479" y1="-7.11291" x2="97.0946" y2="45.9736" gradientUnits="userSpaceOnUse">
<stop stop-color="#93C5FF"/>
<stop offset="0.5" stop-color="#030D19"/>
<stop offset="0.75" stop-color="white"/>
<stop offset="1" stop-color="#0075FF"/>
</linearGradient>
<linearGradient id="paint2_linear_638_26" x1="70.6438" y1="16.3333" x2="20.5835" y2="18.8725" gradientUnits="userSpaceOnUse">
<stop stop-color="#7276AC"/>
<stop offset="0.482483" stop-color="#AAAFF3"/>
<stop offset="1" stop-color="#7276AC"/>
</linearGradient>
</defs>
</svg>
