<svg width="148" height="43" viewBox="0 0 148 43" fill="none" xmlns="http://www.w3.org/2000/svg">
<path d="M39.2736 41.8075H33.168V12.0957H39.2736V41.8075Z" fill="white"/>
<path d="M61.3352 11.5117C64.7057 11.5117 67.4592 12.6936 69.5928 15.0573C71.7229 17.421 72.7914 20.4262 72.7914 24.07V41.8035H66.6858V24.9999C66.6858 22.7131 65.949 20.8222 64.4753 19.3304C63.0018 17.8386 61.1817 17.0924 59.0114 17.0924C56.5678 17.0924 54.5724 17.8386 53.0223 19.3304C51.4722 20.8222 50.6955 22.7131 50.6955 24.9999V41.8035H44.5898V12.095H50.6955V19.7693C51.5089 17.2122 52.8566 15.1954 54.7383 13.7219C56.6169 12.2485 58.818 11.5117 61.3382 11.5117H61.3352Z" fill="white"/>
<path d="M91.8267 11.5117C96.5941 11.5117 100.471 13.2185 103.455 16.629C106.438 20.0424 107.66 24.1682 107.117 29.0151H82.5224C82.9492 31.419 84.0542 33.3681 85.8376 34.8599C87.6211 36.352 89.77 37.0979 92.2902 37.0979C94.2271 37.0979 95.9617 36.622 97.4935 35.6733C99.0252 34.7248 100.216 33.4355 101.07 31.8056L106.187 34.0741C104.87 36.5945 102.988 38.6081 100.548 40.1215C98.1075 41.6349 95.2954 42.39 92.1151 42.39C87.658 42.39 83.916 40.9165 80.8925 37.9725C77.8689 35.0288 76.3555 31.3637 76.3555 26.983C76.3555 22.6027 77.8381 18.9312 80.8032 15.9629C83.7687 12.9976 87.44 11.5149 91.8235 11.5149L91.8267 11.5117ZM91.8267 16.804C89.5766 16.804 87.6305 17.4917 85.9819 18.8697C84.3336 20.245 83.2376 22.0378 82.6975 24.248H100.956C100.453 22.0378 99.3751 20.245 97.7298 18.8697C96.0812 17.4946 94.1138 16.804 91.8267 16.804Z" fill="white"/>
<path d="M123.998 11.5117C127.565 11.5117 130.472 12.4419 132.719 14.302C134.966 16.1623 136.093 18.8392 136.093 22.3264V41.8067H129.987V33.8992C128.164 39.5596 124.501 42.39 118.997 42.39C116.437 42.39 114.307 41.6257 112.6 40.0937C110.893 38.562 110.043 36.5576 110.043 34.0773C110.043 31.1703 111.068 28.9876 113.125 27.5357C115.179 26.0836 117.797 25.1812 120.974 24.8313L126.73 24.248C128.9 24.0546 129.987 23.0845 129.987 21.341C129.987 19.9074 129.434 18.7625 128.329 17.9122C127.224 17.0587 125.781 16.6319 123.998 16.6319C122.214 16.6319 120.634 17.0986 119.375 18.0288C118.116 18.9589 117.312 20.3156 116.962 22.0991L110.915 20.6442C111.458 17.8537 112.91 15.6343 115.277 13.9858C117.64 12.3405 120.547 11.5149 123.998 11.5149V11.5117ZM120.974 37.4446C123.494 37.4446 125.625 36.6005 127.368 34.9152C129.112 33.23 129.984 31.2623 129.984 29.0121V27.3852C129.52 28.1618 128.394 28.6439 126.61 28.8371L120.971 29.5341C119.498 29.7305 118.325 30.1633 117.453 30.8417C116.581 31.5202 116.146 32.4412 116.146 33.6044C116.146 34.7679 116.581 35.6981 117.453 36.3949C118.325 37.0917 119.498 37.4416 120.971 37.4416L120.974 37.4446Z" fill="white"/>
<path d="M28.9632 41.8075H0.761719V12.0957H7.21425V36.0517H28.9632V41.8075Z" fill="white"/>
<path d="M141.85 11.5113C145.028 11.5113 147.605 8.93445 147.605 5.75554C147.605 2.57686 145.028 0 141.85 0C138.671 0 136.094 2.57686 136.094 5.75554C136.094 8.93445 138.671 11.5113 141.85 11.5113Z" fill="white"/>
</svg>
