<svg width="263" height="98" viewBox="0 0 263 98" fill="none" xmlns="http://www.w3.org/2000/svg">
<path d="M3.5 33C3.5 16.7076 16.7076 3.5 33 3.5H126.811H230C246.292 3.5 259.5 16.7076 259.5 33V65C259.5 81.2924 246.292 94.5 230 94.5H33C16.7076 94.5 3.5 81.2924 3.5 65V33Z" fill="url(#paint0_linear_638_21)" fill-opacity="0.2" stroke="url(#paint1_linear_638_21)" stroke-width="7"/>
<g filter="url(#filter0_d_638_21)">
<path d="M32.5824 35.8182H38.3864L46.1591 54.7898H46.4659L54.2386 35.8182H60.0426V62H55.4915V44.0128H55.2486L48.0128 61.9233H44.6122L37.3764 43.9744H37.1335V62H32.5824V35.8182ZM73.696 62.3835C71.7273 62.3835 70.027 61.9744 68.5952 61.1562C67.1719 60.3295 66.0767 59.1619 65.3097 57.6534C64.5426 56.1364 64.1591 54.3509 64.1591 52.2969C64.1591 50.277 64.5426 48.5043 65.3097 46.9787C66.0852 45.4446 67.1676 44.2514 68.5568 43.3991C69.946 42.5384 71.5781 42.108 73.4531 42.108C74.6634 42.108 75.8054 42.304 76.8793 42.696C77.9616 43.0795 78.9162 43.6761 79.7429 44.4858C80.5781 45.2955 81.2344 46.3267 81.7116 47.5795C82.1889 48.8239 82.4276 50.3068 82.4276 52.0284V53.4474H66.3324V50.3281H77.9915C77.983 49.4418 77.7912 48.6534 77.4162 47.9631C77.0412 47.2642 76.517 46.7145 75.8438 46.3139C75.179 45.9134 74.4034 45.7131 73.517 45.7131C72.571 45.7131 71.7401 45.9432 71.0241 46.4034C70.3082 46.8551 69.75 47.4517 69.3494 48.1932C68.9574 48.9261 68.7571 49.7315 68.7486 50.6094V53.3324C68.7486 54.4744 68.9574 55.4545 69.375 56.2727C69.7926 57.0824 70.3764 57.7045 71.1264 58.1392C71.8764 58.5653 72.7543 58.7784 73.7599 58.7784C74.4332 58.7784 75.0426 58.6847 75.5881 58.4972C76.1335 58.3011 76.6065 58.0156 77.0071 57.6406C77.4077 57.2656 77.7102 56.8011 77.9148 56.2472L82.2358 56.733C81.9631 57.875 81.4432 58.8722 80.6761 59.7244C79.9176 60.5682 78.946 61.2244 77.7614 61.6932C76.5767 62.1534 75.2216 62.3835 73.696 62.3835ZM86.3427 62V42.3636H90.766V45.7003H90.9961C91.4052 44.5753 92.0827 43.6974 93.0288 43.0668C93.9748 42.4276 95.104 42.108 96.4165 42.108C97.7461 42.108 98.8668 42.4318 99.7788 43.0795C100.699 43.7187 101.347 44.5923 101.722 45.7003H101.926C102.361 44.6094 103.094 43.7401 104.125 43.0923C105.165 42.4361 106.397 42.108 107.82 42.108C109.627 42.108 111.101 42.679 112.243 43.821C113.385 44.9631 113.956 46.6293 113.956 48.8196V62H109.316V49.5355C109.316 48.3168 108.992 47.4261 108.344 46.8636C107.696 46.2926 106.904 46.0071 105.966 46.0071C104.85 46.0071 103.976 46.3565 103.346 47.0554C102.723 47.7457 102.412 48.6449 102.412 49.7528V62H97.8739V49.3438C97.8739 48.3295 97.5671 47.5199 96.9535 46.9148C96.3484 46.3097 95.5558 46.0071 94.5756 46.0071C93.9109 46.0071 93.3058 46.1776 92.7603 46.5185C92.2148 46.8509 91.7802 47.3239 91.4563 47.9375C91.1325 48.5426 90.9705 49.25 90.9705 50.0597V62H86.3427ZM127.344 62.3835C125.376 62.3835 123.675 61.9744 122.244 61.1562C120.82 60.3295 119.725 59.1619 118.958 57.6534C118.191 56.1364 117.808 54.3509 117.808 52.2969C117.808 50.277 118.191 48.5043 118.958 46.9787C119.734 45.4446 120.816 44.2514 122.205 43.3991C123.594 42.5384 125.227 42.108 127.102 42.108C128.312 42.108 129.454 42.304 130.528 42.696C131.61 43.0795 132.565 43.6761 133.391 44.4858C134.227 45.2955 134.883 46.3267 135.36 47.5795C135.837 48.8239 136.076 50.3068 136.076 52.0284V53.4474H119.981V50.3281H131.64C131.631 49.4418 131.44 48.6534 131.065 47.9631C130.69 47.2642 130.165 46.7145 129.492 46.3139C128.827 45.9134 128.052 45.7131 127.165 45.7131C126.219 45.7131 125.388 45.9432 124.673 46.4034C123.957 46.8551 123.398 47.4517 122.998 48.1932C122.606 48.9261 122.406 49.7315 122.397 50.6094V53.3324C122.397 54.4744 122.606 55.4545 123.023 56.2727C123.441 57.0824 124.025 57.7045 124.775 58.1392C125.525 58.5653 126.403 58.7784 127.408 58.7784C128.082 58.7784 128.691 58.6847 129.237 58.4972C129.782 58.3011 130.255 58.0156 130.656 57.6406C131.056 57.2656 131.359 56.8011 131.563 56.2472L135.884 56.733C135.612 57.875 135.092 58.8722 134.325 59.7244C133.566 60.5682 132.594 61.2244 131.41 61.6932C130.225 62.1534 128.87 62.3835 127.344 62.3835ZM148.556 62.3835C146.596 62.3835 144.913 61.9531 143.507 61.0923C142.109 60.2315 141.031 59.0426 140.272 57.5256C139.522 56 139.147 54.2443 139.147 52.2585C139.147 50.2642 139.531 48.5043 140.298 46.9787C141.065 45.4446 142.147 44.2514 143.545 43.3991C144.951 42.5384 146.613 42.108 148.531 42.108C150.125 42.108 151.535 42.402 152.762 42.9901C153.998 43.5696 154.983 44.392 155.716 45.4574C156.449 46.5142 156.866 47.75 156.968 49.1648H152.545C152.366 48.2187 151.94 47.4304 151.267 46.7997C150.602 46.1605 149.711 45.8409 148.595 45.8409C147.649 45.8409 146.818 46.0966 146.102 46.608C145.386 47.1108 144.828 47.8352 144.427 48.7812C144.035 49.7273 143.839 50.8608 143.839 52.1818C143.839 53.5199 144.035 54.6705 144.427 55.6335C144.819 56.5881 145.369 57.3253 146.076 57.8452C146.792 58.3565 147.632 58.6122 148.595 58.6122C149.277 58.6122 149.886 58.4844 150.423 58.2287C150.968 57.9645 151.424 57.5852 151.791 57.0909C152.157 56.5966 152.409 55.9957 152.545 55.2884H156.968C156.858 56.6776 156.449 57.9091 155.741 58.983C155.034 60.0483 154.071 60.8835 152.852 61.4886C151.633 62.0852 150.201 62.3835 148.556 62.3835ZM169.334 62.3835C167.416 62.3835 165.754 61.9616 164.348 61.1179C162.942 60.2741 161.851 59.0937 161.075 57.5767C160.308 56.0597 159.925 54.2869 159.925 52.2585C159.925 50.2301 160.308 48.4531 161.075 46.9276C161.851 45.402 162.942 44.2173 164.348 43.3736C165.754 42.5298 167.416 42.108 169.334 42.108C171.251 42.108 172.913 42.5298 174.32 43.3736C175.726 44.2173 176.813 45.402 177.58 46.9276C178.355 48.4531 178.743 50.2301 178.743 52.2585C178.743 54.2869 178.355 56.0597 177.58 57.5767C176.813 59.0937 175.726 60.2741 174.32 61.1179C172.913 61.9616 171.251 62.3835 169.334 62.3835ZM169.359 58.6761C170.399 58.6761 171.268 58.3906 171.967 57.8196C172.666 57.2401 173.186 56.4645 173.527 55.4929C173.876 54.5213 174.051 53.4389 174.051 52.2457C174.051 51.044 173.876 49.9574 173.527 48.9858C173.186 48.0057 172.666 47.2259 171.967 46.6463C171.268 46.0668 170.399 45.777 169.359 45.777C168.294 45.777 167.408 46.0668 166.7 46.6463C166.001 47.2259 165.477 48.0057 165.128 48.9858C164.787 49.9574 164.616 51.044 164.616 52.2457C164.616 53.4389 164.787 54.5213 165.128 55.4929C165.477 56.4645 166.001 57.2401 166.7 57.8196C167.408 58.3906 168.294 58.6761 169.359 58.6761ZM182.671 62V42.3636H187.299V62H182.671ZM184.998 39.5767C184.265 39.5767 183.634 39.3338 183.105 38.848C182.577 38.3537 182.313 37.7614 182.313 37.071C182.313 36.3722 182.577 35.7798 183.105 35.294C183.634 34.7997 184.265 34.5526 184.998 34.5526C185.739 34.5526 186.37 34.7997 186.89 35.294C187.418 35.7798 187.682 36.3722 187.682 37.071C187.682 37.7614 187.418 38.3537 186.89 38.848C186.37 39.3338 185.739 39.5767 184.998 39.5767ZM196.685 50.4943V62H192.058V42.3636H196.481V45.7003H196.711C197.163 44.6009 197.883 43.7273 198.871 43.0795C199.869 42.4318 201.1 42.108 202.566 42.108C203.921 42.108 205.102 42.3977 206.107 42.9773C207.121 43.5568 207.906 44.3963 208.46 45.4957C209.022 46.5952 209.299 47.929 209.29 49.4972V62H204.663V50.2131C204.663 48.9006 204.322 47.8736 203.64 47.1321C202.967 46.3906 202.033 46.0199 200.84 46.0199C200.031 46.0199 199.31 46.1989 198.68 46.5568C198.058 46.9062 197.567 47.4134 197.21 48.0781C196.86 48.7429 196.685 49.5483 196.685 50.4943ZM229.515 47.554L225.296 48.0142C225.177 47.5881 224.968 47.1875 224.67 46.8125C224.38 46.4375 223.988 46.1349 223.494 45.9048C222.999 45.6747 222.394 45.5597 221.678 45.5597C220.715 45.5597 219.906 45.7685 219.249 46.1861C218.602 46.6037 218.282 47.1449 218.29 47.8097C218.282 48.3807 218.491 48.8452 218.917 49.2031C219.352 49.5611 220.067 49.8551 221.065 50.0852L224.414 50.8011C226.272 51.2017 227.653 51.8366 228.556 52.706C229.468 53.5753 229.928 54.7131 229.937 56.1193C229.928 57.3551 229.566 58.446 228.85 59.392C228.143 60.3295 227.158 61.0625 225.897 61.5909C224.636 62.1193 223.187 62.3835 221.55 62.3835C219.147 62.3835 217.212 61.8807 215.746 60.875C214.281 59.8608 213.407 58.4503 213.126 56.6435L217.638 56.2088C217.843 57.0952 218.278 57.7642 218.942 58.2159C219.607 58.6676 220.472 58.8935 221.538 58.8935C222.637 58.8935 223.519 58.6676 224.184 58.2159C224.857 57.7642 225.194 57.206 225.194 56.5412C225.194 55.9787 224.977 55.5142 224.542 55.1477C224.116 54.7812 223.451 54.5 222.548 54.304L219.198 53.6009C217.315 53.2088 215.921 52.5483 215.018 51.6193C214.114 50.6818 213.667 49.4972 213.675 48.0653C213.667 46.8551 213.995 45.8068 214.66 44.9205C215.333 44.0256 216.266 43.3352 217.46 42.8494C218.661 42.3551 220.046 42.108 221.614 42.108C223.915 42.108 225.727 42.598 227.048 43.5781C228.377 44.5582 229.2 45.8835 229.515 47.554Z" fill="url(#paint2_linear_638_21)"/>
</g>
<defs>
<filter id="filter0_d_638_21" x="28.582" y="34.5527" width="205.355" height="35.8301" filterUnits="userSpaceOnUse" color-interpolation-filters="sRGB">
<feFlood flood-opacity="0" result="BackgroundImageFix"/>
<feColorMatrix in="SourceAlpha" type="matrix" values="0 0 0 0 0 0 0 0 0 0 0 0 0 0 0 0 0 0 127 0" result="hardAlpha"/>
<feOffset dy="4"/>
<feGaussianBlur stdDeviation="2"/>
<feComposite in2="hardAlpha" operator="out"/>
<feColorMatrix type="matrix" values="0 0 0 0 1 0 0 0 0 1 0 0 0 0 1 0 0 0 0.21 0"/>
<feBlend mode="normal" in2="BackgroundImageFix" result="effect1_dropShadow_638_21"/>
<feBlend mode="normal" in="SourceGraphic" in2="effect1_dropShadow_638_21" result="shape"/>
</filter>
<linearGradient id="paint0_linear_638_21" x1="131.5" y1="0" x2="131.5" y2="98" gradientUnits="userSpaceOnUse">
<stop stop-color="#D9D9D9"/>
<stop offset="1" stop-color="#737373"/>
</linearGradient>
<linearGradient id="paint1_linear_638_21" x1="90.6537" y1="-7.11291" x2="137.384" y2="95.3156" gradientUnits="userSpaceOnUse">
<stop stop-color="#93C5FF"/>
<stop offset="0.5" stop-color="#030D19"/>
<stop offset="0.75" stop-color="white"/>
<stop offset="1" stop-color="#0075FF"/>
</linearGradient>
<linearGradient id="paint2_linear_638_21" x1="220.932" y1="16.3333" x2="-2.17409" y2="69.4931" gradientUnits="userSpaceOnUse">
<stop stop-color="#7276AC"/>
<stop offset="0.482483" stop-color="#AAAFF3"/>
<stop offset="1" stop-color="#7276AC"/>
</linearGradient>
</defs>
</svg>
