<svg width="151" height="98" viewBox="0 0 151 98" fill="none" xmlns="http://www.w3.org/2000/svg">
<path d="M3.5 33C3.5 16.7076 16.7076 3.5 33 3.5H72.8078H118C134.292 3.5 147.5 16.7076 147.5 33V65C147.5 81.2924 134.292 94.5 118 94.5H33C16.7076 94.5 3.5 81.2924 3.5 65V33Z" fill="url(#paint0_linear_638_24)" fill-opacity="0.2" stroke="url(#paint1_linear_638_24)" stroke-width="7"/>
<g filter="url(#filter0_d_638_24)">
<path d="M54.098 35.8182V62H49.8793L37.5426 44.1662H37.3253V62H32.5824V35.8182H36.8267L49.1506 53.6648H49.3807V35.8182H54.098ZM59.266 62V35.8182H76.0387V39.794H64.0089V46.902H74.8881V50.8778H64.0089V62H59.266ZM79.2092 39.794V35.8182H100.098V39.794H92.006V62H87.3015V39.794H79.2092ZM116.769 47.554L112.55 48.0142C112.431 47.5881 112.222 47.1875 111.924 46.8125C111.634 46.4375 111.242 46.1349 110.748 45.9048C110.253 45.6747 109.648 45.5597 108.932 45.5597C107.969 45.5597 107.159 45.7685 106.503 46.1861C105.855 46.6037 105.536 47.1449 105.544 47.8097C105.536 48.3807 105.745 48.8452 106.171 49.2031C106.605 49.5611 107.321 49.8551 108.319 50.0852L111.668 50.8011C113.526 51.2017 114.907 51.8366 115.81 52.706C116.722 53.5753 117.182 54.7131 117.191 56.1193C117.182 57.3551 116.82 58.446 116.104 59.392C115.397 60.3295 114.412 61.0625 113.151 61.5909C111.89 62.1193 110.441 62.3835 108.804 62.3835C106.401 62.3835 104.466 61.8807 103 60.875C101.534 59.8608 100.661 58.4503 100.38 56.6435L104.892 56.2088C105.097 57.0952 105.532 57.7642 106.196 58.2159C106.861 58.6676 107.726 58.8935 108.792 58.8935C109.891 58.8935 110.773 58.6676 111.438 58.2159C112.111 57.7642 112.448 57.206 112.448 56.5412C112.448 55.9787 112.23 55.5142 111.796 55.1477C111.37 54.7812 110.705 54.5 109.801 54.304L106.452 53.6009C104.569 53.2088 103.175 52.5483 102.272 51.6193C101.368 50.6818 100.921 49.4972 100.929 48.0653C100.921 46.8551 101.249 45.8068 101.914 44.9205C102.587 44.0256 103.52 43.3352 104.713 42.8494C105.915 42.3551 107.3 42.108 108.868 42.108C111.169 42.108 112.98 42.598 114.301 43.5781C115.631 44.5582 116.453 45.8835 116.769 47.554Z" fill="url(#paint2_linear_638_24)"/>
</g>
<defs>
<filter id="filter0_d_638_24" x="28.582" y="35.8184" width="92.6094" height="34.5645" filterUnits="userSpaceOnUse" color-interpolation-filters="sRGB">
<feFlood flood-opacity="0" result="BackgroundImageFix"/>
<feColorMatrix in="SourceAlpha" type="matrix" values="0 0 0 0 0 0 0 0 0 0 0 0 0 0 0 0 0 0 127 0" result="hardAlpha"/>
<feOffset dy="4"/>
<feGaussianBlur stdDeviation="2"/>
<feComposite in2="hardAlpha" operator="out"/>
<feColorMatrix type="matrix" values="0 0 0 0 1 0 0 0 0 1 0 0 0 0 1 0 0 0 0.21 0"/>
<feBlend mode="normal" in2="BackgroundImageFix" result="effect1_dropShadow_638_24"/>
<feBlend mode="normal" in="SourceGraphic" in2="effect1_dropShadow_638_24" result="shape"/>
</filter>
<linearGradient id="paint0_linear_638_24" x1="75.5" y1="0" x2="75.5" y2="98" gradientUnits="userSpaceOnUse">
<stop stop-color="#D9D9D9"/>
<stop offset="1" stop-color="#737373"/>
</linearGradient>
<linearGradient id="paint1_linear_638_24" x1="52.0483" y1="-7.11291" x2="112.322" y2="68.7405" gradientUnits="userSpaceOnUse">
<stop stop-color="#93C5FF"/>
<stop offset="0.5" stop-color="#030D19"/>
<stop offset="0.75" stop-color="white"/>
<stop offset="1" stop-color="#0075FF"/>
</linearGradient>
<linearGradient id="paint2_linear_638_24" x1="114.123" y1="16.3333" x2="11.3759" y2="27.1199" gradientUnits="userSpaceOnUse">
<stop stop-color="#7276AC"/>
<stop offset="0.482483" stop-color="#AAAFF3"/>
<stop offset="1" stop-color="#7276AC"/>
</linearGradient>
</defs>
</svg>
