<svg width="237" height="50" viewBox="0 0 237 50" fill="none" xmlns="http://www.w3.org/2000/svg">
<path d="M75.1918 7.45117C72.4581 7.45117 69.8221 7.79302 68.748 8.08599C67.1861 8.52526 66.7953 9.20862 66.5024 10.6242L60.303 39.2307C60.2052 39.8167 60.1074 40.3048 60.1074 40.793C60.1074 42.21 61.0352 43.136 62.5482 43.136C64.2082 43.136 64.8916 42.0623 65.2334 40.4026L66.9905 32.2502C68.2109 32.3965 69.8221 32.5428 72.1166 32.5428C82.2216 32.5428 88.5184 27.0757 88.5184 18.8255C88.5188 11.6005 83.4905 7.45117 75.1918 7.45117ZM71.8725 27.8561C70.3102 27.8561 69.0898 27.8075 67.9669 27.6609L71.2377 12.4791C72.2629 12.3324 73.7762 12.1372 75.3385 12.1372C80.7082 12.1372 83.442 14.6758 83.442 18.874C83.442 24.2441 79.5367 27.8564 71.8711 27.8564L71.8725 27.8561Z" fill="white"/>
<path d="M234.233 33.7156C233.403 33.7156 232.866 34.2038 231.841 35.3264C230.034 37.1816 228.912 38.2065 227.496 38.2065C226.227 38.2065 225.543 37.1816 225.543 35.5216C225.543 34.5942 225.739 33.4715 225.983 32.2511L227.789 23.7569H233.209C234.918 23.7569 235.943 22.7806 235.943 21.0231C235.943 20.0468 235.309 19.3146 233.844 19.3146H228.765L229.644 15.3604C229.741 14.7748 229.839 14.2378 229.839 13.7496C229.839 12.3826 228.912 11.4062 227.398 11.4062C225.787 11.4062 225.055 12.4803 224.713 14.14L223.59 19.3146H221.296C219.539 19.3146 218.514 20.2909 218.514 22.0483C218.514 23.0246 219.197 23.7569 220.661 23.7569H222.663L220.856 32.1527C220.661 33.0801 220.417 34.5934 220.417 36.1557C220.417 40.1099 222.467 42.9899 226.861 42.9899C229.399 42.9899 231.645 41.7206 233.354 40.2073C235.013 38.7428 236.234 36.9368 236.234 35.765C236.234 34.643 235.356 33.7156 234.233 33.7156Z" fill="white"/>
<path d="M121.956 10.3317C121.956 8.91465 120.98 7.98828 119.466 7.98828C117.856 7.98828 117.123 9.06237 116.782 10.722L110.68 39.0845C110.533 39.6704 110.436 40.1586 110.436 40.6468C110.436 42.0638 111.412 42.9898 112.876 42.9898C114.536 42.9898 115.268 41.9157 115.61 40.256L121.713 11.8936C121.81 11.308 121.956 10.8198 121.956 10.3317Z" fill="white"/>
<path d="M209.093 18.8256C201.283 18.8256 195.962 26.5876 195.962 33.9588C195.962 34.097 195.965 34.2334 195.969 34.3694C194.744 36.2292 193.179 38.1571 192.105 38.1571C191.324 38.1571 191.031 37.4248 191.031 36.3019C191.031 34.9351 191.421 32.6407 191.861 30.6391L195.913 11.8936C196.011 11.308 196.108 10.8198 196.108 10.3317C196.108 8.91465 195.181 7.98828 193.668 7.98828C192.008 7.98828 191.324 9.06237 190.983 10.722L188.786 20.876C187.614 19.6556 185.904 18.8256 183.318 18.8256C178.131 18.8256 172.914 22.819 170.88 28.943C168.641 34.7322 166.64 38.1571 165.061 38.1571C164.475 38.1571 164.134 37.6689 164.134 36.8389C164.134 34.3981 165.5 28.4431 166.086 25.5624C166.281 24.4883 166.379 24.049 166.379 23.4142C166.379 21.2663 162.815 18.7278 158.178 18.7278C152.816 18.7278 147.958 22.1236 145.523 27.1714C141.906 33.5628 138.587 38.1581 136.943 38.1581C136.211 38.1581 135.967 37.2303 135.772 36.3514L134.551 29.6146L142.02 23.5127C142.704 22.9267 143.582 22.0956 143.582 21.023C143.582 19.7052 142.704 18.8266 141.386 18.8266C140.41 18.8266 139.579 19.4125 138.75 20.0959L127.523 29.3699L131.282 11.8936C131.38 11.308 131.526 10.8198 131.526 10.3317C131.526 8.91465 130.55 7.98828 129.037 7.98828C127.426 7.98828 126.694 9.06237 126.352 10.722L120.25 39.0845C120.104 39.6704 120.006 40.1586 120.006 40.6468C120.006 42.0638 120.982 42.9898 122.447 42.9898C124.106 42.9898 124.839 41.9157 125.18 40.256L125.962 36.5948L130.55 32.8847L131.673 38.5475C132.112 40.7931 133.284 42.9898 136.311 42.9898C139.322 42.9898 141.69 40.2397 144.063 36.524C144.784 40.4158 147.552 42.9898 151.395 42.9898C155.251 42.9898 157.887 40.6953 159.596 37.62V37.7174C159.596 40.8908 161.207 42.9898 164.038 42.9898C166.598 42.9898 168.724 41.4463 170.624 38.1645C171.701 41.0244 174.109 42.9898 177.461 42.9898C181.415 42.9898 184.246 40.5979 186.053 37.2782V37.5711C186.053 41.086 187.81 42.9912 190.69 42.9912C193.233 42.9912 195.395 41.5154 197.239 39.1111C198.642 41.5129 201.156 42.9912 204.554 42.9912C212.365 42.9912 217.685 35.2295 217.685 27.8094C217.685 22.5845 214.512 18.8256 209.093 18.8256ZM160.424 28.735C159.007 34.837 155.982 38.303 152.564 38.303C150.27 38.303 149.001 36.5456 149.001 33.9103C149.001 28.7357 152.76 23.1704 157.786 23.1704C159.299 23.1704 160.471 23.6101 161.496 24.2445L160.424 28.735ZM187.614 26.149C186.052 33.3251 182.488 38.3044 178.583 38.3044C176.435 38.3044 175.166 36.6448 175.166 33.9117C175.166 28.6883 178.779 23.2696 183.611 23.2696C185.466 23.2696 186.882 23.9041 187.907 24.7341L187.614 26.149ZM205.14 38.3034C202.309 38.3034 201.137 36.253 201.137 33.6659C201.137 28.9306 204.407 23.5119 208.508 23.5119C211.339 23.5119 212.511 25.5624 212.511 28.1495C212.511 32.9336 209.24 38.3034 205.14 38.3034Z" fill="white"/>
<path d="M100.673 18.8262C92.8619 18.8262 87.541 26.5882 87.541 33.9595C87.541 39.2314 90.714 42.9904 96.1327 42.9904C103.943 42.9904 109.264 35.2287 109.264 27.8086C109.264 22.5851 106.091 18.8262 100.673 18.8262ZM96.7186 38.304C93.8871 38.304 92.7156 36.2536 92.7156 33.6665C92.7156 28.9312 95.9864 23.5126 100.087 23.5126C102.918 23.5126 104.09 25.563 104.09 28.1501C104.09 32.9342 100.819 38.304 96.7186 38.304Z" fill="white"/>
<path d="M26.1365 10.4823C31.1112 10.4823 35.144 8.13577 35.144 5.24116C35.144 2.34655 31.1112 0 26.1365 0C21.1617 0 17.1289 2.34655 17.1289 5.24116C17.1289 8.13577 21.1617 10.4823 26.1365 10.4823Z" fill="#E6007A"/>
<path d="M26.1365 49.9589C31.1112 49.9589 35.144 47.6123 35.144 44.7177C35.144 41.8231 31.1112 39.4766 26.1365 39.4766C21.1617 39.4766 17.1289 41.8231 17.1289 44.7177C17.1289 47.6123 21.1617 49.9589 26.1365 49.9589Z" fill="#E6007A"/>
<path d="M13.5817 17.7314C16.0691 13.4231 16.0533 8.75735 13.5465 7.31004C11.0397 5.86274 6.99115 8.18199 4.50378 12.4902C2.01641 16.7985 2.03217 21.4643 4.53897 22.9116C7.04578 24.3589 11.0944 22.0396 13.5817 17.7314Z" fill="#E6007A"/>
<path d="M47.7692 37.4697C50.2566 33.1614 50.2408 28.4956 47.734 27.0483C45.2272 25.601 41.1786 27.9203 38.6913 32.2285C36.2039 36.5368 36.2197 41.2026 38.7265 42.6499C41.2333 44.0972 45.2819 41.7779 47.7692 37.4697Z" fill="#E6007A"/>
<path d="M13.5465 42.6489C16.0533 41.2016 16.0691 36.5358 13.5817 32.2276C11.0944 27.9193 7.04578 25.6001 4.53897 27.0474C2.03217 28.4947 2.01641 33.1605 4.50378 37.4687C6.99115 41.777 11.0397 44.0962 13.5465 42.6489Z" fill="#E6007A"/>
<path d="M47.734 22.9107C50.2408 21.4634 50.2566 16.7976 47.7692 12.4893C45.2819 8.18106 41.2333 5.8618 38.7265 7.30911C36.2197 8.75641 36.2039 13.4222 38.6913 17.7305C41.1786 22.0387 45.2272 24.358 47.734 22.9107Z" fill="#E6007A"/>
</svg>
