<svg width="236" height="46" viewBox="0 0 236 46" fill="none" xmlns="http://www.w3.org/2000/svg">
<path d="M19.1907 15.6204L14.4276 12.8636L0.138672 21.1333V37.6718L14.4276 45.9416L28.7174 37.6718V11.9446L36.6556 7.35075L44.5946 11.9446V21.1333L36.6556 25.7272L31.8925 22.9712V30.3209L36.6556 33.078L50.9445 24.8082V8.26969L36.6556 0L22.3666 8.26969V33.9968L14.4276 38.5907L6.48964 33.9968V24.8082L14.4276 20.2143L19.1907 22.9703V15.6204Z" fill="#6600FF"/>
<path fill-rule="evenodd" clip-rule="evenodd" d="M120.641 35.5973H127.073V0.341797H120.641V35.5973ZM79.2923 10.5365C82.3407 10.5365 84.8681 11.7611 86.8667 14.2065C88.8693 16.6519 89.8668 19.6854 89.8668 23.307C89.8668 26.9285 88.8655 29.9619 86.8667 32.4074C84.8644 34.8528 82.3407 36.0773 79.2923 36.0773C77.1336 36.0773 75.2577 35.4113 73.672 34.075C72.1163 32.709 70.9735 30.8665 70.2404 28.5477V45.1257H63.8086V11.013H70.2404V18.0626C70.9698 15.7437 72.1163 13.9162 73.672 12.5837C75.2614 11.2177 77.1336 10.5365 79.2923 10.5365ZM76.955 30.215C78.7005 30.215 80.1783 29.5638 81.3842 28.261C82.5901 26.9285 83.193 25.2759 83.193 23.307C83.193 21.338 82.5901 19.7487 81.3842 18.4459C80.1783 17.1134 78.7005 16.4435 76.955 16.4435C75.0157 16.4435 73.4152 17.0948 72.1423 18.3976C70.873 19.7003 70.2367 21.3343 70.2367 23.3032C70.2367 25.2722 70.873 26.9248 72.1423 28.2573C73.4115 29.5601 75.0157 30.2113 76.955 30.2113V30.215ZM91.5752 23.307C91.5752 26.9285 92.8296 29.9619 95.3382 32.4074C97.847 34.8528 100.977 36.0773 104.725 36.0773C108.473 36.0773 111.604 34.8528 114.112 32.4074C116.621 29.9619 117.875 26.9285 117.875 23.307C117.875 19.6854 116.621 16.6519 114.112 14.2065C111.604 11.7611 108.473 10.5365 104.725 10.5365C100.977 10.5365 97.847 11.7611 95.3382 14.2065C92.8296 16.6519 91.5752 19.6854 91.5752 23.307ZM100.102 28.261C98.8631 26.9285 98.245 25.2759 98.245 23.307C98.245 21.338 98.8631 19.7487 100.102 18.4459C101.342 17.1134 102.883 16.4435 104.725 16.4435C106.568 16.4435 108.109 17.0948 109.348 18.3976C110.588 19.7003 111.205 21.3343 111.205 23.3032C111.205 25.2722 110.588 26.9248 109.348 28.2573C108.109 29.5601 106.568 30.2113 104.725 30.2113C102.883 30.2113 101.342 29.5601 100.102 28.2573V28.261ZM186.492 32.4074C183.983 29.9619 182.729 26.9285 182.729 23.307C182.729 19.6854 183.983 16.6519 186.492 14.2065C189 11.7611 192.131 10.5365 195.879 10.5365C199.627 10.5365 202.757 11.7611 205.266 14.2065C207.774 16.6519 209.029 19.6854 209.029 23.307C209.029 26.9285 207.774 29.9619 205.266 32.4074C202.757 34.8528 199.627 36.0773 195.879 36.0773C192.131 36.0773 189.004 34.8528 186.492 32.4074ZM189.395 23.307C189.395 25.2759 190.013 26.9285 191.252 28.261C192.492 29.5638 194.032 30.215 195.875 30.215C197.717 30.215 199.258 29.5638 200.498 28.261C201.737 26.9285 202.355 25.2759 202.355 23.307C202.355 21.338 201.737 19.7003 200.498 18.4013C199.258 17.0986 197.717 16.4472 195.875 16.4472C194.032 16.4472 192.492 17.1134 191.252 18.4497C190.013 19.7524 189.395 21.3715 189.395 23.3107V23.307ZM226.147 10.5365C228.879 10.5365 231.071 11.4894 232.72 13.3951C234.402 15.3008 235.243 17.7313 235.243 20.6829V35.5936H228.812V21.8256C228.812 20.2362 228.305 18.9335 227.286 17.9174C226.269 16.9013 225 16.3914 223.474 16.3914C221.758 16.3914 220.362 16.9013 219.283 17.9174C218.204 18.9335 217.664 20.2362 217.664 21.8256V35.5936H211.232V11.013H217.664V17.3033C218.3 15.2077 219.365 13.5551 220.857 12.3492C222.383 11.1432 224.144 10.5403 226.147 10.5403V10.5365ZM142.523 29.0428L149.096 11.0353H155.625L142.095 45.148H135.566L138.998 36.4756L128.945 11.0353H135.901L142.523 29.0428ZM173.915 11.013V17.173C172.575 13.1531 169.266 11.013 164.863 11.013C158.215 11.013 154.285 16.8194 154.285 22.9236C154.285 29.0277 158.185 35.3105 164.863 35.3105C169.266 35.3105 172.575 32.1357 173.915 28.1159V32.8317C173.915 34.8343 173.263 36.483 171.961 37.7859C170.658 39.0886 169.073 39.74 167.196 39.74C164.654 39.74 162.767 38.4708 161.528 35.9286L155.762 38.977C156.842 40.9793 158.383 42.5798 160.385 43.7894C162.388 44.9953 164.658 45.5986 167.196 45.5986C170.945 45.5986 174.075 44.3776 176.584 41.9284C179.092 39.4829 180.346 36.4496 180.346 32.828V11.013H173.915ZM172.058 27.5948C170.818 28.8342 169.262 29.452 167.39 29.452C165.518 29.452 164.055 28.8342 162.816 27.5948C161.576 26.3256 160.958 24.7697 160.958 22.9273C160.958 21.0849 161.576 19.5439 162.816 18.3045C164.055 17.0651 165.577 16.4472 167.39 16.4472C169.203 16.4472 170.822 17.0651 172.058 18.3045C173.297 19.5105 173.915 21.0514 173.915 22.9273C173.915 24.8032 173.297 26.3591 172.058 27.5948Z" fill="white"/>
</svg>
