<svg width="369" height="98" viewBox="0 0 369 98" fill="none" xmlns="http://www.w3.org/2000/svg">
<path d="M3.5 33C3.5 16.7076 16.7076 3.5 33 3.5H177.921H336C352.292 3.5 365.5 16.7076 365.5 33V65C365.5 81.2924 352.292 94.5 336 94.5H33C16.7076 94.5 3.5 81.2924 3.5 65V33Z" fill="url(#paint0_linear_638_34)" fill-opacity="0.2" stroke="url(#paint1_linear_638_34)" stroke-width="7"/>
<g filter="url(#filter0_d_638_34)">
<path d="M32.5824 62V35.8182H42.4006C44.4119 35.8182 46.0994 36.1932 47.4631 36.9432C48.8352 37.6932 49.8707 38.7244 50.5696 40.0369C51.277 41.3409 51.6307 42.8239 51.6307 44.4858C51.6307 46.1648 51.277 47.6562 50.5696 48.9602C49.8622 50.2642 48.8182 51.2912 47.4375 52.0412C46.0568 52.7827 44.3565 53.1534 42.3366 53.1534H35.8295V49.2543H41.6974C42.8736 49.2543 43.8366 49.0497 44.5866 48.6406C45.3366 48.2315 45.8906 47.669 46.2486 46.9531C46.6151 46.2372 46.7983 45.4148 46.7983 44.4858C46.7983 43.5568 46.6151 42.7386 46.2486 42.0312C45.8906 41.3239 45.3324 40.7741 44.5739 40.3821C43.8239 39.9815 42.8565 39.7812 41.6719 39.7812H37.3253V62H32.5824ZM55.5458 62V42.3636H60.033V45.6364H60.2376C60.5955 44.5028 61.2092 43.6293 62.0785 43.0156C62.9563 42.3935 63.9577 42.0824 65.0827 42.0824C65.3384 42.0824 65.6239 42.0952 65.9393 42.1207C66.2631 42.1378 66.5316 42.1676 66.7447 42.2102V46.4673C66.5487 46.3991 66.2376 46.3395 65.8114 46.2884C65.3938 46.2287 64.989 46.1989 64.5969 46.1989C63.7532 46.1989 62.9947 46.3821 62.3214 46.7486C61.6566 47.1065 61.1325 47.6051 60.7489 48.2443C60.3654 48.8835 60.1737 49.6207 60.1737 50.456V62H55.5458ZM69.8192 62V42.3636H74.4471V62H69.8192ZM72.146 39.5767C71.413 39.5767 70.7823 39.3338 70.2539 38.848C69.7255 38.3537 69.4613 37.7614 69.4613 37.071C69.4613 36.3722 69.7255 35.7798 70.2539 35.294C70.7823 34.7997 71.413 34.5526 72.146 34.5526C72.8874 34.5526 73.5181 34.7997 74.038 35.294C74.5664 35.7798 74.8306 36.3722 74.8306 37.071C74.8306 37.7614 74.5664 38.3537 74.038 38.848C73.5181 39.3338 72.8874 39.5767 72.146 39.5767ZM96.7457 42.3636L89.7528 62H84.6392L77.6463 42.3636H82.581L87.0938 56.9503H87.2983L91.8239 42.3636H96.7457ZM105.036 62.3963C103.792 62.3963 102.671 62.1747 101.674 61.7315C100.685 61.2798 99.9013 60.6151 99.3217 59.7372C98.7507 58.8594 98.4652 57.777 98.4652 56.4901C98.4652 55.3821 98.6697 54.4659 99.0788 53.7415C99.4879 53.017 100.046 52.4375 100.754 52.0028C101.461 51.5682 102.258 51.2401 103.144 51.0185C104.039 50.7884 104.964 50.6222 105.918 50.5199C107.069 50.4006 108.002 50.294 108.718 50.2003C109.434 50.098 109.954 49.9446 110.278 49.7401C110.61 49.527 110.776 49.1989 110.776 48.7557V48.679C110.776 47.7159 110.491 46.9702 109.92 46.4418C109.349 45.9134 108.526 45.6491 107.452 45.6491C106.319 45.6491 105.42 45.8963 104.755 46.3906C104.099 46.8849 103.656 47.4687 103.425 48.142L99.1044 47.5284C99.4453 46.3352 100.008 45.3381 100.792 44.5369C101.576 43.7273 102.535 43.1222 103.668 42.7216C104.802 42.3125 106.055 42.108 107.427 42.108C108.373 42.108 109.315 42.2188 110.252 42.4403C111.19 42.6619 112.046 43.0284 112.822 43.5398C113.597 44.0426 114.219 44.7287 114.688 45.598C115.165 46.4673 115.404 47.554 115.404 48.858V62H110.955V59.3026H110.802C110.521 59.848 110.124 60.3594 109.613 60.8366C109.11 61.3054 108.475 61.6847 107.708 61.9744C106.95 62.2557 106.059 62.3963 105.036 62.3963ZM106.238 58.9957C107.167 58.9957 107.972 58.8125 108.654 58.446C109.336 58.071 109.86 57.5767 110.227 56.9631C110.602 56.3494 110.789 55.6804 110.789 54.956V52.642C110.644 52.7614 110.397 52.8722 110.048 52.9744C109.707 53.0767 109.323 53.1662 108.897 53.2429C108.471 53.3196 108.049 53.3878 107.631 53.4474C107.214 53.5071 106.852 53.5582 106.545 53.6009C105.854 53.6946 105.237 53.848 104.691 54.0611C104.146 54.2741 103.715 54.5724 103.4 54.956C103.085 55.331 102.927 55.8168 102.927 56.4134C102.927 57.2656 103.238 57.9091 103.86 58.3438C104.482 58.7784 105.275 58.9957 106.238 58.9957ZM128.623 62.3835C126.663 62.3835 124.979 61.9531 123.573 61.0923C122.175 60.2315 121.097 59.0426 120.339 57.5256C119.589 56 119.214 54.2443 119.214 52.2585C119.214 50.2642 119.597 48.5043 120.364 46.9787C121.131 45.4446 122.214 44.2514 123.612 43.3991C125.018 42.5384 126.68 42.108 128.597 42.108C130.191 42.108 131.602 42.402 132.829 42.9901C134.065 43.5696 135.049 44.392 135.782 45.4574C136.515 46.5142 136.933 47.75 137.035 49.1648H132.612C132.433 48.2187 132.006 47.4304 131.333 46.7997C130.668 46.1605 129.778 45.8409 128.661 45.8409C127.715 45.8409 126.884 46.0966 126.168 46.608C125.452 47.1108 124.894 47.8352 124.494 48.7812C124.102 49.7273 123.906 50.8608 123.906 52.1818C123.906 53.5199 124.102 54.6705 124.494 55.6335C124.886 56.5881 125.435 57.3253 126.143 57.8452C126.859 58.3565 127.698 58.6122 128.661 58.6122C129.343 58.6122 129.952 58.4844 130.489 58.2287C131.035 57.9645 131.491 57.5852 131.857 57.0909C132.224 56.5966 132.475 55.9957 132.612 55.2884H137.035C136.924 56.6776 136.515 57.9091 135.808 58.983C135.1 60.0483 134.137 60.8835 132.918 61.4886C131.7 62.0852 130.268 62.3835 128.623 62.3835ZM143.711 69.3636C143.081 69.3636 142.497 69.3125 141.96 69.2102C141.431 69.1165 141.01 69.0057 140.694 68.8778L141.768 65.2727C142.441 65.4688 143.042 65.5625 143.571 65.554C144.099 65.5455 144.564 65.3793 144.964 65.0554C145.373 64.7401 145.718 64.2116 146 63.4702L146.396 62.4091L139.275 42.3636H144.184L148.71 57.1932H148.914L153.453 42.3636H158.375L150.512 64.3778C150.146 65.4176 149.66 66.3082 149.055 67.0497C148.45 67.7997 147.708 68.3707 146.831 68.7628C145.961 69.1634 144.922 69.3636 143.711 69.3636ZM170.711 62V35.8182H180.529C182.541 35.8182 184.228 36.1932 185.592 36.9432C186.964 37.6932 188 38.7244 188.699 40.0369C189.406 41.3409 189.76 42.8239 189.76 44.4858C189.76 46.1648 189.406 47.6562 188.699 48.9602C187.991 50.2642 186.947 51.2912 185.566 52.0412C184.186 52.7827 182.485 53.1534 180.466 53.1534H173.958V49.2543H179.826C181.002 49.2543 181.966 49.0497 182.716 48.6406C183.466 48.2315 184.02 47.669 184.377 46.9531C184.744 46.2372 184.927 45.4148 184.927 44.4858C184.927 43.5568 184.744 42.7386 184.377 42.0312C184.02 41.3239 183.461 40.7741 182.703 40.3821C181.953 39.9815 180.985 39.7812 179.801 39.7812H175.454V62H170.711ZM193.675 62V42.3636H198.162V45.6364H198.366C198.724 44.5028 199.338 43.6293 200.207 43.0156C201.085 42.3935 202.087 42.0824 203.212 42.0824C203.467 42.0824 203.753 42.0952 204.068 42.1207C204.392 42.1378 204.661 42.1676 204.874 42.2102V46.4673C204.678 46.3991 204.366 46.3395 203.94 46.2884C203.523 46.2287 203.118 46.1989 202.726 46.1989C201.882 46.1989 201.124 46.3821 200.45 46.7486C199.786 47.1065 199.261 47.6051 198.878 48.2443C198.494 48.8835 198.303 49.6207 198.303 50.456V62H193.675ZM215.705 62.3835C213.787 62.3835 212.125 61.9616 210.719 61.1179C209.313 60.2741 208.222 59.0937 207.446 57.5767C206.679 56.0597 206.296 54.2869 206.296 52.2585C206.296 50.2301 206.679 48.4531 207.446 46.9276C208.222 45.402 209.313 44.2173 210.719 43.3736C212.125 42.5298 213.787 42.108 215.705 42.108C217.623 42.108 219.284 42.5298 220.691 43.3736C222.097 44.2173 223.184 45.402 223.951 46.9276C224.726 48.4531 225.114 50.2301 225.114 52.2585C225.114 54.2869 224.726 56.0597 223.951 57.5767C223.184 59.0937 222.097 60.2741 220.691 61.1179C219.284 61.9616 217.623 62.3835 215.705 62.3835ZM215.73 58.6761C216.77 58.6761 217.64 58.3906 218.338 57.8196C219.037 57.2401 219.557 56.4645 219.898 55.4929C220.248 54.5213 220.422 53.4389 220.422 52.2457C220.422 51.044 220.248 49.9574 219.898 48.9858C219.557 48.0057 219.037 47.2259 218.338 46.6463C217.64 46.0668 216.77 45.777 215.73 45.777C214.665 45.777 213.779 46.0668 213.071 46.6463C212.373 47.2259 211.848 48.0057 211.499 48.9858C211.158 49.9574 210.988 51.044 210.988 52.2457C210.988 53.4389 211.158 54.5213 211.499 55.4929C211.848 56.4645 212.373 57.2401 213.071 57.8196C213.779 58.3906 214.665 58.6761 215.73 58.6761ZM238.847 42.3636V45.9432H227.559V42.3636H238.847ZM230.346 37.6591H234.974V56.0938C234.974 56.7159 235.067 57.1932 235.255 57.5256C235.451 57.8494 235.707 58.071 236.022 58.1903C236.337 58.3097 236.687 58.3693 237.07 58.3693C237.36 58.3693 237.624 58.348 237.863 58.3054C238.11 58.2628 238.298 58.2244 238.425 58.1903L239.205 61.8082C238.958 61.8935 238.604 61.9872 238.144 62.0895C237.692 62.1918 237.138 62.2514 236.482 62.2685C235.323 62.3026 234.279 62.1278 233.35 61.7443C232.421 61.3523 231.684 60.7472 231.138 59.929C230.602 59.1108 230.337 58.0881 230.346 56.8608V37.6591ZM251.072 62.3835C249.154 62.3835 247.493 61.9616 246.086 61.1179C244.68 60.2741 243.589 59.0937 242.814 57.5767C242.047 56.0597 241.663 54.2869 241.663 52.2585C241.663 50.2301 242.047 48.4531 242.814 46.9276C243.589 45.402 244.68 44.2173 246.086 43.3736C247.493 42.5298 249.154 42.108 251.072 42.108C252.99 42.108 254.652 42.5298 256.058 43.3736C257.464 44.2173 258.551 45.402 259.318 46.9276C260.093 48.4531 260.481 50.2301 260.481 52.2585C260.481 54.2869 260.093 56.0597 259.318 57.5767C258.551 59.0937 257.464 60.2741 256.058 61.1179C254.652 61.9616 252.99 62.3835 251.072 62.3835ZM251.098 58.6761C252.137 58.6761 253.007 58.3906 253.706 57.8196C254.404 57.2401 254.924 56.4645 255.265 55.4929C255.615 54.5213 255.789 53.4389 255.789 52.2457C255.789 51.044 255.615 49.9574 255.265 48.9858C254.924 48.0057 254.404 47.2259 253.706 46.6463C253.007 46.0668 252.137 45.777 251.098 45.777C250.032 45.777 249.146 46.0668 248.439 46.6463C247.74 47.2259 247.216 48.0057 246.866 48.9858C246.525 49.9574 246.355 51.044 246.355 52.2457C246.355 53.4389 246.525 54.5213 246.866 55.4929C247.216 56.4645 247.74 57.2401 248.439 57.8196C249.146 58.3906 250.032 58.6761 251.098 58.6761ZM272.974 62.3835C271.014 62.3835 269.331 61.9531 267.925 61.0923C266.527 60.2315 265.449 59.0426 264.69 57.5256C263.94 56 263.565 54.2443 263.565 52.2585C263.565 50.2642 263.949 48.5043 264.716 46.9787C265.483 45.4446 266.565 44.2514 267.963 43.3991C269.369 42.5384 271.031 42.108 272.949 42.108C274.543 42.108 275.953 42.402 277.18 42.9901C278.416 43.5696 279.401 44.392 280.134 45.4574C280.866 46.5142 281.284 47.75 281.386 49.1648H276.963C276.784 48.2187 276.358 47.4304 275.685 46.7997C275.02 46.1605 274.129 45.8409 273.013 45.8409C272.067 45.8409 271.236 46.0966 270.52 46.608C269.804 47.1108 269.246 47.8352 268.845 48.7812C268.453 49.7273 268.257 50.8608 268.257 52.1818C268.257 53.5199 268.453 54.6705 268.845 55.6335C269.237 56.5881 269.787 57.3253 270.494 57.8452C271.21 58.3565 272.05 58.6122 273.013 58.6122C273.695 58.6122 274.304 58.4844 274.841 58.2287C275.386 57.9645 275.842 57.5852 276.209 57.0909C276.575 56.5966 276.827 55.9957 276.963 55.2884H281.386C281.276 56.6776 280.866 57.9091 280.159 58.983C279.452 60.0483 278.489 60.8835 277.27 61.4886C276.051 62.0852 274.619 62.3835 272.974 62.3835ZM293.752 62.3835C291.834 62.3835 290.172 61.9616 288.766 61.1179C287.36 60.2741 286.269 59.0937 285.493 57.5767C284.726 56.0597 284.343 54.2869 284.343 52.2585C284.343 50.2301 284.726 48.4531 285.493 46.9276C286.269 45.402 287.36 44.2173 288.766 43.3736C290.172 42.5298 291.834 42.108 293.752 42.108C295.669 42.108 297.331 42.5298 298.738 43.3736C300.144 44.2173 301.23 45.402 301.998 46.9276C302.773 48.4531 303.161 50.2301 303.161 52.2585C303.161 54.2869 302.773 56.0597 301.998 57.5767C301.23 59.0937 300.144 60.2741 298.738 61.1179C297.331 61.9616 295.669 62.3835 293.752 62.3835ZM293.777 58.6761C294.817 58.6761 295.686 58.3906 296.385 57.8196C297.084 57.2401 297.604 56.4645 297.945 55.4929C298.294 54.5213 298.469 53.4389 298.469 52.2457C298.469 51.044 298.294 49.9574 297.945 48.9858C297.604 48.0057 297.084 47.2259 296.385 46.6463C295.686 46.0668 294.817 45.777 293.777 45.777C292.712 45.777 291.826 46.0668 291.118 46.6463C290.419 47.2259 289.895 48.0057 289.546 48.9858C289.205 49.9574 289.034 51.044 289.034 52.2457C289.034 53.4389 289.205 54.5213 289.546 55.4929C289.895 56.4645 290.419 57.2401 291.118 57.8196C291.826 58.3906 292.712 58.6761 293.777 58.6761ZM311.717 35.8182V62H307.089V35.8182H311.717ZM331.995 47.554L327.777 48.0142C327.657 47.5881 327.449 47.1875 327.15 46.8125C326.86 46.4375 326.468 46.1349 325.974 45.9048C325.48 45.6747 324.875 45.5597 324.159 45.5597C323.196 45.5597 322.386 45.7685 321.73 46.1861C321.082 46.6037 320.762 47.1449 320.771 47.8097C320.762 48.3807 320.971 48.8452 321.397 49.2031C321.832 49.5611 322.548 49.8551 323.545 50.0852L326.895 50.8011C328.752 51.2017 330.133 51.8366 331.037 52.706C331.949 53.5753 332.409 54.7131 332.417 56.1193C332.409 57.3551 332.047 58.446 331.331 59.392C330.623 60.3295 329.639 61.0625 328.377 61.5909C327.116 62.1193 325.667 62.3835 324.031 62.3835C321.627 62.3835 319.693 61.8807 318.227 60.875C316.761 59.8608 315.887 58.4503 315.606 56.6435L320.119 56.2088C320.324 57.0952 320.758 57.7642 321.423 58.2159C322.088 58.6676 322.953 58.8935 324.018 58.8935C325.118 58.8935 326 58.6676 326.664 58.2159C327.338 57.7642 327.674 57.206 327.674 56.5412C327.674 55.9787 327.457 55.5142 327.022 55.1477C326.596 54.7812 325.931 54.5 325.028 54.304L321.679 53.6009C319.795 53.2088 318.402 52.5483 317.498 51.6193C316.595 50.6818 316.147 49.4972 316.156 48.0653C316.147 46.8551 316.475 45.8068 317.14 44.9205C317.814 44.0256 318.747 43.3352 319.94 42.8494C321.142 42.3551 322.527 42.108 324.095 42.108C326.396 42.108 328.207 42.598 329.528 43.5781C330.858 44.5582 331.68 45.8835 331.995 47.554Z" fill="url(#paint2_linear_638_34)"/>
</g>
<defs>
<filter id="filter0_d_638_34" x="28.582" y="34.5527" width="307.836" height="42.8105" filterUnits="userSpaceOnUse" color-interpolation-filters="sRGB">
<feFlood flood-opacity="0" result="BackgroundImageFix"/>
<feColorMatrix in="SourceAlpha" type="matrix" values="0 0 0 0 0 0 0 0 0 0 0 0 0 0 0 0 0 0 127 0" result="hardAlpha"/>
<feOffset dy="4"/>
<feGaussianBlur stdDeviation="2"/>
<feComposite in2="hardAlpha" operator="out"/>
<feColorMatrix type="matrix" values="0 0 0 0 1 0 0 0 0 1 0 0 0 0 1 0 0 0 0.21 0"/>
<feBlend mode="normal" in2="BackgroundImageFix" result="effect1_dropShadow_638_34"/>
<feBlend mode="normal" in="SourceGraphic" in2="effect1_dropShadow_638_34" result="shape"/>
</filter>
<linearGradient id="paint0_linear_638_34" x1="184.5" y1="0" x2="184.5" y2="98" gradientUnits="userSpaceOnUse">
<stop stop-color="#D9D9D9"/>
<stop offset="1" stop-color="#737373"/>
</linearGradient>
<linearGradient id="paint1_linear_638_34" x1="127.191" y1="-7.11291" x2="163.582" y2="104.802" gradientUnits="userSpaceOnUse">
<stop stop-color="#93C5FF"/>
<stop offset="0.5" stop-color="#030D19"/>
<stop offset="0.75" stop-color="white"/>
<stop offset="1" stop-color="#0075FF"/>
</linearGradient>
<linearGradient id="paint2_linear_638_34" x1="317.342" y1="16.3333" x2="2.94406" y2="129.073" gradientUnits="userSpaceOnUse">
<stop stop-color="#7276AC"/>
<stop offset="0.482483" stop-color="#AAAFF3"/>
<stop offset="1" stop-color="#7276AC"/>
</linearGradient>
</defs>
</svg>
