<svg width="224" height="65" viewBox="0 0 224 65" fill="none" xmlns="http://www.w3.org/2000/svg">
<path d="M81.399 24.255C80.8091 24.0583 79.5637 23.9271 78.3181 23.9271C74.5813 23.9271 70.5825 26.954 70.5825 30.6906V48.5101H62.0605V16.7162H70.2548V19.9283C72.1559 17.5684 75.6301 16.0605 79.498 16.0605C80.4651 16.0675 81.43 16.1552 82.3825 16.3228L81.399 24.255Z" fill="#CAD2D9"/>
<path d="M91.0351 0C94.1162 0 96.6072 2.35996 96.6072 5.44107C96.6072 8.52219 94.1163 10.882 91.0351 10.882C87.9539 10.882 85.4629 8.52219 85.4629 5.44107C85.4629 2.35996 87.9541 0 91.0351 0ZM95.2961 48.5104H86.7741V16.7165H95.2961V48.5104Z" fill="#CAD2D9"/>
<path d="M120.469 16.0598C117.087 16.0169 113.796 17.1538 111.161 19.275V16.7167H102.965V64.2424H111.488V46.2825C113.911 48.1973 116.922 49.2163 120.011 49.1675C124.731 49.1675 129.253 47.068 132.072 43.7903C134.564 40.9053 136.069 36.9741 136.069 32.6467C136.069 23.2722 129.121 16.0598 120.469 16.0598ZM119.434 41.4302C114.14 41.4302 110.66 37.777 110.66 32.6744C110.66 27.5718 114.14 23.9187 119.434 23.9187C123.952 23.9187 127.616 27.8395 127.616 32.6744C127.616 37.5094 123.952 41.4302 119.434 41.4302Z" fill="#CAD2D9"/>
<path d="M187.792 48.5106H179.27V1.9668H187.792V48.5106Z" fill="#CAD2D9"/>
<path d="M222.536 43.4624C219.455 47.1334 214.407 49.1656 209.491 49.1656C199.985 49.1656 192.84 42.6104 192.84 32.646C192.84 23.7961 198.871 16.0605 208.311 16.0605C217.095 16.0605 223.323 23.4682 223.323 32.3181C223.328 33.1308 223.262 33.9424 223.126 34.7437H201.1C201.559 39.2013 205.164 42.2824 209.688 42.2824C213.293 42.2824 216.177 40.2502 217.685 38.6114L222.536 43.4624ZM214.604 28.5161C214.342 25.6972 211.785 22.9439 208.311 22.9439C204.771 22.9439 201.887 25.6318 201.493 28.5161H214.604Z" fill="#CAD2D9"/>
<path d="M158.624 16.0598C155.242 16.017 151.95 17.1539 149.315 19.2749V16.7167H141.119V64.2424H149.642V46.2825C152.066 48.1973 155.076 49.2163 158.165 49.1675C162.885 49.1675 167.407 47.068 170.226 43.7903C172.718 40.9053 174.223 36.9741 174.223 32.6466C174.223 23.2722 167.275 16.0598 158.624 16.0598ZM157.588 41.4302C152.294 41.4302 148.815 37.777 148.815 32.6744C148.815 27.5718 152.294 23.9187 157.588 23.9187C162.106 23.9187 165.77 27.8394 165.77 32.6744C165.77 37.5094 162.106 41.4302 157.588 41.4302Z" fill="#CAD2D9"/>
<path d="M44.4917 36.9275C42.5676 35.8165 40.4007 35.4945 38.2545 35.4195C36.4538 35.3567 33.7672 34.2027 33.7672 30.927C33.7672 28.4864 35.7457 26.5221 38.2554 26.4345C40.4015 26.3595 42.5681 26.0371 44.4917 24.9265C46.2196 23.9289 47.6545 22.4941 48.6521 20.7662C49.6497 19.0383 50.1749 17.0782 50.1748 15.083C50.1748 13.0878 49.6496 11.1277 48.652 9.39982C47.6544 7.67193 46.2195 6.23708 44.4916 5.2395C42.7637 4.24192 40.8036 3.71676 38.8084 3.7168C36.8132 3.71684 34.8531 4.24208 33.1252 5.23973C31.3974 6.23738 29.9625 7.67228 28.965 9.40021C27.9674 11.1281 27.4423 13.0882 27.4424 15.0834C27.4424 17.2856 28.2256 19.3122 29.225 21.1918C30.0656 22.7727 30.4908 25.7068 27.608 27.3712C25.4634 28.6093 22.787 27.8253 21.4502 25.6858C20.321 23.8788 18.9578 22.1856 17.0493 21.0835C15.3214 20.0859 13.3614 19.5607 11.3662 19.5607C9.37104 19.5607 7.411 20.0859 5.68311 21.0835C3.95523 22.0811 2.52038 23.5159 1.52279 25.2438C0.525191 26.9717 0 28.9317 0 30.9269C0 32.9221 0.525191 34.8821 1.52279 36.61C2.52038 38.3379 3.95523 39.7727 5.68311 40.7703C7.411 41.7679 9.37104 42.2931 11.3662 42.2931C13.3614 42.2931 15.3214 41.7679 17.0493 40.7703C18.9573 39.6687 20.3205 37.9766 21.449 36.1706C22.3757 34.6876 24.6901 32.7972 27.6079 34.483C29.7491 35.7202 30.4111 38.4308 29.224 40.6635C28.2248 42.5429 27.4425 44.569 27.4425 46.7708C27.4425 48.766 27.9677 50.726 28.9653 52.4538C29.9629 54.1817 31.3977 55.6165 33.1256 56.6141C34.8534 57.6117 36.8134 58.1369 38.8086 58.1369C40.8038 58.1369 42.7638 57.6117 44.4916 56.6141C46.2195 55.6165 47.6543 54.1817 48.6519 52.4539C49.6495 50.726 50.1747 48.766 50.1747 46.7708C50.1747 44.7757 49.6495 42.8156 48.6519 41.0878C47.6544 39.3599 46.2195 37.9251 44.4917 36.9275Z" fill="url(#paint0_linear_638_11)"/>
<defs>
<linearGradient id="paint0_linear_638_11" x1="14.1503" y1="12.068" x2="51.868" y2="49.7857" gradientUnits="userSpaceOnUse">
<stop stop-color="#00AAE4"/>
<stop offset="1" stop-color="#006097"/>
</linearGradient>
</defs>
</svg>
