<svg width="349" height="98" viewBox="0 0 349 98" fill="none" xmlns="http://www.w3.org/2000/svg">
<path d="M3.5 33C3.5 16.7076 16.7076 3.5 33 3.5H168.278H316C332.292 3.5 345.5 16.7076 345.5 33V65C345.5 81.2924 332.292 94.5 316 94.5H33C16.7076 94.5 3.5 81.2924 3.5 65V33Z" fill="url(#paint0_linear_638_31)" fill-opacity="0.2" stroke="url(#paint1_linear_638_31)" stroke-width="7"/>
<g filter="url(#filter0_d_638_31)">
<path d="M46.8111 43.0156C46.6918 41.8991 46.1889 41.0298 45.3026 40.4077C44.4247 39.7855 43.2827 39.4744 41.8764 39.4744C40.8878 39.4744 40.0398 39.6236 39.3324 39.9219C38.625 40.2202 38.0838 40.625 37.7088 41.1364C37.3338 41.6477 37.142 42.2315 37.1335 42.8878C37.1335 43.4332 37.2571 43.9062 37.5043 44.3068C37.7599 44.7074 38.1051 45.0483 38.5398 45.3295C38.9744 45.6023 39.456 45.8324 39.9844 46.0199C40.5128 46.2074 41.0455 46.3651 41.5824 46.4929L44.0369 47.1065C45.0256 47.3366 45.9759 47.6477 46.8878 48.0398C47.8082 48.4318 48.6307 48.9261 49.3551 49.5227C50.0881 50.1193 50.6676 50.8395 51.0938 51.6832C51.5199 52.527 51.733 53.5156 51.733 54.6491C51.733 56.1832 51.3409 57.5341 50.5568 58.7017C49.7727 59.8608 48.6392 60.7685 47.1562 61.4247C45.6818 62.0724 43.8963 62.3963 41.7997 62.3963C39.7628 62.3963 37.9943 62.081 36.4943 61.4503C35.0028 60.8196 33.8352 59.8991 32.9915 58.6889C32.1563 57.4787 31.7045 56.0043 31.6364 54.2656H36.3026C36.3707 55.1776 36.652 55.9361 37.1463 56.5412C37.6406 57.1463 38.2841 57.598 39.0767 57.8963C39.8778 58.1946 40.7727 58.3438 41.7614 58.3438C42.7926 58.3438 43.696 58.1903 44.4716 57.8835C45.2557 57.5682 45.8693 57.1335 46.3125 56.5795C46.7557 56.017 46.9815 55.3608 46.9901 54.6108C46.9815 53.929 46.7813 53.3665 46.3892 52.9233C45.9972 52.4716 45.4474 52.0966 44.7401 51.7983C44.0412 51.4915 43.223 51.2187 42.2855 50.9801L39.3068 50.2131C37.1506 49.6591 35.446 48.8196 34.1932 47.6946C32.9489 46.5611 32.3267 45.0568 32.3267 43.1818C32.3267 41.6392 32.7443 40.2884 33.5795 39.1293C34.4233 37.9702 35.5696 37.071 37.0185 36.4318C38.4673 35.7841 40.108 35.4602 41.9403 35.4602C43.7983 35.4602 45.4261 35.7841 46.8239 36.4318C48.2301 37.071 49.3338 37.9616 50.1349 39.1037C50.9361 40.2372 51.3494 41.5412 51.375 43.0156H46.8111ZM55.7567 62V42.3636H60.18V45.7003H60.4102C60.8192 44.5753 61.4968 43.6974 62.4428 43.0668C63.3888 42.4276 64.5181 42.108 65.8306 42.108C67.1602 42.108 68.2809 42.4318 69.1928 43.0795C70.1133 43.7187 70.761 44.5923 71.136 45.7003H71.3406C71.7752 44.6094 72.5082 43.7401 73.5394 43.0923C74.5792 42.4361 75.8107 42.108 77.234 42.108C79.0408 42.108 80.5153 42.679 81.6573 43.821C82.7994 44.9631 83.3704 46.6293 83.3704 48.8196V62H78.7298V49.5355C78.7298 48.3168 78.4059 47.4261 77.7582 46.8636C77.1104 46.2926 76.3178 46.0071 75.3803 46.0071C74.2638 46.0071 73.3903 46.3565 72.7596 47.0554C72.1374 47.7457 71.8264 48.6449 71.8264 49.7528V62H67.288V49.3438C67.288 48.3295 66.9812 47.5199 66.3675 46.9148C65.7624 46.3097 64.9698 46.0071 63.9897 46.0071C63.3249 46.0071 62.7198 46.1776 62.1744 46.5185C61.6289 46.8509 61.1942 47.3239 60.8704 47.9375C60.5465 48.5426 60.3846 49.25 60.3846 50.0597V62H55.7567ZM93.7159 62.3963C92.4716 62.3963 91.3509 62.1747 90.3537 61.7315C89.3651 61.2798 88.581 60.6151 88.0014 59.7372C87.4304 58.8594 87.1449 57.777 87.1449 56.4901C87.1449 55.3821 87.3494 54.4659 87.7585 53.7415C88.1676 53.017 88.7259 52.4375 89.4332 52.0028C90.1406 51.5682 90.9375 51.2401 91.8239 51.0185C92.7188 50.7884 93.6435 50.6222 94.598 50.5199C95.7486 50.4006 96.6818 50.294 97.3977 50.2003C98.1136 50.098 98.6335 49.9446 98.9574 49.7401C99.2898 49.527 99.456 49.1989 99.456 48.7557V48.679C99.456 47.7159 99.1705 46.9702 98.5994 46.4418C98.0284 45.9134 97.206 45.6491 96.1321 45.6491C94.9986 45.6491 94.0994 45.8963 93.4347 46.3906C92.7784 46.8849 92.3352 47.4687 92.1051 48.142L87.7841 47.5284C88.125 46.3352 88.6875 45.3381 89.4716 44.5369C90.2557 43.7273 91.2145 43.1222 92.348 42.7216C93.4815 42.3125 94.7344 42.108 96.1065 42.108C97.0526 42.108 97.9943 42.2188 98.9318 42.4403C99.8693 42.6619 100.726 43.0284 101.501 43.5398C102.277 44.0426 102.899 44.7287 103.368 45.598C103.845 46.4673 104.084 47.554 104.084 48.858V62H99.6349V59.3026H99.4815C99.2003 59.848 98.804 60.3594 98.2926 60.8366C97.7898 61.3054 97.1548 61.6847 96.3878 61.9744C95.6293 62.2557 94.7386 62.3963 93.7159 62.3963ZM94.9176 58.9957C95.8466 58.9957 96.652 58.8125 97.3338 58.446C98.0156 58.071 98.5398 57.5767 98.9062 56.9631C99.2812 56.3494 99.4688 55.6804 99.4688 54.956V52.642C99.3239 52.7614 99.0767 52.8722 98.7273 52.9744C98.3864 53.0767 98.0028 53.1662 97.5767 53.2429C97.1506 53.3196 96.7287 53.3878 96.3111 53.4474C95.8935 53.5071 95.5313 53.5582 95.2244 53.6009C94.5341 53.6946 93.9162 53.848 93.3707 54.0611C92.8253 54.2741 92.3949 54.5724 92.0795 54.956C91.7642 55.331 91.6065 55.8168 91.6065 56.4134C91.6065 57.2656 91.9176 57.9091 92.5398 58.3438C93.1619 58.7784 93.9545 58.9957 94.9176 58.9957ZM108.737 62V42.3636H113.224V45.6364H113.429C113.787 44.5028 114.401 43.6293 115.27 43.0156C116.148 42.3935 117.149 42.0824 118.274 42.0824C118.53 42.0824 118.815 42.0952 119.131 42.1207C119.455 42.1378 119.723 42.1676 119.936 42.2102V46.4673C119.74 46.3991 119.429 46.3395 119.003 46.2884C118.585 46.2287 118.18 46.1989 117.788 46.1989C116.945 46.1989 116.186 46.3821 115.513 46.7486C114.848 47.1065 114.324 47.6051 113.94 48.2443C113.557 48.8835 113.365 49.6207 113.365 50.456V62H108.737ZM133.871 42.3636V45.9432H122.582V42.3636H133.871ZM125.369 37.6591H129.997V56.0938C129.997 56.7159 130.091 57.1932 130.278 57.5256C130.474 57.8494 130.73 58.071 131.045 58.1903C131.361 58.3097 131.71 58.3693 132.094 58.3693C132.384 58.3693 132.648 58.348 132.886 58.3054C133.134 58.2628 133.321 58.2244 133.449 58.1903L134.229 61.8082C133.982 61.8935 133.628 61.9872 133.168 62.0895C132.716 62.1918 132.162 62.2514 131.506 62.2685C130.347 62.3026 129.303 62.1278 128.374 61.7443C127.445 61.3523 126.707 60.7472 126.162 59.929C125.625 59.1108 125.361 58.0881 125.369 56.8608V37.6591ZM169.286 44.652H164.505C164.368 43.8679 164.117 43.1733 163.75 42.5682C163.384 41.9545 162.928 41.4347 162.382 41.0085C161.837 40.5824 161.215 40.2628 160.516 40.0497C159.826 39.8281 159.08 39.7173 158.279 39.7173C156.855 39.7173 155.594 40.0753 154.495 40.7912C153.395 41.4986 152.534 42.5384 151.912 43.9105C151.29 45.2741 150.979 46.9403 150.979 48.9091C150.979 50.9119 151.29 52.5994 151.912 53.9716C152.543 55.3352 153.404 56.3665 154.495 57.0653C155.594 57.7557 156.851 58.1009 158.266 58.1009C159.05 58.1009 159.783 57.9986 160.465 57.794C161.155 57.581 161.773 57.2699 162.319 56.8608C162.873 56.4517 163.337 55.9489 163.712 55.3523C164.096 54.7557 164.36 54.0739 164.505 53.3068L169.286 53.3324C169.107 54.5767 168.719 55.7443 168.123 56.8352C167.534 57.9261 166.763 58.8892 165.809 59.7244C164.854 60.5511 163.738 61.1989 162.459 61.6676C161.181 62.1278 159.762 62.358 158.202 62.358C155.901 62.358 153.847 61.8253 152.04 60.7599C150.233 59.6946 148.81 58.1562 147.77 56.1449C146.73 54.1335 146.211 51.7216 146.211 48.9091C146.211 46.0881 146.735 43.6761 147.783 41.6733C148.831 39.6619 150.259 38.1236 152.066 37.0582C153.873 35.9929 155.918 35.4602 158.202 35.4602C159.659 35.4602 161.015 35.6648 162.267 36.0739C163.52 36.483 164.637 37.0838 165.617 37.8764C166.597 38.6605 167.402 39.6236 168.033 40.7656C168.672 41.8991 169.09 43.1946 169.286 44.652ZM181.99 62.3835C180.072 62.3835 178.411 61.9616 177.004 61.1179C175.598 60.2741 174.507 59.0937 173.732 57.5767C172.964 56.0597 172.581 54.2869 172.581 52.2585C172.581 50.2301 172.964 48.4531 173.732 46.9276C174.507 45.402 175.598 44.2173 177.004 43.3736C178.411 42.5298 180.072 42.108 181.99 42.108C183.908 42.108 185.57 42.5298 186.976 43.3736C188.382 44.2173 189.469 45.402 190.236 46.9276C191.011 48.4531 191.399 50.2301 191.399 52.2585C191.399 54.2869 191.011 56.0597 190.236 57.5767C189.469 59.0937 188.382 60.2741 186.976 61.1179C185.57 61.9616 183.908 62.3835 181.99 62.3835ZM182.016 58.6761C183.055 58.6761 183.925 58.3906 184.624 57.8196C185.322 57.2401 185.842 56.4645 186.183 55.4929C186.533 54.5213 186.707 53.4389 186.707 52.2457C186.707 51.044 186.533 49.9574 186.183 48.9858C185.842 48.0057 185.322 47.2259 184.624 46.6463C183.925 46.0668 183.055 45.777 182.016 45.777C180.95 45.777 180.064 46.0668 179.357 46.6463C178.658 47.2259 178.134 48.0057 177.784 48.9858C177.443 49.9574 177.273 51.044 177.273 52.2457C177.273 53.4389 177.443 54.5213 177.784 55.4929C178.134 56.4645 178.658 57.2401 179.357 57.8196C180.064 58.3906 180.95 58.6761 182.016 58.6761ZM199.955 50.4943V62H195.327V42.3636H199.75V45.7003H199.98C200.432 44.6009 201.152 43.7273 202.141 43.0795C203.138 42.4318 204.37 42.108 205.836 42.108C207.191 42.108 208.371 42.3977 209.377 42.9773C210.391 43.5568 211.175 44.3963 211.729 45.4957C212.292 46.5952 212.569 47.929 212.56 49.4972V62H207.932V50.2131C207.932 48.9006 207.591 47.8736 206.909 47.1321C206.236 46.3906 205.303 46.0199 204.11 46.0199C203.3 46.0199 202.58 46.1989 201.949 46.5568C201.327 46.9062 200.837 47.4134 200.479 48.0781C200.13 48.7429 199.955 49.5483 199.955 50.4943ZM227.07 42.3636V45.9432H215.782V42.3636H227.07ZM218.569 37.6591H223.196V56.0938C223.196 56.7159 223.29 57.1932 223.478 57.5256C223.674 57.8494 223.929 58.071 224.245 58.1903C224.56 58.3097 224.909 58.3693 225.293 58.3693C225.583 58.3693 225.847 58.348 226.086 58.3054C226.333 58.2628 226.52 58.2244 226.648 58.1903L227.428 61.8082C227.181 61.8935 226.827 61.9872 226.367 62.0895C225.915 62.1918 225.361 62.2514 224.705 62.2685C223.546 62.3026 222.502 62.1278 221.573 61.7443C220.644 61.3523 219.907 60.7472 219.361 59.929C218.824 59.1108 218.56 58.0881 218.569 56.8608V37.6591ZM230.94 62V42.3636H235.428V45.6364H235.632C235.99 44.5028 236.604 43.6293 237.473 43.0156C238.351 42.3935 239.352 42.0824 240.477 42.0824C240.733 42.0824 241.018 42.0952 241.334 42.1207C241.658 42.1378 241.926 42.1676 242.139 42.2102V46.4673C241.943 46.3991 241.632 46.3395 241.206 46.2884C240.788 46.2287 240.384 46.1989 239.991 46.1989C239.148 46.1989 238.389 46.3821 237.716 46.7486C237.051 47.1065 236.527 47.6051 236.143 48.2443C235.76 48.8835 235.568 49.6207 235.568 50.456V62H230.94ZM250.513 62.3963C249.268 62.3963 248.148 62.1747 247.151 61.7315C246.162 61.2798 245.378 60.6151 244.798 59.7372C244.227 58.8594 243.942 57.777 243.942 56.4901C243.942 55.3821 244.146 54.4659 244.555 53.7415C244.964 53.017 245.523 52.4375 246.23 52.0028C246.938 51.5682 247.734 51.2401 248.621 51.0185C249.516 50.7884 250.44 50.6222 251.395 50.5199C252.545 50.4006 253.479 50.294 254.195 50.2003C254.911 50.098 255.43 49.9446 255.754 49.7401C256.087 49.527 256.253 49.1989 256.253 48.7557V48.679C256.253 47.7159 255.967 46.9702 255.396 46.4418C254.825 45.9134 254.003 45.6491 252.929 45.6491C251.795 45.6491 250.896 45.8963 250.232 46.3906C249.575 46.8849 249.132 47.4687 248.902 48.142L244.581 47.5284C244.922 46.3352 245.484 45.3381 246.268 44.5369C247.053 43.7273 248.011 43.1222 249.145 42.7216C250.278 42.3125 251.531 42.108 252.903 42.108C253.849 42.108 254.791 42.2188 255.729 42.4403C256.666 42.6619 257.523 43.0284 258.298 43.5398C259.074 44.0426 259.696 44.7287 260.165 45.598C260.642 46.4673 260.881 47.554 260.881 48.858V62H256.432V59.3026H256.278C255.997 59.848 255.601 60.3594 255.089 60.8366C254.587 61.3054 253.952 61.6847 253.185 61.9744C252.426 62.2557 251.536 62.3963 250.513 62.3963ZM251.714 58.9957C252.643 58.9957 253.449 58.8125 254.131 58.446C254.813 58.071 255.337 57.5767 255.703 56.9631C256.078 56.3494 256.266 55.6804 256.266 54.956V52.642C256.121 52.7614 255.874 52.8722 255.524 52.9744C255.183 53.0767 254.8 53.1662 254.374 53.2429C253.947 53.3196 253.526 53.3878 253.108 53.4474C252.69 53.5071 252.328 53.5582 252.021 53.6009C251.331 53.6946 250.713 53.848 250.168 54.0611C249.622 54.2741 249.192 54.5724 248.876 54.956C248.561 55.331 248.403 55.8168 248.403 56.4134C248.403 57.2656 248.714 57.9091 249.337 58.3438C249.959 58.7784 250.751 58.9957 251.714 58.9957ZM274.099 62.3835C272.139 62.3835 270.456 61.9531 269.05 61.0923C267.652 60.2315 266.574 59.0426 265.815 57.5256C265.065 56 264.69 54.2443 264.69 52.2585C264.69 50.2642 265.074 48.5043 265.841 46.9787C266.608 45.4446 267.69 44.2514 269.088 43.3991C270.494 42.5384 272.156 42.108 274.074 42.108C275.668 42.108 277.078 42.402 278.305 42.9901C279.541 43.5696 280.526 44.392 281.259 45.4574C281.991 46.5142 282.409 47.75 282.511 49.1648H278.088C277.909 48.2187 277.483 47.4304 276.81 46.7997C276.145 46.1605 275.254 45.8409 274.138 45.8409C273.192 45.8409 272.361 46.0966 271.645 46.608C270.929 47.1108 270.371 47.8352 269.97 48.7812C269.578 49.7273 269.382 50.8608 269.382 52.1818C269.382 53.5199 269.578 54.6705 269.97 55.6335C270.362 56.5881 270.912 57.3253 271.619 57.8452C272.335 58.3565 273.175 58.6122 274.138 58.6122C274.82 58.6122 275.429 58.4844 275.966 58.2287C276.511 57.9645 276.967 57.5852 277.334 57.0909C277.7 56.5966 277.952 55.9957 278.088 55.2884H282.511C282.401 56.6776 281.991 57.9091 281.284 58.983C280.577 60.0483 279.614 60.8835 278.395 61.4886C277.176 62.0852 275.744 62.3835 274.099 62.3835ZM296.117 42.3636V45.9432H284.828V42.3636H296.117ZM287.615 37.6591H292.243V56.0938C292.243 56.7159 292.337 57.1932 292.525 57.5256C292.721 57.8494 292.976 58.071 293.292 58.1903C293.607 58.3097 293.956 58.3693 294.34 58.3693C294.63 58.3693 294.894 58.348 295.132 58.3054C295.38 58.2628 295.567 58.2244 295.695 58.1903L296.475 61.8082C296.228 61.8935 295.874 61.9872 295.414 62.0895C294.962 62.1918 294.408 62.2514 293.752 62.2685C292.593 62.3026 291.549 62.1278 290.62 61.7443C289.691 61.3523 288.953 60.7472 288.408 59.929C287.871 59.1108 287.607 58.0881 287.615 56.8608V37.6591ZM315.226 47.554L311.007 48.0142C310.888 47.5881 310.679 47.1875 310.381 46.8125C310.091 46.4375 309.699 46.1349 309.205 45.9048C308.71 45.6747 308.105 45.5597 307.389 45.5597C306.426 45.5597 305.616 45.7685 304.96 46.1861C304.312 46.6037 303.993 47.1449 304.001 47.8097C303.993 48.3807 304.202 48.8452 304.628 49.2031C305.063 49.5611 305.778 49.8551 306.776 50.0852L310.125 50.8011C311.983 51.2017 313.364 51.8366 314.267 52.706C315.179 53.5753 315.639 54.7131 315.648 56.1193C315.639 57.3551 315.277 58.446 314.561 59.392C313.854 60.3295 312.869 61.0625 311.608 61.5909C310.347 62.1193 308.898 62.3835 307.261 62.3835C304.858 62.3835 302.923 61.8807 301.457 60.875C299.991 59.8608 299.118 58.4503 298.837 56.6435L303.349 56.2088C303.554 57.0952 303.989 57.7642 304.653 58.2159C305.318 58.6676 306.183 58.8935 307.249 58.8935C308.348 58.8935 309.23 58.6676 309.895 58.2159C310.568 57.7642 310.905 57.206 310.905 56.5412C310.905 55.9787 310.688 55.5142 310.253 55.1477C309.827 54.7812 309.162 54.5 308.259 54.304L304.909 53.6009C303.026 53.2088 301.632 52.5483 300.729 51.6193C299.825 50.6818 299.378 49.4972 299.386 48.0653C299.378 46.8551 299.706 45.8068 300.371 44.9205C301.044 44.0256 301.977 43.3352 303.17 42.8494C304.372 42.3551 305.757 42.108 307.325 42.108C309.626 42.108 311.438 42.598 312.759 43.5781C314.088 44.5582 314.911 45.8835 315.226 47.554Z" fill="url(#paint2_linear_638_31)"/>
</g>
<defs>
<filter id="filter0_d_638_31" x="27.6367" y="35.4609" width="292.012" height="34.9355" filterUnits="userSpaceOnUse" color-interpolation-filters="sRGB">
<feFlood flood-opacity="0" result="BackgroundImageFix"/>
<feColorMatrix in="SourceAlpha" type="matrix" values="0 0 0 0 0 0 0 0 0 0 0 0 0 0 0 0 0 0 127 0" result="hardAlpha"/>
<feOffset dy="4"/>
<feGaussianBlur stdDeviation="2"/>
<feComposite in2="hardAlpha" operator="out"/>
<feColorMatrix type="matrix" values="0 0 0 0 1 0 0 0 0 1 0 0 0 0 1 0 0 0 0.21 0"/>
<feBlend mode="normal" in2="BackgroundImageFix" result="effect1_dropShadow_638_31"/>
<feBlend mode="normal" in="SourceGraphic" in2="effect1_dropShadow_638_31" result="shape"/>
</filter>
<linearGradient id="paint0_linear_638_31" x1="174.5" y1="0" x2="174.5" y2="98" gradientUnits="userSpaceOnUse">
<stop stop-color="#D9D9D9"/>
<stop offset="1" stop-color="#737373"/>
</linearGradient>
<linearGradient id="paint1_linear_638_31" x1="120.297" y1="-7.11291" x2="158.345" y2="103.554" gradientUnits="userSpaceOnUse">
<stop stop-color="#93C5FF"/>
<stop offset="0.5" stop-color="#030D19"/>
<stop offset="0.75" stop-color="white"/>
<stop offset="1" stop-color="#0075FF"/>
</linearGradient>
<linearGradient id="paint2_linear_638_31" x1="302.219" y1="16.3333" x2="0.848801" y2="118.713" gradientUnits="userSpaceOnUse">
<stop stop-color="#7276AC"/>
<stop offset="0.482483" stop-color="#AAAFF3"/>
<stop offset="1" stop-color="#7276AC"/>
</linearGradient>
</defs>
</svg>
