<svg width="222" height="33" viewBox="0 0 222 33" fill="none" xmlns="http://www.w3.org/2000/svg">
<mask id="mask0_638_7" style="mask-type:luminance" maskUnits="userSpaceOnUse" x="0" y="0" width="222" height="33">
<path d="M221.343 0H0V32.8931H221.343V0Z" fill="white"/>
</mask>
<g mask="url(#mask0_638_7)">
<path d="M37.186 25.9343L31.1144 32.4444C30.9831 32.5858 30.8241 32.6987 30.6472 32.7759C30.4704 32.8531 30.2795 32.8931 30.0865 32.8933H1.30504C1.16777 32.8932 1.0335 32.8531 0.918669 32.7779C0.803841 32.7027 0.71344 32.5956 0.658532 32.4698C0.603625 32.344 0.586595 32.2049 0.609532 32.0695C0.632468 31.9342 0.694368 31.8084 0.787662 31.7077L6.85233 25.1976C6.98367 25.0563 7.14268 24.9434 7.31955 24.8662C7.49639 24.789 7.68727 24.749 7.88024 24.7488H36.6617C36.8002 24.7459 36.9365 24.7841 37.0534 24.8585C37.1702 24.933 37.2627 25.0403 37.3186 25.167C37.3748 25.2937 37.3919 25.4342 37.3683 25.5707C37.3446 25.7073 37.2812 25.8338 37.186 25.9343ZM31.1144 12.8216C30.9826 12.6808 30.8235 12.5685 30.6467 12.4913C30.47 12.4141 30.2794 12.3738 30.0865 12.3728H1.30504C1.16777 12.3729 1.0335 12.4129 0.918669 12.4882C0.803841 12.5634 0.71344 12.6705 0.658532 12.7963C0.603625 12.9221 0.586595 13.0612 0.609532 13.1965C0.632468 13.3319 0.694368 13.4576 0.787662 13.5583L6.85233 20.0718C6.98415 20.2126 7.1433 20.325 7.32003 20.4022C7.49676 20.4793 7.68741 20.5197 7.88024 20.5207H36.6617C36.7988 20.5199 36.9324 20.4793 37.0469 20.4039C37.1613 20.3284 37.2511 20.2213 37.3056 20.0956C37.36 19.9699 37.3768 19.8311 37.3535 19.6961C37.3306 19.561 37.2689 19.4356 37.1757 19.3352L31.1144 12.8216ZM1.30504 8.14461H30.0865C30.2795 8.14444 30.4704 8.10445 30.6472 8.02722C30.8241 7.95003 30.9831 7.83716 31.1144 7.69576L37.186 1.18567C37.2812 1.08512 37.3446 0.958612 37.3683 0.822074C37.3919 0.685537 37.3748 0.545066 37.3186 0.418338C37.2627 0.291611 37.1702 0.184289 37.0534 0.109878C36.9365 0.0354661 36.8002 -0.00271126 36.6617 0.000149802H7.88024C7.68727 0.000352931 7.49639 0.040313 7.31955 0.117539C7.14268 0.194764 6.98367 0.307598 6.85233 0.449004L0.787662 6.95909C0.694368 7.05979 0.632468 7.18554 0.609532 7.32088C0.586595 7.45622 0.603625 7.59529 0.658532 7.72111C0.71344 7.84693 0.803841 7.954 0.918669 8.02921C1.0335 8.10445 1.16777 8.14454 1.30504 8.14461Z" fill="url(#paint0_linear_638_7)"/>
<path d="M72.2759 13.9117H56.8778V8.84063H76.2779V3.76961H56.8264C56.1617 3.76601 55.5032 3.89333 54.8878 4.14431C54.2724 4.39533 53.7122 4.76507 53.2401 5.23246C52.7676 5.69985 52.3917 6.25574 52.134 6.86834C51.8764 7.48098 51.7417 8.13836 51.7383 8.80294V13.9425C51.741 14.6077 51.8747 15.2658 52.132 15.8792C52.3893 16.4926 52.7648 17.0493 53.2373 17.5174C53.7102 17.9855 54.2704 18.3559 54.8861 18.6073C55.5018 18.8587 56.1614 18.9863 56.8264 18.9827H72.2451V24.0537H52.1049V29.1247H72.2759C72.9406 29.1284 73.5992 29.001 74.2146 28.75C74.83 28.499 75.3902 28.1293 75.8623 27.6619C76.3348 27.1945 76.7107 26.6386 76.9683 26.026C77.226 25.4134 77.3607 24.756 77.3641 24.0914V18.9518C77.3613 18.2867 77.2277 17.6286 76.9704 17.0152C76.7131 16.4017 76.3375 15.8451 75.8651 15.3769C75.3922 14.9088 74.832 14.5385 74.2163 14.287C73.6006 14.0356 72.941 13.9081 72.2759 13.9117Z" fill="white"/>
<path d="M102.105 3.7697H86.6487C85.983 3.76428 85.3227 3.89027 84.7056 4.14047C84.0889 4.39066 83.5273 4.76009 83.0535 5.22769C82.5792 5.69525 82.2023 6.25173 81.944 6.86525C81.6853 7.47878 81.5503 8.13729 81.5469 8.80303V24.0915C81.5503 24.7572 81.6853 25.4157 81.944 26.0293C82.2023 26.6428 82.5792 27.1993 83.0535 27.6668C83.5273 28.1344 84.0889 28.5039 84.7056 28.7541C85.3227 29.0042 85.983 29.1302 86.6487 29.1248H102.105C102.77 29.1284 103.428 29.0011 104.044 28.7501C104.659 28.4991 105.219 28.1294 105.691 27.662C106.164 27.1946 106.54 26.6387 106.798 26.0261C107.055 25.4135 107.19 24.7561 107.193 24.0915V8.80303C107.19 8.13846 107.055 7.48107 106.798 6.86844C106.54 6.25584 106.164 5.69994 105.691 5.23255C105.219 4.76516 104.659 4.39542 104.044 4.14441C103.428 3.89342 102.77 3.7661 102.105 3.7697ZM102.067 24.0538H86.6864V8.84072H102.061L102.067 24.0538Z" fill="white"/>
<path d="M156.242 3.76991H141.166C140.502 3.76631 139.843 3.89363 139.228 4.14461C138.612 4.39563 138.052 4.76537 137.58 5.23276C137.107 5.70015 136.732 6.25604 136.474 6.86864C136.216 7.48128 136.082 8.13866 136.078 8.80324V29.125H141.218V20.7955H156.225V29.125H161.365V8.80324C161.361 8.13575 161.226 7.47556 160.966 6.86066C160.706 6.2458 160.327 5.6884 159.851 5.22053C159.375 4.75269 158.811 4.38367 158.192 4.13471C157.572 3.88575 156.91 3.76179 156.242 3.76991ZM156.205 15.7245H141.197V8.84093H156.205V15.7245Z" fill="white"/>
<path d="M216.256 3.76961H201.18C200.515 3.76601 199.857 3.89333 199.241 4.14431C198.626 4.39533 198.066 4.76507 197.594 5.23246C197.121 5.69985 196.745 6.25574 196.488 6.86834C196.23 7.48098 196.095 8.13836 196.092 8.80294V29.1247H201.231V20.7952H216.205V29.1247H221.344V8.80294C221.341 8.13836 221.206 7.48098 220.948 6.86834C220.691 6.25574 220.315 5.69985 219.842 5.23246C219.37 4.76507 218.81 4.39533 218.195 4.14431C217.579 3.89333 216.921 3.76601 216.256 3.76961ZM216.205 15.7242H201.197V8.84063H216.205V15.7242Z" fill="white"/>
<path d="M186.393 24.0537H184.337L176.988 5.89392C176.736 5.26741 176.302 4.73047 175.743 4.35199C175.184 3.97348 174.524 3.77067 173.849 3.76958H169.289C168.845 3.76731 168.406 3.85239 167.996 4.01991C167.585 4.18745 167.212 4.43415 166.897 4.74595C166.582 5.05779 166.332 5.42855 166.16 5.83718C165.988 6.24578 165.899 6.68422 165.896 7.12742V29.1247H171.036V8.8406H173.092L180.438 27.0004C180.694 27.6257 181.131 28.1604 181.692 28.5364C182.254 28.9123 182.915 29.1124 183.59 29.111H188.151C188.594 29.1133 189.033 29.0282 189.444 28.8607C189.854 28.6932 190.227 28.4464 190.542 28.1346C190.857 27.8228 191.108 27.452 191.279 27.0434C191.451 26.6348 191.54 26.1964 191.543 25.7532V3.76958H186.393V24.0537Z" fill="white"/>
<path d="M116.874 3.76953H111.734V24.0913C111.738 24.7574 111.873 25.4162 112.132 26.0299C112.391 26.6437 112.768 27.2003 113.242 27.6679C113.716 28.1355 114.278 28.5049 114.896 28.7549C115.513 29.0049 116.174 29.1305 116.84 29.1247H132.258V24.0536H116.874V3.76953Z" fill="white"/>
</g>
<defs>
<linearGradient id="paint0_linear_638_7" x1="3.7035" y1="33.6779" x2="33.883" y2="-0.345913" gradientUnits="userSpaceOnUse">
<stop offset="0.08" stop-color="#9945FF"/>
<stop offset="0.3" stop-color="#8752F3"/>
<stop offset="0.5" stop-color="#5497D5"/>
<stop offset="0.6" stop-color="#43B4CA"/>
<stop offset="0.72" stop-color="#28E0B9"/>
<stop offset="0.97" stop-color="#19FB9B"/>
</linearGradient>
</defs>
</svg>
