<svg width="212" height="98" viewBox="0 0 212 98" fill="none" xmlns="http://www.w3.org/2000/svg">
<path d="M3.5 33C3.5 16.7076 16.7076 3.5 33 3.5H102.22H179C195.292 3.5 208.5 16.7076 208.5 33V65C208.5 81.2924 195.292 94.5 179 94.5H33C16.7076 94.5 3.5 81.2924 3.5 65V33Z" fill="url(#paint0_linear_638_27)" fill-opacity="0.2" stroke="url(#paint1_linear_638_27)" stroke-width="7"/>
<g filter="url(#filter0_d_638_27)">
<path d="M46.8111 43.0156C46.6918 41.8991 46.1889 41.0298 45.3026 40.4077C44.4247 39.7855 43.2827 39.4744 41.8764 39.4744C40.8878 39.4744 40.0398 39.6236 39.3324 39.9219C38.625 40.2202 38.0838 40.625 37.7088 41.1364C37.3338 41.6477 37.142 42.2315 37.1335 42.8878C37.1335 43.4332 37.2571 43.9062 37.5043 44.3068C37.7599 44.7074 38.1051 45.0483 38.5398 45.3295C38.9744 45.6023 39.456 45.8324 39.9844 46.0199C40.5128 46.2074 41.0455 46.3651 41.5824 46.4929L44.0369 47.1065C45.0256 47.3366 45.9759 47.6477 46.8878 48.0398C47.8082 48.4318 48.6307 48.9261 49.3551 49.5227C50.0881 50.1193 50.6676 50.8395 51.0938 51.6832C51.5199 52.527 51.733 53.5156 51.733 54.6491C51.733 56.1832 51.3409 57.5341 50.5568 58.7017C49.7727 59.8608 48.6392 60.7685 47.1562 61.4247C45.6818 62.0724 43.8963 62.3963 41.7997 62.3963C39.7628 62.3963 37.9943 62.081 36.4943 61.4503C35.0028 60.8196 33.8352 59.8991 32.9915 58.6889C32.1563 57.4787 31.7045 56.0043 31.6364 54.2656H36.3026C36.3707 55.1776 36.652 55.9361 37.1463 56.5412C37.6406 57.1463 38.2841 57.598 39.0767 57.8963C39.8778 58.1946 40.7727 58.3438 41.7614 58.3438C42.7926 58.3438 43.696 58.1903 44.4716 57.8835C45.2557 57.5682 45.8693 57.1335 46.3125 56.5795C46.7557 56.017 46.9815 55.3608 46.9901 54.6108C46.9815 53.929 46.7813 53.3665 46.3892 52.9233C45.9972 52.4716 45.4474 52.0966 44.7401 51.7983C44.0412 51.4915 43.223 51.2187 42.2855 50.9801L39.3068 50.2131C37.1506 49.6591 35.446 48.8196 34.1932 47.6946C32.9489 46.5611 32.3267 45.0568 32.3267 43.1818C32.3267 41.6392 32.7443 40.2884 33.5795 39.1293C34.4233 37.9702 35.5696 37.071 37.0185 36.4318C38.4673 35.7841 40.108 35.4602 41.9403 35.4602C43.7983 35.4602 45.4261 35.7841 46.8239 36.4318C48.2301 37.071 49.3338 37.9616 50.1349 39.1037C50.9361 40.2372 51.3494 41.5412 51.375 43.0156H46.8111ZM65.5621 42.3636V45.9432H54.2738V42.3636H65.5621ZM57.0607 37.6591H61.6886V56.0938C61.6886 56.7159 61.7823 57.1932 61.9698 57.5256C62.1658 57.8494 62.4215 58.071 62.7369 58.1903C63.0522 58.3097 63.4016 58.3693 63.7852 58.3693C64.0749 58.3693 64.3391 58.348 64.5778 58.3054C64.8249 58.2628 65.0124 58.2244 65.1403 58.1903L65.9201 61.8082C65.6729 61.8935 65.3192 61.9872 64.859 62.0895C64.4073 62.1918 63.8533 62.2514 63.1971 62.2685C62.038 62.3026 60.994 62.1278 60.065 61.7443C59.136 61.3523 58.3988 60.7472 57.8533 59.929C57.3164 59.1108 57.0522 58.0881 57.0607 56.8608V37.6591ZM75.0831 62.3963C73.8388 62.3963 72.718 62.1747 71.7209 61.7315C70.7322 61.2798 69.9482 60.6151 69.3686 59.7372C68.7976 58.8594 68.5121 57.777 68.5121 56.4901C68.5121 55.3821 68.7166 54.4659 69.1257 53.7415C69.5348 53.017 70.093 52.4375 70.8004 52.0028C71.5078 51.5682 72.3047 51.2401 73.1911 51.0185C74.0859 50.7884 75.0107 50.6222 75.9652 50.5199C77.1158 50.4006 78.049 50.294 78.7649 50.2003C79.4808 50.098 80.0007 49.9446 80.3246 49.7401C80.657 49.527 80.8232 49.1989 80.8232 48.7557V48.679C80.8232 47.7159 80.5376 46.9702 79.9666 46.4418C79.3956 45.9134 78.5732 45.6491 77.4993 45.6491C76.3658 45.6491 75.4666 45.8963 74.8018 46.3906C74.1456 46.8849 73.7024 47.4687 73.4723 48.142L69.1513 47.5284C69.4922 46.3352 70.0547 45.3381 70.8388 44.5369C71.6229 43.7273 72.5817 43.1222 73.7152 42.7216C74.8487 42.3125 76.1016 42.108 77.4737 42.108C78.4197 42.108 79.3615 42.2188 80.299 42.4403C81.2365 42.6619 82.093 43.0284 82.8686 43.5398C83.6442 44.0426 84.2663 44.7287 84.7351 45.598C85.2124 46.4673 85.451 47.554 85.451 48.858V62H81.0021V59.3026H80.8487C80.5675 59.848 80.1712 60.3594 79.6598 60.8366C79.157 61.3054 78.522 61.6847 77.755 61.9744C76.9964 62.2557 76.1058 62.3963 75.0831 62.3963ZM76.2848 58.9957C77.2138 58.9957 78.0192 58.8125 78.701 58.446C79.3828 58.071 79.907 57.5767 80.2734 56.9631C80.6484 56.3494 80.8359 55.6804 80.8359 54.956V52.642C80.6911 52.7614 80.4439 52.8722 80.0945 52.9744C79.7536 53.0767 79.37 53.1662 78.9439 53.2429C78.5178 53.3196 78.0959 53.3878 77.6783 53.4474C77.2607 53.5071 76.8984 53.5582 76.5916 53.6009C75.9013 53.6946 75.2834 53.848 74.7379 54.0611C74.1925 54.2741 73.7621 54.5724 73.4467 54.956C73.1314 55.331 72.9737 55.8168 72.9737 56.4134C72.9737 57.2656 73.2848 57.9091 73.907 58.3438C74.5291 58.7784 75.3217 58.9957 76.2848 58.9957ZM90.1044 62V42.3636H94.5916V45.6364H94.7962C95.1541 44.5028 95.7678 43.6293 96.6371 43.0156C97.5149 42.3935 98.5163 42.0824 99.6413 42.0824C99.897 42.0824 100.183 42.0952 100.498 42.1207C100.822 42.1378 101.09 42.1676 101.303 42.2102V46.4673C101.107 46.3991 100.796 46.3395 100.37 46.2884C99.9524 46.2287 99.5476 46.1989 99.1555 46.1989C98.3118 46.1989 97.5533 46.3821 96.88 46.7486C96.2152 47.1065 95.6911 47.6051 95.3075 48.2443C94.924 48.8835 94.7322 49.6207 94.7322 50.456V62H90.1044ZM115.238 42.3636V45.9432H103.95V42.3636H115.238ZM106.737 37.6591H111.364V56.0938C111.364 56.7159 111.458 57.1932 111.646 57.5256C111.842 57.8494 112.097 58.071 112.413 58.1903C112.728 58.3097 113.077 58.3693 113.461 58.3693C113.751 58.3693 114.015 58.348 114.254 58.3054C114.501 58.2628 114.688 58.2244 114.816 58.1903L115.596 61.8082C115.349 61.8935 114.995 61.9872 114.535 62.0895C114.083 62.1918 113.529 62.2514 112.873 62.2685C111.714 62.3026 110.67 62.1278 109.741 61.7443C108.812 61.3523 108.075 60.7472 107.529 59.929C106.992 59.1108 106.728 58.0881 106.737 56.8608V37.6591ZM131.624 53.7415V42.3636H136.252V62H131.765V58.5099H131.56C131.117 59.6094 130.388 60.5085 129.374 61.2074C128.368 61.9062 127.128 62.2557 125.654 62.2557C124.367 62.2557 123.229 61.9702 122.24 61.3991C121.26 60.8196 120.493 59.9801 119.939 58.8807C119.385 57.7727 119.108 56.4347 119.108 54.8665V42.3636H123.736V54.1506C123.736 55.3949 124.077 56.3835 124.759 57.1165C125.441 57.8494 126.336 58.2159 127.444 58.2159C128.125 58.2159 128.786 58.0497 129.425 57.7173C130.064 57.3849 130.588 56.8906 130.998 56.2344C131.415 55.5696 131.624 54.7386 131.624 53.7415ZM141.011 69.3636V42.3636H145.562V45.6108H145.83C146.069 45.1335 146.406 44.6264 146.84 44.0895C147.275 43.544 147.863 43.0795 148.604 42.696C149.346 42.304 150.292 42.108 151.442 42.108C152.96 42.108 154.327 42.4957 155.546 43.2713C156.773 44.0384 157.745 45.1761 158.461 46.6847C159.185 48.1847 159.548 50.0256 159.548 52.2074C159.548 54.3636 159.194 56.196 158.487 57.7045C157.779 59.2131 156.816 60.3636 155.597 61.1562C154.379 61.9489 152.998 62.3452 151.455 62.3452C150.33 62.3452 149.397 62.1577 148.656 61.7827C147.914 61.4077 147.317 60.956 146.866 60.4276C146.423 59.8906 146.077 59.3835 145.83 58.9062H145.638V69.3636H141.011ZM145.549 52.1818C145.549 53.4517 145.728 54.5639 146.086 55.5185C146.452 56.473 146.977 57.2187 147.658 57.7557C148.349 58.2841 149.184 58.5483 150.164 58.5483C151.187 58.5483 152.043 58.2756 152.734 57.7301C153.424 57.1761 153.944 56.4219 154.293 55.4673C154.651 54.5043 154.83 53.4091 154.83 52.1818C154.83 50.9631 154.656 49.8807 154.306 48.9347C153.957 47.9886 153.437 47.2472 152.746 46.7102C152.056 46.1733 151.195 45.9048 150.164 45.9048C149.175 45.9048 148.336 46.1648 147.646 46.6847C146.955 47.2045 146.431 47.9332 146.073 48.8707C145.724 49.8082 145.549 50.9119 145.549 52.1818ZM179.031 47.554L174.812 48.0142C174.692 47.5881 174.484 47.1875 174.185 46.8125C173.896 46.4375 173.504 46.1349 173.009 45.9048C172.515 45.6747 171.91 45.5597 171.194 45.5597C170.231 45.5597 169.421 45.7685 168.765 46.1861C168.117 46.6037 167.798 47.1449 167.806 47.8097C167.798 48.3807 168.006 48.8452 168.433 49.2031C168.867 49.5611 169.583 49.8551 170.58 50.0852L173.93 50.8011C175.788 51.2017 177.168 51.8366 178.072 52.706C178.984 53.5753 179.444 54.7131 179.452 56.1193C179.444 57.3551 179.082 58.446 178.366 59.392C177.658 60.3295 176.674 61.0625 175.413 61.5909C174.151 62.1193 172.702 62.3835 171.066 62.3835C168.663 62.3835 166.728 61.8807 165.262 60.875C163.796 59.8608 162.923 58.4503 162.641 56.6435L167.154 56.2088C167.359 57.0952 167.793 57.7642 168.458 58.2159C169.123 58.6676 169.988 58.8935 171.053 58.8935C172.153 58.8935 173.035 58.6676 173.7 58.2159C174.373 57.7642 174.71 57.206 174.71 56.5412C174.71 55.9787 174.492 55.5142 174.058 55.1477C173.631 54.7812 172.967 54.5 172.063 54.304L168.714 53.6009C166.83 53.2088 165.437 52.5483 164.533 51.6193C163.63 50.6818 163.183 49.4972 163.191 48.0653C163.183 46.8551 163.511 45.8068 164.175 44.9205C164.849 44.0256 165.782 43.3352 166.975 42.8494C168.177 42.3551 169.562 42.108 171.13 42.108C173.431 42.108 175.242 42.598 176.563 43.5781C177.893 44.5582 178.715 45.8835 179.031 47.554Z" fill="url(#paint2_linear_638_27)"/>
</g>
<defs>
<filter id="filter0_d_638_27" x="27.6367" y="35.4609" width="155.816" height="41.9023" filterUnits="userSpaceOnUse" color-interpolation-filters="sRGB">
<feFlood flood-opacity="0" result="BackgroundImageFix"/>
<feColorMatrix in="SourceAlpha" type="matrix" values="0 0 0 0 0 0 0 0 0 0 0 0 0 0 0 0 0 0 127 0" result="hardAlpha"/>
<feOffset dy="4"/>
<feGaussianBlur stdDeviation="2"/>
<feComposite in2="hardAlpha" operator="out"/>
<feColorMatrix type="matrix" values="0 0 0 0 1 0 0 0 0 1 0 0 0 0 1 0 0 0 0.21 0"/>
<feBlend mode="normal" in2="BackgroundImageFix" result="effect1_dropShadow_638_27"/>
<feBlend mode="normal" in="SourceGraphic" in2="effect1_dropShadow_638_27" result="shape"/>
</filter>
<linearGradient id="paint0_linear_638_27" x1="106" y1="0" x2="106" y2="98" gradientUnits="userSpaceOnUse">
<stop stop-color="#D9D9D9"/>
<stop offset="1" stop-color="#737373"/>
</linearGradient>
<linearGradient id="paint1_linear_638_27" x1="73.0745" y1="-7.11291" x2="126.121" y2="86.6123" gradientUnits="userSpaceOnUse">
<stop stop-color="#93C5FF"/>
<stop offset="0.5" stop-color="#030D19"/>
<stop offset="0.75" stop-color="white"/>
<stop offset="1" stop-color="#0075FF"/>
</linearGradient>
<linearGradient id="paint2_linear_638_27" x1="172.726" y1="16.3333" x2="1.89996" y2="46.7599" gradientUnits="userSpaceOnUse">
<stop stop-color="#7276AC"/>
<stop offset="0.482483" stop-color="#AAAFF3"/>
<stop offset="1" stop-color="#7276AC"/>
</linearGradient>
</defs>
</svg>
