<svg width="350" height="78" viewBox="0 0 350 78" fill="none" xmlns="http://www.w3.org/2000/svg">
<path d="M292.626 63.406C289.895 63.406 287.451 62.7044 285.293 61.3012C283.135 59.898 281.43 57.861 280.178 55.1904C278.926 52.5197 278.299 49.2757 278.299 45.4584C278.299 41.5958 278.933 38.3367 280.201 35.6811C281.483 33.0105 283.211 30.9962 285.383 29.6382C287.556 28.2652 289.978 27.5787 292.648 27.5787C294.685 27.5787 296.36 27.9257 297.673 28.6198C298.986 29.2987 300.027 30.1211 300.796 31.0867C301.566 32.0373 302.162 32.935 302.584 33.78H302.924V16.4434H311.139V62.7949H303.082V57.3178H302.584C302.162 58.1628 301.551 59.0605 300.751 60.0111C299.951 60.9466 298.895 61.7463 297.582 62.4102C296.27 63.0741 294.618 63.406 292.626 63.406ZM294.912 56.6841C296.647 56.6841 298.126 56.2164 299.348 55.2809C300.57 54.3303 301.498 53.0101 302.132 51.3202C302.765 49.6303 303.082 47.6613 303.082 45.4131C303.082 43.165 302.765 41.211 302.132 39.5513C301.513 37.8916 300.592 36.6015 299.37 35.6811C298.163 34.7607 296.677 34.3005 294.912 34.3005C293.086 34.3005 291.562 34.7758 290.34 35.7264C289.118 36.677 288.197 37.9896 287.579 39.6644C286.96 41.3393 286.651 43.2555 286.651 45.4131C286.651 47.5858 286.96 49.5247 287.579 51.2297C288.212 52.9196 289.14 54.2549 290.363 55.2356C291.6 56.2013 293.116 56.6841 294.912 56.6841ZM330.799 63.4739C327.313 63.4739 324.303 62.7497 321.768 61.3012C319.248 59.8376 317.31 57.7705 315.952 55.0999C314.594 52.4141 313.915 49.2531 313.915 45.6168C313.915 42.0409 314.594 38.9025 315.952 36.2017C317.325 33.4858 319.241 31.3734 321.7 29.8646C324.16 28.3406 327.049 27.5787 330.369 27.5787C332.511 27.5787 334.533 27.9257 336.434 28.6198C338.35 29.2987 340.04 30.3549 341.504 31.7883C342.982 33.2217 344.144 35.0474 344.989 37.2654C345.834 39.4683 346.257 42.0937 346.257 45.1415V47.6537H317.762V42.1314H338.403C338.388 40.5622 338.049 39.1665 337.385 37.9444C336.721 36.7071 335.793 35.7339 334.601 35.0248C333.424 34.3156 332.051 33.961 330.482 33.961C328.807 33.961 327.336 34.3684 326.068 35.1832C324.801 35.9829 323.813 37.0391 323.104 38.3518C322.409 39.6494 322.055 41.0752 322.04 42.6293V47.45C322.04 49.4719 322.409 51.2071 323.149 52.6555C323.888 54.0889 324.922 55.1904 326.249 55.9599C327.577 56.7143 329.131 57.0915 330.912 57.0915C332.104 57.0915 333.183 56.9255 334.148 56.5936C335.114 56.2466 335.951 55.7411 336.66 55.0772C337.37 54.4133 337.905 53.591 338.267 52.6103L345.917 53.4703C345.434 55.4922 344.514 57.2575 343.156 58.7663C341.813 60.2601 340.093 61.4219 337.996 62.2517C335.898 63.0665 333.499 63.4739 330.799 63.4739Z" fill="#0126BD"/>
<path d="M62.4453 36.4252L54.9766 37.24C54.7654 36.4856 54.3957 35.7764 53.8676 35.1125C53.3546 34.4486 52.6605 33.913 51.7854 33.5056C50.9103 33.0982 49.839 32.8945 48.5716 32.8945C46.8666 32.8945 45.4332 33.2642 44.2714 34.0035C43.1247 34.7429 42.5589 35.701 42.574 36.8779C42.5589 37.8888 42.9285 38.7111 43.683 39.3448C44.4525 39.9785 45.7199 40.4991 47.4852 40.9065L53.415 42.1739C56.7042 42.883 59.1485 44.0071 60.7479 45.5461C62.3624 47.0851 63.1771 49.0994 63.1922 51.589C63.1771 53.7768 62.5359 55.7081 61.2685 57.383C60.0161 59.0427 58.2734 60.3403 56.0403 61.2758C53.8073 62.2112 51.2422 62.679 48.3453 62.679C44.0903 62.679 40.6653 61.7888 38.0701 60.0083C35.4749 58.2128 33.9283 55.7157 33.4304 52.517L41.4197 51.7475C41.7818 53.3166 42.5513 54.5011 43.7282 55.3008C44.9051 56.1004 46.4366 56.5003 48.3226 56.5003C50.269 56.5003 51.8307 56.1004 53.0076 55.3008C54.1995 54.5011 54.7955 53.5128 54.7955 52.3359C54.7955 51.3401 54.4108 50.5177 53.6413 49.8689C52.8869 49.2201 51.71 48.7222 50.1106 48.3752L44.1809 47.1304C40.8463 46.4363 38.3794 45.267 36.78 43.6224C35.1807 41.9626 34.3885 39.8654 34.4036 37.3305C34.3885 35.188 34.9694 33.3321 36.1463 31.7629C37.3383 30.1786 38.9905 28.9565 41.1028 28.0964C43.2303 27.2213 45.6822 26.7837 48.4584 26.7837C52.5323 26.7837 55.7386 27.6513 58.0773 29.3865C60.431 31.1216 61.8871 33.4679 62.4453 36.4252ZM82.8459 27.2364V33.5735H62.8613V27.2364H82.8459ZM67.7952 18.9076H75.9882V51.5438C75.9882 52.6452 76.1542 53.4902 76.4861 54.0786C76.8332 54.652 77.2858 55.0443 77.8441 55.2555C78.4024 55.4667 79.021 55.5724 79.7 55.5724C80.213 55.5724 80.6807 55.5346 81.1032 55.4592C81.5407 55.3837 81.8727 55.3159 82.099 55.2555L83.4796 61.6605C83.042 61.8114 82.4159 61.9774 81.6011 62.1584C80.8014 62.3395 79.8207 62.4451 78.6589 62.4753C76.6068 62.5356 74.7585 62.2263 73.1139 61.5473C71.4692 60.8533 70.1641 59.782 69.1984 58.3335C68.2479 56.885 67.7801 55.0744 67.7952 52.9017V18.9076ZM100.253 62.679C96.7678 62.679 93.7577 61.9547 91.2229 60.5063C88.7031 59.0427 86.7643 56.9756 85.4063 54.3049C84.0483 51.6192 83.3694 48.4582 83.3694 44.8219C83.3694 41.2459 84.0483 38.1076 85.4063 35.4067C86.7793 32.6908 88.6956 30.5785 91.155 29.0696C93.6144 27.5457 96.5038 26.7837 99.8232 26.7837C101.966 26.7837 103.988 27.1308 105.889 27.8248C107.805 28.5038 109.495 29.56 110.958 30.9934C112.437 32.4268 113.599 34.2525 114.444 36.4705C115.289 38.6734 115.711 41.2988 115.711 44.3466V46.8588H87.2169V41.3365H107.858C107.843 39.7673 107.503 38.3716 106.839 37.1495C106.175 35.9122 105.248 34.939 104.056 34.2299C102.879 33.5207 101.506 33.1661 99.9364 33.1661C98.2616 33.1661 96.7905 33.5735 95.5231 34.3883C94.2556 35.188 93.2673 36.2442 92.5582 37.5568C91.8641 38.8544 91.5095 40.2803 91.4945 41.8344V46.6551C91.4945 48.677 91.8641 50.4121 92.6035 51.8606C93.3428 53.294 94.3763 54.3955 95.7041 55.165C97.0319 55.9194 98.586 56.2966 100.366 56.2966C101.558 56.2966 102.637 56.1306 103.603 55.7987C104.569 55.4516 105.406 54.9462 106.115 54.2823C106.824 53.6184 107.36 52.7961 107.722 51.8153L115.372 52.6754C114.889 54.6972 113.969 56.4626 112.611 57.9714C111.268 59.4652 109.548 60.627 107.45 61.4568C105.353 62.2716 102.954 62.679 100.253 62.679ZM128.185 62.7016C125.982 62.7016 123.998 62.3093 122.232 61.5247C120.482 60.725 119.094 59.5481 118.068 57.994C117.057 56.4399 116.552 54.5237 116.552 52.2454C116.552 50.2839 116.914 48.6619 117.638 47.3794C118.362 46.0969 119.351 45.0708 120.603 44.3013C121.855 43.5318 123.266 42.9509 124.835 42.5586C126.419 42.1512 128.057 41.857 129.746 41.676C131.783 41.4647 133.436 41.2761 134.703 41.1102C135.97 40.9291 136.891 40.6575 137.464 40.2954C138.053 39.9182 138.347 39.3373 138.347 38.5527V38.4169C138.347 36.7119 137.841 35.3917 136.83 34.4562C135.819 33.5207 134.363 33.053 132.462 33.053C130.456 33.053 128.864 33.4905 127.687 34.3656C126.525 35.2408 125.74 36.2743 125.333 37.4663L117.683 36.3799C118.287 34.2676 119.283 32.5022 120.671 31.0839C122.059 29.6505 123.756 28.5793 125.763 27.8701C127.77 27.1459 129.988 26.7837 132.417 26.7837C134.092 26.7837 135.759 26.9799 137.419 27.3722C139.079 27.7645 140.595 28.4133 141.968 29.3186C143.341 30.2088 144.442 31.4234 145.272 32.9624C146.117 34.5014 146.54 36.4252 146.54 38.7337V62H138.664V57.2245H138.392C137.894 58.1902 137.193 59.0955 136.287 59.9404C135.397 60.7703 134.273 61.4417 132.915 61.9547C131.572 62.4527 129.995 62.7016 128.185 62.7016ZM130.312 56.6813C131.957 56.6813 133.383 56.3569 134.59 55.7081C135.797 55.0443 136.725 54.1691 137.374 53.0828C138.037 51.9964 138.369 50.812 138.369 49.5295V45.433C138.113 45.6442 137.675 45.8404 137.057 46.0214C136.453 46.2025 135.774 46.3609 135.02 46.4967C134.265 46.6325 133.519 46.7532 132.779 46.8588C132.04 46.9644 131.399 47.055 130.855 47.1304C129.633 47.2964 128.539 47.568 127.574 47.9452C126.608 48.3224 125.846 48.8505 125.288 49.5295C124.73 50.1933 124.45 51.0534 124.45 52.1096C124.45 53.6184 125.001 54.7576 126.103 55.5271C127.204 56.2966 128.607 56.6813 130.312 56.6813ZM158.51 15.6485V62H150.317V15.6485H158.51ZM179.832 27.2364V33.5735H159.848V27.2364H179.832ZM164.782 18.9076H172.975V51.5438C172.975 52.6452 173.141 53.4902 173.473 54.0786C173.82 54.652 174.272 55.0443 174.831 55.2555C175.389 55.4667 176.008 55.5724 176.687 55.5724C177.2 55.5724 177.667 55.5346 178.09 55.4592C178.527 55.3837 178.859 55.3159 179.086 55.2555L180.466 61.6605C180.029 61.8114 179.402 61.9774 178.588 62.1584C177.788 62.3395 176.807 62.4451 175.645 62.4753C173.593 62.5356 171.745 62.2263 170.1 61.5473C168.456 60.8533 167.151 59.782 166.185 58.3335C165.234 56.885 164.767 55.0744 164.782 52.9017V18.9076ZM191.163 41.6307V62H182.97V15.6485H190.982V33.1435H191.389C192.204 31.182 193.464 29.6354 195.169 28.5038C196.889 27.3571 199.077 26.7837 201.732 26.7837C204.147 26.7837 206.251 27.2892 208.047 28.3001C209.842 29.311 211.231 30.7897 212.211 32.7361C213.207 34.6825 213.705 37.0589 213.705 39.8654V62H205.512V41.1328C205.512 38.7941 204.909 36.9759 203.701 35.6783C202.509 34.3656 200.835 33.7093 198.677 33.7093C197.229 33.7093 195.931 34.0262 194.784 34.6599C193.653 35.2785 192.762 36.1763 192.114 37.3531C191.48 38.53 191.163 39.9559 191.163 41.6307Z" fill="#0126BD"/>
<path d="M16.8389 63.1152L22.7449 27.1172H27.6665L21.7605 63.1152H16.8389ZM0.615201 53.8345L1.44133 48.9129H29.143L28.3168 53.8345H0.615201ZM4.18337 63.1152L10.0893 27.1172H15.0109L9.10498 63.1152H4.18337ZM2.70689 41.3195L3.51544 36.3979H31.2171L30.4085 41.3195H2.70689Z" fill="#96AAFF"/>
<path d="M239.438 29.7923C239.135 29.1353 238.477 28.7146 237.753 28.7146H233.148C232.424 28.7146 231.766 29.1353 231.463 29.7923L217.34 60.3616C217.015 61.0645 217.529 61.8672 218.303 61.8672H223.99C224.75 61.8672 225.433 61.4047 225.714 60.6995L234.238 39.3608C234.682 38.2479 236.258 38.2491 236.701 39.3626L245.188 60.6971C245.469 61.4035 246.152 61.8672 246.912 61.8672H252.598C253.372 61.8672 253.886 61.0645 253.561 60.3616L239.438 29.7923Z" fill="#96AAFF"/>
<path d="M264.491 60.7836C264.187 61.4406 263.53 61.8613 262.806 61.8613H258.201C257.477 61.8613 256.819 61.4406 256.516 60.7836L242.393 30.2143C242.068 29.5114 242.581 28.7087 243.356 28.7087H249.034C249.798 28.7087 250.484 29.1768 250.762 29.8881L259.293 51.6735C259.733 52.7978 261.325 52.7964 261.763 51.6712L270.245 29.8913C270.523 29.1783 271.21 28.7087 271.975 28.7087H277.651C278.425 28.7087 278.938 29.5114 278.614 30.2143L264.491 60.7836Z" fill="#96AAFF"/>
<path d="M243.299 28.4497C242.541 28.4498 242.03 27.6763 242.36 26.9937C249.971 11.2528 268.873 7.62908 278.582 26.958C278.927 27.6461 278.42 28.4495 277.65 28.4495H272.476C271.406 28.4495 270.434 27.8474 269.849 26.9511C264.219 18.3172 255.801 20.1876 251.222 26.961C250.622 27.8491 249.653 28.4495 248.581 28.4495L243.299 28.4497Z" fill="#96AAFF"/>
<path d="M155.335 7.62847C155.269 7.48487 155.125 7.39293 154.967 7.39293H153.96C153.802 7.39293 153.658 7.48487 153.592 7.62847L150.506 14.3096C150.435 14.4632 150.547 14.6387 150.716 14.6387H151.959C152.125 14.6387 152.274 14.5376 152.336 14.3835L154.199 9.71974C154.296 9.47651 154.64 9.47676 154.737 9.72013L156.592 14.3829C156.653 14.5373 156.803 14.6387 156.969 14.6387H158.211C158.381 14.6387 158.493 14.4632 158.422 14.3096L155.335 7.62847Z" fill="#96AAFF"/>
<path d="M251.126 29.2512C250.953 28.8067 250.987 28.3056 251.236 27.8993C253.511 24.1941 256.448 22.1172 259.911 21.5885C260.585 21.4856 261.274 21.5099 261.943 21.6437C265.294 22.3141 267.601 24.1056 269.84 27.8999C270.08 28.3071 270.112 28.8041 269.941 29.2449L261.328 51.4628V51.4628C261.012 52.1382 260.052 52.1382 259.737 51.4628V51.4628L251.126 29.2512Z" fill="#0126BD"/>
</svg>
