<svg width="344" height="98" viewBox="0 0 344 98" fill="none" xmlns="http://www.w3.org/2000/svg">
<path d="M3.5 33C3.5 16.7076 16.7076 3.5 33 3.5H165.867H311C327.292 3.5 340.5 16.7076 340.5 33V65C340.5 81.2924 327.292 94.5 311 94.5H33C16.7076 94.5 3.5 81.2924 3.5 65V33Z" fill="url(#paint0_linear_638_29)" fill-opacity="0.2" stroke="url(#paint1_linear_638_29)" stroke-width="7"/>
<g filter="url(#filter0_d_638_29)">
<path d="M31.4318 39.794V35.8182H52.321V39.794H44.2287V62H39.5241V39.794H31.4318ZM61.8612 62.3835C59.9435 62.3835 58.2816 61.9616 56.8754 61.1179C55.4691 60.2741 54.3782 59.0937 53.6026 57.5767C52.8356 56.0597 52.4521 54.2869 52.4521 52.2585C52.4521 50.2301 52.8356 48.4531 53.6026 46.9276C54.3782 45.402 55.4691 44.2173 56.8754 43.3736C58.2816 42.5298 59.9435 42.108 61.8612 42.108C63.7788 42.108 65.4407 42.5298 66.8469 43.3736C68.2532 44.2173 69.3398 45.402 70.1069 46.9276C70.8825 48.4531 71.2702 50.2301 71.2702 52.2585C71.2702 54.2869 70.8825 56.0597 70.1069 57.5767C69.3398 59.0937 68.2532 60.2741 66.8469 61.1179C65.4407 61.9616 63.7788 62.3835 61.8612 62.3835ZM61.8867 58.6761C62.9265 58.6761 63.7958 58.3906 64.4947 57.8196C65.1935 57.2401 65.7134 56.4645 66.0543 55.4929C66.4038 54.5213 66.5785 53.4389 66.5785 52.2457C66.5785 51.044 66.4038 49.9574 66.0543 48.9858C65.7134 48.0057 65.1935 47.2259 64.4947 46.6463C63.7958 46.0668 62.9265 45.777 61.8867 45.777C60.8214 45.777 59.935 46.0668 59.2276 46.6463C58.5288 47.2259 58.0046 48.0057 57.6552 48.9858C57.3143 49.9574 57.1438 51.044 57.1438 52.2457C57.1438 53.4389 57.3143 54.5213 57.6552 55.4929C58.0046 56.4645 58.5288 57.2401 59.2276 57.8196C59.935 58.3906 60.8214 58.6761 61.8867 58.6761ZM79.4169 55.8381L79.4041 50.2514H80.1456L87.2024 42.3636H92.6101L83.9297 52.0284H82.9709L79.4169 55.8381ZM75.1982 62V35.8182H79.826V62H75.1982ZM87.522 62L81.13 53.0639L84.2493 49.804L93.0575 62H87.522ZM103.579 62.3835C101.61 62.3835 99.9098 61.9744 98.478 61.1562C97.0547 60.3295 95.9595 59.1619 95.1925 57.6534C94.4254 56.1364 94.0419 54.3509 94.0419 52.2969C94.0419 50.277 94.4254 48.5043 95.1925 46.9787C95.968 45.4446 97.0504 44.2514 98.4396 43.3991C99.8288 42.5384 101.461 42.108 103.336 42.108C104.546 42.108 105.688 42.304 106.762 42.696C107.844 43.0795 108.799 43.6761 109.626 44.4858C110.461 45.2955 111.117 46.3267 111.594 47.5795C112.072 48.8239 112.31 50.3068 112.31 52.0284V53.4474H96.2152V50.3281H107.874C107.866 49.4418 107.674 48.6534 107.299 47.9631C106.924 47.2642 106.4 46.7145 105.727 46.3139C105.062 45.9134 104.286 45.7131 103.4 45.7131C102.454 45.7131 101.623 45.9432 100.907 46.4034C100.191 46.8551 99.6328 47.4517 99.2322 48.1932C98.8402 48.9261 98.6399 49.7315 98.6314 50.6094V53.3324C98.6314 54.4744 98.8402 55.4545 99.2578 56.2727C99.6754 57.0824 100.259 57.7045 101.009 58.1392C101.759 58.5653 102.637 58.7784 103.643 58.7784C104.316 58.7784 104.925 58.6847 105.471 58.4972C106.016 58.3011 106.489 58.0156 106.89 57.6406C107.29 57.2656 107.593 56.8011 107.798 56.2472L112.119 56.733C111.846 57.875 111.326 58.8722 110.559 59.7244C109.8 60.5682 108.829 61.2244 107.644 61.6932C106.46 62.1534 105.104 62.3835 103.579 62.3835ZM120.853 50.4943V62H116.225V42.3636H120.649V45.7003H120.879C121.331 44.6009 122.051 43.7273 123.039 43.0795C124.037 42.4318 125.268 42.108 126.734 42.108C128.089 42.108 129.27 42.3977 130.275 42.9773C131.289 43.5568 132.074 44.3963 132.627 45.4957C133.19 46.5952 133.467 47.929 133.458 49.4972V62H128.831V50.2131C128.831 48.9006 128.49 47.8736 127.808 47.1321C127.135 46.3906 126.201 46.0199 125.008 46.0199C124.199 46.0199 123.478 46.1989 122.848 46.5568C122.225 46.9062 121.735 47.4134 121.377 48.0781C121.028 48.7429 120.853 49.5483 120.853 50.4943ZM147.297 62V35.8182H152.04V58.0241H163.571V62H147.297ZM173.134 62.3963C171.89 62.3963 170.769 62.1747 169.772 61.7315C168.783 61.2798 167.999 60.6151 167.419 59.7372C166.848 58.8594 166.563 57.777 166.563 56.4901C166.563 55.3821 166.767 54.4659 167.176 53.7415C167.586 53.017 168.144 52.4375 168.851 52.0028C169.559 51.5682 170.355 51.2401 171.242 51.0185C172.137 50.7884 173.061 50.6222 174.016 50.5199C175.167 50.4006 176.1 50.294 176.816 50.2003C177.532 50.098 178.051 49.9446 178.375 49.7401C178.708 49.527 178.874 49.1989 178.874 48.7557V48.679C178.874 47.7159 178.588 46.9702 178.017 46.4418C177.446 45.9134 176.624 45.6491 175.55 45.6491C174.417 45.6491 173.517 45.8963 172.853 46.3906C172.196 46.8849 171.753 47.4687 171.523 48.142L167.202 47.5284C167.543 46.3352 168.105 45.3381 168.89 44.5369C169.674 43.7273 170.632 43.1222 171.766 42.7216C172.9 42.3125 174.152 42.108 175.525 42.108C176.471 42.108 177.412 42.2188 178.35 42.4403C179.287 42.6619 180.144 43.0284 180.919 43.5398C181.695 44.0426 182.317 44.7287 182.786 45.598C183.263 46.4673 183.502 47.554 183.502 48.858V62H179.053V59.3026H178.9C178.618 59.848 178.222 60.3594 177.711 60.8366C177.208 61.3054 176.573 61.6847 175.806 61.9744C175.047 62.2557 174.157 62.3963 173.134 62.3963ZM174.336 58.9957C175.265 58.9957 176.07 58.8125 176.752 58.446C177.434 58.071 177.958 57.5767 178.324 56.9631C178.699 56.3494 178.887 55.6804 178.887 54.956V52.642C178.742 52.7614 178.495 52.8722 178.145 52.9744C177.804 53.0767 177.421 53.1662 176.995 53.2429C176.569 53.3196 176.147 53.3878 175.729 53.4474C175.311 53.5071 174.949 53.5582 174.642 53.6009C173.952 53.6946 173.334 53.848 172.789 54.0611C172.243 54.2741 171.813 54.5724 171.498 54.956C171.182 55.331 171.025 55.8168 171.025 56.4134C171.025 57.2656 171.336 57.9091 171.958 58.3438C172.58 58.7784 173.373 58.9957 174.336 58.9957ZM200.671 53.7415V42.3636H205.299V62H200.811V58.5099H200.607C200.164 59.6094 199.435 60.5085 198.421 61.2074C197.415 61.9062 196.175 62.2557 194.701 62.2557C193.414 62.2557 192.276 61.9702 191.287 61.3991C190.307 60.8196 189.54 59.9801 188.986 58.8807C188.432 57.7727 188.155 56.4347 188.155 54.8665V42.3636H192.783V54.1506C192.783 55.3949 193.124 56.3835 193.806 57.1165C194.488 57.8494 195.382 58.2159 196.49 58.2159C197.172 58.2159 197.833 58.0497 198.472 57.7173C199.111 57.3849 199.635 56.8906 200.044 56.2344C200.462 55.5696 200.671 54.7386 200.671 53.7415ZM214.685 50.4943V62H210.058V42.3636H214.481V45.7003H214.711C215.163 44.6009 215.883 43.7273 216.871 43.0795C217.869 42.4318 219.1 42.108 220.566 42.108C221.921 42.108 223.102 42.3977 224.107 42.9773C225.121 43.5568 225.906 44.3963 226.46 45.4957C227.022 46.5952 227.299 47.929 227.29 49.4972V62H222.663V50.2131C222.663 48.9006 222.322 47.8736 221.64 47.1321C220.967 46.3906 220.033 46.0199 218.84 46.0199C218.031 46.0199 217.31 46.1989 216.68 46.5568C216.058 46.9062 215.567 47.4134 215.21 48.0781C214.86 48.7429 214.685 49.5483 214.685 50.4943ZM240.56 62.3835C238.6 62.3835 236.917 61.9531 235.511 61.0923C234.113 60.2315 233.035 59.0426 232.276 57.5256C231.526 56 231.151 54.2443 231.151 52.2585C231.151 50.2642 231.535 48.5043 232.302 46.9787C233.069 45.4446 234.151 44.2514 235.549 43.3991C236.955 42.5384 238.617 42.108 240.535 42.108C242.129 42.108 243.539 42.402 244.766 42.9901C246.002 43.5696 246.987 44.392 247.719 45.4574C248.452 46.5142 248.87 47.75 248.972 49.1648H244.549C244.37 48.2187 243.944 47.4304 243.271 46.7997C242.606 46.1605 241.715 45.8409 240.599 45.8409C239.653 45.8409 238.822 46.0966 238.106 46.608C237.39 47.1108 236.832 47.8352 236.431 48.7812C236.039 49.7273 235.843 50.8608 235.843 52.1818C235.843 53.5199 236.039 54.6705 236.431 55.6335C236.823 56.5881 237.373 57.3253 238.08 57.8452C238.796 58.3565 239.636 58.6122 240.599 58.6122C241.281 58.6122 241.89 58.4844 242.427 58.2287C242.972 57.9645 243.428 57.5852 243.795 57.0909C244.161 56.5966 244.413 55.9957 244.549 55.2884H248.972C248.862 56.6776 248.452 57.9091 247.745 58.983C247.038 60.0483 246.075 60.8835 244.856 61.4886C243.637 62.0852 242.205 62.3835 240.56 62.3835ZM257.4 50.4943V62H252.772V35.8182H257.298V45.7003H257.528C257.988 44.5923 258.7 43.7187 259.663 43.0795C260.635 42.4318 261.87 42.108 263.37 42.108C264.734 42.108 265.923 42.3935 266.937 42.9645C267.951 43.5355 268.735 44.3707 269.289 45.4702C269.852 46.5696 270.133 47.9119 270.133 49.4972V62H265.505V50.2131C265.505 48.892 265.164 47.8651 264.483 47.1321C263.809 46.3906 262.863 46.0199 261.645 46.0199C260.826 46.0199 260.093 46.1989 259.446 46.5568C258.806 46.9062 258.304 47.4134 257.937 48.0781C257.579 48.7429 257.4 49.5483 257.4 50.4943ZM283.544 62.3835C281.575 62.3835 279.875 61.9744 278.443 61.1562C277.02 60.3295 275.924 59.1619 275.157 57.6534C274.39 56.1364 274.007 54.3509 274.007 52.2969C274.007 50.277 274.39 48.5043 275.157 46.9787C275.933 45.4446 277.015 44.2514 278.404 43.3991C279.794 42.5384 281.426 42.108 283.301 42.108C284.511 42.108 285.653 42.304 286.727 42.696C287.809 43.0795 288.764 43.6761 289.591 44.4858C290.426 45.2955 291.082 46.3267 291.559 47.5795C292.037 48.8239 292.275 50.3068 292.275 52.0284V53.4474H276.18V50.3281H287.839C287.831 49.4418 287.639 48.6534 287.264 47.9631C286.889 47.2642 286.365 46.7145 285.691 46.3139C285.027 45.9134 284.251 45.7131 283.365 45.7131C282.419 45.7131 281.588 45.9432 280.872 46.4034C280.156 46.8551 279.598 47.4517 279.197 48.1932C278.805 48.9261 278.605 49.7315 278.596 50.6094V53.3324C278.596 54.4744 278.805 55.4545 279.223 56.2727C279.64 57.0824 280.224 57.7045 280.974 58.1392C281.724 58.5653 282.602 58.7784 283.608 58.7784C284.281 58.7784 284.89 58.6847 285.436 58.4972C285.981 58.3011 286.454 58.0156 286.855 57.6406C287.255 57.2656 287.558 56.8011 287.762 56.2472L292.083 56.733C291.811 57.875 291.291 58.8722 290.524 59.7244C289.765 60.5682 288.794 61.2244 287.609 61.6932C286.424 62.1534 285.069 62.3835 283.544 62.3835ZM311.71 47.554L307.491 48.0142C307.372 47.5881 307.163 47.1875 306.865 46.8125C306.575 46.4375 306.183 46.1349 305.689 45.9048C305.195 45.6747 304.589 45.5597 303.874 45.5597C302.911 45.5597 302.101 45.7685 301.445 46.1861C300.797 46.6037 300.477 47.1449 300.486 47.8097C300.477 48.3807 300.686 48.8452 301.112 49.2031C301.547 49.5611 302.263 49.8551 303.26 50.0852L306.609 50.8011C308.467 51.2017 309.848 51.8366 310.751 52.706C311.663 53.5753 312.124 54.7131 312.132 56.1193C312.124 57.3551 311.761 58.446 311.045 59.392C310.338 60.3295 309.354 61.0625 308.092 61.5909C306.831 62.1193 305.382 62.3835 303.746 62.3835C301.342 62.3835 299.408 61.8807 297.942 60.875C296.476 59.8608 295.602 58.4503 295.321 56.6435L299.834 56.2088C300.038 57.0952 300.473 57.7642 301.138 58.2159C301.803 58.6676 302.668 58.8935 303.733 58.8935C304.832 58.8935 305.714 58.6676 306.379 58.2159C307.053 57.7642 307.389 57.206 307.389 56.5412C307.389 55.9787 307.172 55.5142 306.737 55.1477C306.311 54.7812 305.646 54.5 304.743 54.304L301.393 53.6009C299.51 53.2088 298.116 52.5483 297.213 51.6193C296.31 50.6818 295.862 49.4972 295.871 48.0653C295.862 46.8551 296.19 45.8068 296.855 44.9205C297.528 44.0256 298.462 43.3352 299.655 42.8494C300.857 42.3551 302.241 42.108 303.81 42.108C306.111 42.108 307.922 42.598 309.243 43.5781C310.572 44.5582 311.395 45.8835 311.71 47.554Z" fill="url(#paint2_linear_638_29)"/>
</g>
<defs>
<filter id="filter0_d_638_29" x="27.4316" y="35.8184" width="288.701" height="34.5781" filterUnits="userSpaceOnUse" color-interpolation-filters="sRGB">
<feFlood flood-opacity="0" result="BackgroundImageFix"/>
<feColorMatrix in="SourceAlpha" type="matrix" values="0 0 0 0 0 0 0 0 0 0 0 0 0 0 0 0 0 0 127 0" result="hardAlpha"/>
<feOffset dy="4"/>
<feGaussianBlur stdDeviation="2"/>
<feComposite in2="hardAlpha" operator="out"/>
<feColorMatrix type="matrix" values="0 0 0 0 1 0 0 0 0 1 0 0 0 0 1 0 0 0 0.21 0"/>
<feBlend mode="normal" in2="BackgroundImageFix" result="effect1_dropShadow_638_29"/>
<feBlend mode="normal" in="SourceGraphic" in2="effect1_dropShadow_638_29" result="shape"/>
</filter>
<linearGradient id="paint0_linear_638_29" x1="172" y1="0" x2="172" y2="98" gradientUnits="userSpaceOnUse">
<stop stop-color="#D9D9D9"/>
<stop offset="1" stop-color="#737373"/>
</linearGradient>
<linearGradient id="paint1_linear_638_29" x1="118.574" y1="-7.11291" x2="157.055" y2="103.213" gradientUnits="userSpaceOnUse">
<stop stop-color="#93C5FF"/>
<stop offset="0.5" stop-color="#030D19"/>
<stop offset="0.75" stop-color="white"/>
<stop offset="1" stop-color="#0075FF"/>
</linearGradient>
<linearGradient id="paint2_linear_638_29" x1="298.438" y1="16.3333" x2="0.403062" y2="116.174" gradientUnits="userSpaceOnUse">
<stop stop-color="#7276AC"/>
<stop offset="0.482483" stop-color="#AAAFF3"/>
<stop offset="1" stop-color="#7276AC"/>
</linearGradient>
</defs>
</svg>
