<svg width="171" height="65" viewBox="0 0 171 65" fill="none" xmlns="http://www.w3.org/2000/svg">
<mask id="mask0_638_12" style="mask-type:luminance" maskUnits="userSpaceOnUse" x="0" y="0" width="171" height="65">
<path d="M170.844 0H0.546875V64.8751H170.844V0Z" fill="white"/>
</mask>
<g mask="url(#mask0_638_12)">
<path d="M33.1758 64.8751C51.0906 64.8751 65.6134 50.3523 65.6134 32.4375C65.6134 14.5228 51.0906 0 33.1758 0C15.261 0 0.738281 14.5228 0.738281 32.4375C0.738281 50.3523 15.261 64.8751 33.1758 64.8751Z" fill="#0098EA"/>
<path d="M44.2516 18.1055H22.0994C18.0264 18.1055 15.4449 22.499 17.4939 26.0508L31.1654 49.7474C32.0576 51.2946 34.2933 51.2946 35.1855 49.7474L48.8598 26.0508C50.9061 22.5047 48.3245 18.1055 44.2543 18.1055H44.2516ZM31.1543 42.6411L28.1769 36.8787L20.9927 24.0296C20.5187 23.2072 21.1041 22.1533 22.0966 22.1533H31.1515V42.6439L31.1543 42.6411ZM45.3527 24.0268L38.1712 36.8815L35.1938 42.6411V22.1505H44.2488C45.2412 22.1505 45.8266 23.2044 45.3527 24.0268Z" fill="white"/>
<path d="M86.0618 50.3567H93.3271V25.0192H103.373V18.1172H76.0156V25.0192H86.0618V50.3567Z" fill="white"/>
<path d="M120.833 50.9016C130.005 50.9016 137.498 43.4093 137.498 34.2369C137.498 25.0646 130.005 17.5723 120.833 17.5723C111.615 17.5723 104.168 25.0646 104.168 34.2369C104.168 43.4093 111.615 50.9016 120.833 50.9016ZM120.833 43.9088C115.565 43.9088 111.433 39.4588 111.433 34.2369C111.433 29.0151 115.565 24.5651 120.833 24.5651C126.054 24.5651 130.186 29.0151 130.186 34.2369C130.186 39.4588 126.054 43.9088 120.833 43.9088Z" fill="white"/>
<path d="M170.652 50.3567V18.1172H163.386V38.0058L147.721 18.1172H141.5V50.3567H148.72V30.4227L164.431 50.3567H170.652Z" fill="white"/>
</g>
</svg>
